<svg id="Layer_1" data-name="Layer 1" xmlns="http://www.w3.org/2000/svg" viewBox="0 0 500 500"><path d="M396.07,173.69c.23,3.25.23,6.51.23,9.79C396.3,283.57,320.1,399,180.77,399v-.06a214.4,214.4,0,0,1-116.1-34,155.08,155.08,0,0,0,18,1.1,152.13,152.13,0,0,0,94.08-32.49A75.85,75.85,0,0,1,106,281a75.43,75.43,0,0,0,34.2-1.31,75.73,75.73,0,0,1-60.76-74.24v-1A75.33,75.33,0,0,0,113.82,214,75.85,75.85,0,0,1,90.37,112.82,215,215,0,0,0,246.48,192a75.82,75.82,0,0,1,129.09-69.09,152.14,152.14,0,0,0,48.1-18.39,76,76,0,0,1-33.3,41.89,150.89,150.89,0,0,0,43.5-11.92A154,154,0,0,1,396.07,173.69Z" fill="#1d9bf0"/></svg>