<svg width="100%" height="100%" viewBox="0 0 51 51" fill="none" xmlns="http://www.w3.org/2000/svg">
<path fill-rule="evenodd" clip-rule="evenodd" d="M5.85748 10.1246C6.4406 9.48849 7.42898 9.44551 8.06511 10.0286L25.7593 26.2483L43.4535 10.0286C44.0896 9.44551 45.078 9.48849 45.6611 10.1246C46.2442 10.7607 46.2012 11.7491 45.5651 12.3322L26.8151 29.5197C26.2177 30.0673 25.3008 30.0673 24.7035 29.5197L5.95347 12.3322C5.31734 11.7491 5.27437 10.7607 5.85748 10.1246Z" fill="#203059"/>
<path fill-rule="evenodd" clip-rule="evenodd" d="M5.44679 11.1804C5.44679 10.3175 6.14634 9.61793 7.00929 9.61793H44.5093C45.3722 9.61793 46.0718 10.3175 46.0718 11.1804V37.7429C46.0718 38.5717 45.7426 39.3666 45.1565 39.9526C44.5704 40.5387 43.7756 40.8679 42.9468 40.8679H8.57179C7.74299 40.8679 6.94813 40.5387 6.36208 39.9526C5.77603 39.3666 5.44679 38.5717 5.44679 37.7429V11.1804ZM8.57179 12.7429V37.7429H42.9468V12.7429H8.57179Z" fill="#203059"/>
<path fill-rule="evenodd" clip-rule="evenodd" d="M23.4929 24.1868C24.0761 24.8228 24.0334 25.8112 23.3974 26.3945L8.55366 40.0078C7.91768 40.591 6.92928 40.5483 6.34602 39.9123C5.76275 39.2763 5.80549 38.2879 6.44147 37.7047L21.2852 24.0914C21.9212 23.5081 22.9096 23.5508 23.4929 24.1868Z" fill="#203059"/>
<path fill-rule="evenodd" clip-rule="evenodd" d="M28.0257 24.1868C28.609 23.5508 29.5974 23.5081 30.2333 24.0914L45.0771 37.7047C45.7131 38.2879 45.7558 39.2763 45.1726 39.9123C44.5893 40.5483 43.6009 40.591 42.9649 40.0078L28.1212 26.3945C27.4852 25.8112 27.4424 24.8228 28.0257 24.1868Z" fill="#203059"/>
</svg>
