<svg width="100%" height="100%" viewBox="0 0 51 51" fill="none" xmlns="http://www.w3.org/2000/svg">
<path fill-rule="evenodd" clip-rule="evenodd" d="M21.3399 8.3235C22.512 7.1514 24.1017 6.49292 25.7593 6.49292C27.4169 6.49292 29.0066 7.1514 30.1787 8.3235C30.3847 8.52954 30.5749 8.74848 30.7484 8.97843C30.7552 8.98763 30.762 8.99675 30.7689 9.00579C31.5695 10.0789 32.0093 11.3882 32.0093 12.7429H19.5093C19.5093 11.3882 19.9491 10.0789 20.7496 9.00577C20.7566 8.99674 20.7634 8.98763 20.7701 8.97845C20.9436 8.7485 21.1338 8.52955 21.3399 8.3235ZM18.7715 6.49292C18.8872 6.36358 19.0068 6.23715 19.1302 6.11379C20.8883 4.35564 23.2729 3.36792 25.7593 3.36792C28.2457 3.36792 30.6302 4.35564 32.3884 6.11379C32.5118 6.23715 32.6313 6.36358 32.747 6.49292H39.8218C40.6506 6.49292 41.4454 6.82216 42.0315 7.40821C42.6175 7.99426 42.9468 8.78912 42.9468 9.61792V42.4304C42.9468 43.2592 42.6175 44.0541 42.0315 44.6401C41.4454 45.2262 40.6506 45.5554 39.8218 45.5554H11.6968C10.868 45.5554 10.0731 45.2262 9.48707 44.6401C8.90102 44.0541 8.57178 43.2592 8.57178 42.4304V9.61792C8.57178 8.78912 8.90102 7.99426 9.48707 7.40821C10.0731 6.82216 10.868 6.49292 11.6968 6.49292H18.7715ZM16.9204 9.61792L11.6968 9.61792L11.6968 42.4304H39.8218V9.61792H34.5981C34.9497 10.6123 35.1343 11.6681 35.1343 12.7429V14.3054C35.1343 15.1684 34.4347 15.8679 33.5718 15.8679H17.9468C17.0838 15.8679 16.3843 15.1684 16.3843 14.3054V12.7429C16.3843 11.6681 16.5688 10.6123 16.9204 9.61792ZM19.5093 22.1179C18.6463 22.1179 17.9468 22.8175 17.9468 23.6804C17.9468 24.5434 18.6463 25.2429 19.5093 25.2429H32.0093C32.8722 25.2429 33.5718 24.5434 33.5718 23.6804C33.5718 22.8175 32.8722 22.1179 32.0093 22.1179H19.5093ZM19.5093 28.3679C18.6463 28.3679 17.9468 29.0675 17.9468 29.9304C17.9468 30.7934 18.6463 31.4929 19.5093 31.4929H32.0093C32.8722 31.4929 33.5718 30.7934 33.5718 29.9304C33.5718 29.0675 32.8722 28.3679 32.0093 28.3679H19.5093Z" fill="#203059"/>
</svg>
