<?xml version="1.0" encoding="UTF-8"?> <svg xmlns="http://www.w3.org/2000/svg" width="100%" height="100%" viewBox="0 0 283 66" fill="none"><path d="M0 65L20.16 9.92002C21.3 6.92002 23.16 4.67002 25.74 3.17002C28.38 1.61002 31.35 0.830017 34.65 0.830017C37.95 0.830017 40.89 1.58002 43.47 3.08002C46.11 4.58002 48 6.83002 49.14 9.83002L69.3 65H48.69L45.27 54.02H23.76L20.16 65H0ZM27.81 39.17H41.22L35.37 18.92C35.31 18.74 35.22 18.62 35.1 18.56C34.98 18.44 34.83 18.38 34.65 18.38C34.53 18.38 34.41 18.44 34.29 18.56C34.17 18.62 34.08 18.74 34.02 18.92L27.81 39.17Z" fill="#1D1AA7"></path><path d="M97.5178 65.9C109.488 65.9 118.488 60.41 121.728 51.32L105.978 43.58C103.908 48.17 100.938 50.06 97.4278 50.06C92.8378 50.06 89.0578 46.82 89.0578 40.34C89.0578 33.95 92.8378 30.71 97.4278 30.71C100.938 30.71 103.908 32.6 105.978 37.19L121.728 29.45C118.488 20.36 109.488 14.87 97.5178 14.87C80.5078 14.87 68.4478 25.4 68.4478 40.34C68.4478 55.37 80.5078 65.9 97.5178 65.9Z" fill="#1D1AA7"></path><path d="M159.909 15.77V38.9C159.909 46.19 156.489 48.8 152.979 48.8C149.019 48.8 146.589 46.46 146.589 39.44V15.77H126.249V42.95C126.249 58.97 135.159 65.9 146.949 65.9C152.259 65.9 157.209 64.1 160.899 60.32V65H180.249V15.77H159.909Z" fill="#1D1AA7"></path><path d="M208.621 21.08V15.77H189.271V65H209.611V43.13C209.611 35.3 213.931 32.51 220.051 32.51C221.491 32.51 222.751 32.6 224.551 32.87V14.87C217.711 14.87 212.221 16.94 208.621 21.08Z" fill="#1D1AA7"></path><path d="M282.256 40.34C282.256 23.69 269.746 14.87 255.166 14.87C239.236 14.87 227.266 25.4 227.266 40.34C227.266 55.01 238.966 65.9 257.056 65.9C266.866 65.9 273.796 63.2 278.566 57.98L267.946 47.27C264.706 49.7 262.186 50.87 257.686 50.87C252.646 50.87 249.226 48.89 247.786 45.11H281.986C282.076 43.67 282.256 41.78 282.256 40.34ZM255.346 28.73C259.486 28.73 262.456 31.16 263.266 35.3H247.426C248.236 31.16 251.116 28.73 255.346 28.73Z" fill="#1D1AA7"></path></svg> 