<?xml version="1.0" encoding="UTF-8"?> <svg xmlns="http://www.w3.org/2000/svg" viewBox="0 0 20 21" fill="none"><path d="M0.416667 20.5001C0.446669 20.5001 0.476579 20.4967 0.505833 20.4901L10.0892 18.3809C10.1819 18.3606 10.265 18.3092 10.3245 18.2352C10.3841 18.1613 10.4166 18.0692 10.4167 17.9742V12.8576C10.4167 12.7471 10.3728 12.6411 10.2946 12.5629C10.2165 12.4848 10.1105 12.4409 10 12.4409C9.88949 12.4409 9.78351 12.4848 9.70537 12.5629C9.62723 12.6411 9.58333 12.7471 9.58333 12.8576V17.6392L0.833333 19.5651V1.43506L9.58333 3.3609V8.14256C9.58333 8.25307 9.62723 8.35905 9.70537 8.43719C9.78351 8.51533 9.88949 8.55923 10 8.55923C10.1105 8.55923 10.2165 8.51533 10.2946 8.43719C10.3728 8.35905 10.4167 8.25307 10.4167 8.14256V3.0259C10.4166 2.93094 10.3841 2.83886 10.3245 2.7649C10.265 2.69095 10.1819 2.63955 10.0892 2.61923L0.505833 0.510065C0.445016 0.496741 0.381986 0.497216 0.321376 0.511455C0.260766 0.525693 0.204118 0.553334 0.155595 0.592344C0.107072 0.631354 0.0679078 0.680743 0.0409817 0.736879C0.0140556 0.793015 5.18988e-05 0.854472 0 0.916731L0 20.0834C0 20.1939 0.0438987 20.2999 0.122039 20.378C0.200179 20.4562 0.30616 20.5001 0.416667 20.5001Z" fill="white"></path><path d="M19.5837 10.0833H6.21452L7.86035 8.4375C7.93625 8.35891 7.97825 8.25366 7.9773 8.14442C7.97635 8.03517 7.93253 7.93066 7.85527 7.85341C7.77802 7.77615 7.67352 7.73233 7.56427 7.73138C7.45502 7.73044 7.34977 7.77243 7.27118 7.84833L4.91702 10.205C4.87837 10.2441 4.84754 10.2902 4.82618 10.3408C4.7845 10.4429 4.7845 10.5571 4.82618 10.6592C4.84754 10.7098 4.87837 10.7559 4.91702 10.795L7.27368 13.1517C7.35182 13.2298 7.45778 13.2737 7.56827 13.2737C7.67875 13.2737 7.78471 13.2298 7.86285 13.1517C7.94096 13.0735 7.98484 12.9676 7.98484 12.8571C7.98484 12.7466 7.94096 12.6406 7.86285 12.5625L6.21452 10.9167H19.5837C19.6942 10.9167 19.8002 10.8728 19.8783 10.7946C19.9565 10.7165 20.0003 10.6105 20.0003 10.5C20.0003 10.3895 19.9565 10.2835 19.8783 10.2054C19.8002 10.1272 19.6942 10.0833 19.5837 10.0833Z" fill="white"></path></svg> 