<?xml version="1.0" encoding="UTF-8"?> <svg xmlns="http://www.w3.org/2000/svg" viewBox="0 0 25 26" fill="none"><rect y="0.233398" width="25" height="25" rx="5" fill="white"></rect><path d="M12.5 5.2334C8.35875 5.2334 5 8.67642 5 12.923C5 16.3205 7.14875 19.2028 10.1294 20.2198C10.5037 20.2909 10.625 20.0525 10.625 19.8501V18.4185C8.53875 18.8837 8.10438 17.5111 8.10438 17.5111C7.76313 16.6223 7.27125 16.3859 7.27125 16.3859C6.59063 15.9085 7.32313 15.9187 7.32313 15.9187C8.07625 15.9726 8.4725 16.7114 8.4725 16.7114C9.14125 17.8866 10.2269 17.547 10.655 17.3503C10.7219 16.8537 10.9163 16.514 11.1313 16.3224C9.46563 16.127 7.71437 15.4676 7.71437 12.5219C7.71437 11.6818 8.0075 10.9961 8.48687 10.4578C8.40937 10.2637 8.1525 9.48126 8.56 8.42266C8.56 8.42266 9.19 8.21632 10.6231 9.21085C11.2212 9.04039 11.8625 8.95517 12.5 8.95196C13.1375 8.95517 13.7794 9.04039 14.3787 9.21085C15.8106 8.21632 16.4394 8.42266 16.4394 8.42266C16.8475 9.4819 16.5906 10.2643 16.5131 10.4578C16.9944 10.9961 17.285 11.6824 17.285 12.5219C17.285 15.4753 15.5306 16.1257 13.8606 16.316C14.1294 16.5544 14.375 17.0222 14.375 17.7399V19.8501C14.375 20.0545 14.495 20.2948 14.8756 20.2192C17.8537 19.2009 20 16.3192 20 12.923C20 8.67642 16.6419 5.2334 12.5 5.2334Z" fill="#203059"></path></svg> 