<?xml version="1.0" encoding="UTF-8"?> <svg xmlns="http://www.w3.org/2000/svg" width="100%" height="100%" viewBox="0 0 346 466" fill="none" preserveAspectRatio="none"><path opacity="0.8" d="M247 252H315C331.569 252 345 238.569 345 222V25.0196C345 11.7539 334.246 1 320.98 1V1" stroke="url(#paint0_linear_4683_41665)" stroke-linecap="round" stroke-dasharray="10 10"></path><path opacity="0.8" d="M247 244H307C323.569 244 337 230.569 337 214V158.059C337 145.876 327.124 136 314.941 136V136" stroke="url(#paint1_linear_4683_41665)" stroke-linecap="round" stroke-dasharray="10 10"></path><path opacity="0.8" d="M99 252H31C14.4315 252 1 238.569 1 222V25.0196C1 11.7539 11.7539 1 25.0196 1V1" stroke="url(#paint2_linear_4683_41665)" stroke-linecap="round" stroke-dasharray="10 10"></path><path opacity="0.8" d="M99 244H39C22.4315 244 9 230.569 9 214V158.059C9 145.876 18.8761 136 31.0588 136V136" stroke="url(#paint3_linear_4683_41665)" stroke-linecap="round" stroke-dasharray="10 10"></path><path opacity="0.8" d="M99 260H39C22.4315 260 9 273.431 9 290V362.941C9 375.124 18.8761 385 31.0588 385V385" stroke="url(#paint4_linear_4683_41665)" stroke-linecap="round" stroke-dasharray="10 10"></path><path opacity="0.8" d="M255 260H315C331.569 260 345 273.431 345 290V362.941C345 375.124 335.124 385 322.941 385V385" stroke="url(#paint5_linear_4683_41665)" stroke-linecap="round" stroke-dasharray="10 10"></path><path opacity="0.8" d="M173.5 307.5V465.5" stroke="url(#paint6_linear_4683_41665)" stroke-linecap="round" stroke-dasharray="10 10"></path><defs><linearGradient id="paint0_linear_4683_41665" x1="345" y1="232.158" x2="332.48" y2="274.178" gradientUnits="userSpaceOnUse"><stop stop-color="#4F77DB"></stop><stop offset="1" stop-color="#4F77DB" stop-opacity="0"></stop></linearGradient><linearGradient id="paint1_linear_4683_41665" x1="337" y1="235.462" x2="334.304" y2="254.772" gradientUnits="userSpaceOnUse"><stop stop-color="#4F77DB"></stop><stop offset="1" stop-color="#4F77DB" stop-opacity="0"></stop></linearGradient><linearGradient id="paint2_linear_4683_41665" x1="0.99984" y1="232.158" x2="13.5203" y2="274.178" gradientUnits="userSpaceOnUse"><stop stop-color="#4F77DB"></stop><stop offset="1" stop-color="#4F77DB" stop-opacity="0"></stop></linearGradient><linearGradient id="paint3_linear_4683_41665" x1="8.99985" y1="235.462" x2="11.6955" y2="254.772" gradientUnits="userSpaceOnUse"><stop stop-color="#4F77DB"></stop><stop offset="1" stop-color="#4F77DB" stop-opacity="0"></stop></linearGradient><linearGradient id="paint4_linear_4683_41665" x1="8.99985" y1="269.881" x2="12.5876" y2="247.677" gradientUnits="userSpaceOnUse"><stop stop-color="#4F77DB"></stop><stop offset="1" stop-color="#4F77DB" stop-opacity="0"></stop></linearGradient><linearGradient id="paint5_linear_4683_41665" x1="345" y1="269.881" x2="341.412" y2="247.677" gradientUnits="userSpaceOnUse"><stop stop-color="#4F77DB"></stop><stop offset="1" stop-color="#4F77DB" stop-opacity="0"></stop></linearGradient><linearGradient id="paint6_linear_4683_41665" x1="173.5" y1="321.5" x2="175.534" y2="321.237" gradientUnits="userSpaceOnUse"><stop stop-color="#4F77DB"></stop><stop offset="1" stop-color="#4F77DB" stop-opacity="0"></stop></linearGradient></defs></svg> 