<?xml version="1.0" encoding="UTF-8"?> <svg xmlns="http://www.w3.org/2000/svg" xmlns:xlink="http://www.w3.org/1999/xlink" width="100%" height="100%" viewBox="0 0 601 569" fill="none" preserveAspectRatio="none"><path opacity="0.8" d="M277 283.953L599 283.957" stroke="url(#paint0_linear_4672_40707)" stroke-dasharray="15 15"></path><path opacity="0.8" d="M106.001 274V273.5V274ZM49.0006 239L48.509 239.091L48.5112 239.103L48.514 239.115L49.0006 239ZM1 189.5C0.723858 189.5 0.5 189.724 0.5 190C0.5 190.276 0.723858 190.5 1 190.5V189.5ZM10.1845 191.448C10.4546 191.506 10.7202 191.334 10.7779 191.064C10.8356 190.794 10.6635 190.528 10.3934 190.47L10.1845 191.448ZM27.3949 198.424C27.1768 198.255 26.8627 198.294 26.6933 198.512C26.524 198.73 26.5635 199.045 26.7816 199.214L27.3949 198.424ZM38.9202 213.074C39.0642 213.309 39.372 213.384 39.6076 213.24C39.8432 213.096 39.9175 212.788 39.7736 212.552L38.9202 213.074ZM47.3004 229.764C47.2216 229.499 46.9432 229.348 46.6786 229.427C46.4139 229.506 46.2632 229.784 46.3419 230.049L47.3004 229.764ZM51.407 247.89C51.5178 248.143 51.8126 248.258 52.0656 248.147C52.3185 248.037 52.4338 247.742 52.3231 247.489L51.407 247.89ZM63.0155 261.845C62.8027 261.669 62.4875 261.699 62.3116 261.912C62.1357 262.125 62.1656 262.44 62.3785 262.616L63.0155 261.845ZM78.7018 271.067C78.966 271.147 79.2453 270.998 79.3255 270.734C79.4058 270.47 79.2567 270.191 78.9925 270.11L78.7018 271.067ZM96.8851 273.196C96.6097 273.177 96.3707 273.385 96.3514 273.66C96.3321 273.936 96.5397 274.175 96.8152 274.194L96.8851 273.196ZM113.282 274.5C113.558 274.5 113.782 274.276 113.782 274C113.782 273.723 113.558 273.5 113.282 273.5V274.5ZM127.844 273.5C127.568 273.5 127.344 273.723 127.344 274C127.344 274.276 127.568 274.5 127.844 274.5V273.5ZM142.407 274.5C142.683 274.5 142.907 274.276 142.907 274C142.907 273.723 142.683 273.5 142.407 273.5V274.5ZM156.969 273.5C156.693 273.5 156.469 273.723 156.469 274C156.469 274.276 156.693 274.5 156.969 274.5V273.5ZM171.532 274.5C171.808 274.5 172.032 274.276 172.032 274C172.032 273.723 171.808 273.5 171.532 273.5V274.5ZM186.094 273.5C185.818 273.5 185.594 273.723 185.594 274C185.594 274.276 185.818 274.5 186.094 274.5V273.5ZM200.657 274.5C200.933 274.5 201.157 274.276 201.157 274C201.157 273.723 200.933 273.5 200.657 273.5V274.5ZM215.219 273.5C214.943 273.5 214.719 273.723 214.719 274C214.719 274.276 214.943 274.5 215.219 274.5V273.5ZM229.782 274.5C230.058 274.5 230.282 274.276 230.282 274C230.282 273.723 230.058 273.5 229.782 273.5V274.5ZM244.344 273.5C244.068 273.5 243.844 273.723 243.844 274C243.844 274.276 244.068 274.5 244.344 274.5V273.5ZM258.907 274.5C259.183 274.5 259.407 274.276 259.407 274C259.407 273.723 259.183 273.5 258.907 273.5V274.5ZM273.469 273.5C273.193 273.5 272.969 273.723 272.969 274C272.969 274.276 273.193 274.5 273.469 274.5V273.5ZM288.032 274.5C288.308 274.5 288.532 274.276 288.532 274C288.532 273.723 288.308 273.5 288.032 273.5V274.5ZM302.594 273.5C302.318 273.5 302.094 273.723 302.094 274C302.094 274.276 302.318 274.5 302.594 274.5V273.5ZM317.157 274.5C317.433 274.5 317.657 274.276 317.657 274C317.657 273.723 317.433 273.5 317.157 273.5V274.5ZM331.719 273.5C331.443 273.5 331.219 273.723 331.219 274C331.219 274.276 331.443 274.5 331.719 274.5V273.5ZM1 190.5C4.21351 190.5 7.27568 190.827 10.1845 191.448L10.3934 190.47C7.41396 189.834 4.28168 189.5 1 189.5V190.5ZM26.7816 199.214C31.5298 202.901 35.5857 207.616 38.9202 213.074L39.7736 212.552C36.385 207.006 32.2515 202.196 27.3949 198.424L26.7816 199.214ZM46.3419 230.049C47.2137 232.979 47.9369 236.002 48.509 239.091L49.4923 238.909C48.914 235.786 48.1827 232.729 47.3004 229.764L46.3419 230.049ZM48.514 239.115C49.2657 242.295 50.2356 245.214 51.407 247.89L52.3231 247.489C51.1775 244.872 50.2261 242.011 49.4872 238.885L48.514 239.115ZM62.3785 262.616C67.0384 266.467 72.5587 269.201 78.7018 271.067L78.9925 270.11C72.9493 268.274 67.554 265.596 63.0155 261.845L62.3785 262.616ZM96.8152 274.194C99.8071 274.404 102.875 274.5 106.001 274.5V273.5C102.895 273.5 99.8508 273.404 96.8851 273.196L96.8152 274.194ZM106.001 274.5H113.282V273.5H106.001V274.5ZM127.844 274.5H142.407V273.5H127.844V274.5ZM156.969 274.5H171.532V273.5H156.969V274.5ZM186.094 274.5H200.657V273.5H186.094V274.5ZM215.219 274.5H229.782V273.5H215.219V274.5ZM244.344 274.5H258.907V273.5H244.344V274.5ZM273.469 274.5H288.032V273.5H273.469V274.5ZM302.594 274.5H317.157V273.5H302.594V274.5ZM331.719 274.5H339.001V273.5H331.719V274.5ZM106.001 274V273V274ZM49.0006 239L48.0174 239.182L48.0218 239.206L48.0275 239.23L49.0006 239ZM1 189C0.447715 189 0 189.448 0 190C0 190.552 0.447715 191 1 191V189ZM10.08 191.937C10.6201 192.053 11.1515 191.708 11.2669 191.168C11.3823 190.628 11.038 190.097 10.4979 189.981L10.08 191.937ZM27.7016 198.029C27.2654 197.691 26.6372 197.769 26.2984 198.206C25.9597 198.642 26.0387 199.27 26.4749 199.609L27.7016 198.029ZM38.4936 213.335C38.7815 213.806 39.397 213.954 39.8683 213.666C40.3396 213.379 40.4882 212.763 40.2002 212.292L38.4936 213.335ZM47.7796 229.621C47.6221 229.092 47.0653 228.79 46.536 228.948C46.0066 229.105 45.7052 229.662 45.8627 230.191L47.7796 229.621ZM50.949 248.09C51.1705 248.596 51.7602 248.827 52.2661 248.605C52.772 248.384 53.0026 247.794 52.7811 247.288L50.949 248.09ZM63.3341 261.46C62.9083 261.108 62.278 261.168 61.9262 261.593C61.5744 262.019 61.6343 262.649 62.06 263.001L63.3341 261.46ZM78.5564 271.546C79.0849 271.706 79.6434 271.408 79.8039 270.879C79.9645 270.351 79.6662 269.792 79.1378 269.632L78.5564 271.546ZM96.9201 272.698C96.3692 272.659 95.8912 273.074 95.8526 273.625C95.814 274.176 96.2293 274.654 96.7802 274.693L96.9201 272.698ZM113.282 275C113.834 275 114.282 274.552 114.282 274C114.282 273.447 113.834 273 113.282 273V275ZM127.844 273C127.292 273 126.844 273.447 126.844 274C126.844 274.552 127.292 275 127.844 275V273ZM142.407 275C142.959 275 143.407 274.552 143.407 274C143.407 273.447 142.959 273 142.407 273V275ZM156.969 273C156.417 273 155.969 273.447 155.969 274C155.969 274.552 156.417 275 156.969 275V273ZM171.532 275C172.084 275 172.532 274.552 172.532 274C172.532 273.447 172.084 273 171.532 273V275ZM186.094 273C185.542 273 185.094 273.447 185.094 274C185.094 274.552 185.542 275 186.094 275V273ZM200.657 275C201.209 275 201.657 274.552 201.657 274C201.657 273.447 201.209 273 200.657 273V275ZM215.219 273C214.667 273 214.219 273.447 214.219 274C214.219 274.552 214.667 275 215.219 275V273ZM229.782 275C230.334 275 230.782 274.552 230.782 274C230.782 273.447 230.334 273 229.782 273V275ZM244.344 273C243.792 273 243.344 273.447 243.344 274C243.344 274.552 243.792 275 244.344 275V273ZM258.907 275C259.459 275 259.907 274.552 259.907 274C259.907 273.447 259.459 273 258.907 273V275ZM273.469 273C272.917 273 272.469 273.447 272.469 274C272.469 274.552 272.917 275 273.469 275V273ZM288.032 275C288.584 275 289.032 274.552 289.032 274C289.032 273.447 288.584 273 288.032 273V275ZM302.594 273C302.042 273 301.594 273.447 301.594 274C301.594 274.552 302.042 275 302.594 275V273ZM317.157 275C317.709 275 318.157 274.552 318.157 274C318.157 273.447 317.709 273 317.157 273V275ZM331.719 273C331.167 273 330.719 273.447 330.719 274C330.719 274.552 331.167 275 331.719 275V273ZM1 191C4.17942 191 7.20654 191.323 10.08 191.937L10.4979 189.981C7.4831 189.337 4.31576 189 1 189V191ZM26.4749 199.609C31.1689 203.254 35.186 207.921 38.4936 213.335L40.2002 212.292C36.7847 206.702 32.6124 201.843 27.7016 198.029L26.4749 199.609ZM45.8627 230.191C46.7293 233.104 47.4484 236.109 48.0174 239.182L49.9839 238.818C49.4025 235.678 48.6672 232.604 47.7796 229.621L45.8627 230.191ZM48.0275 239.23C48.7855 242.437 49.7646 245.385 50.949 248.09L52.7811 247.288C51.6485 244.701 50.7063 241.869 49.9738 238.77L48.0275 239.23ZM62.06 263.001C66.7806 266.903 72.3633 269.664 78.5564 271.546L79.1378 269.632C73.1446 267.811 67.8117 265.16 63.3341 261.46L62.06 263.001ZM96.7802 274.693C99.7852 274.903 102.864 275 106.001 275V273C102.905 273 99.8727 272.905 96.9201 272.698L96.7802 274.693ZM106.001 275H113.282V273H106.001V275ZM127.844 275H142.407V273H127.844V275ZM156.969 275H171.532V273H156.969V275ZM186.094 275H200.657V273H186.094V275ZM215.219 275H229.782V273H215.219V275ZM244.344 275H258.907V273H244.344V275ZM273.469 275H288.032V273H273.469V275ZM302.594 275H317.157V273H302.594V275ZM331.719 275H339.001V273H331.719V275Z" fill="url(#paint1_linear_4672_40707)"></path><path opacity="0.8" d="M106.001 294.004V294.504V294.004ZM49.0006 329.004L48.509 328.913L48.5112 328.901L48.514 328.889L49.0006 329.004ZM1 378.504C0.723858 378.504 0.5 378.28 0.5 378.004C0.5 377.728 0.723858 377.504 1 377.504V378.504ZM10.1845 376.556C10.4546 376.498 10.7202 376.67 10.7779 376.94C10.8356 377.21 10.6635 377.476 10.3934 377.534L10.1845 376.556ZM27.3949 369.58C27.1768 369.749 26.8627 369.71 26.6933 369.492C26.524 369.273 26.5635 368.959 26.7816 368.79L27.3949 369.58ZM38.9202 354.93C39.0642 354.694 39.372 354.62 39.6076 354.764C39.8432 354.908 39.9175 355.216 39.7736 355.451L38.9202 354.93ZM47.3004 338.24C47.2216 338.505 46.9432 338.656 46.6786 338.577C46.4139 338.498 46.2632 338.22 46.3419 337.955L47.3004 338.24ZM51.407 320.114C51.5178 319.861 51.8126 319.746 52.0656 319.857C52.3185 319.967 52.4338 320.262 52.3231 320.515L51.407 320.114ZM63.0155 306.159C62.8027 306.335 62.4875 306.305 62.3116 306.092C62.1357 305.879 62.1656 305.564 62.3785 305.388L63.0155 306.159ZM78.7018 296.937C78.966 296.856 79.2453 297.006 79.3255 297.27C79.4058 297.534 79.2567 297.813 78.9925 297.894L78.7018 296.937ZM96.8851 294.808C96.6097 294.827 96.3707 294.619 96.3514 294.344C96.3321 294.068 96.5397 293.829 96.8152 293.81L96.8851 294.808ZM113.157 293.504C113.433 293.504 113.657 293.728 113.657 294.004C113.657 294.281 113.433 294.504 113.157 294.504V293.504ZM127.469 294.504C127.193 294.504 126.969 294.281 126.969 294.004C126.969 293.728 127.193 293.504 127.469 293.504V294.504ZM141.782 293.504C142.058 293.504 142.282 293.728 142.282 294.004C142.282 294.281 142.058 294.504 141.782 294.504V293.504ZM156.094 294.504C155.818 294.504 155.594 294.281 155.594 294.004C155.594 293.728 155.818 293.504 156.094 293.504V294.504ZM170.407 293.504C170.683 293.504 170.907 293.728 170.907 294.004C170.907 294.281 170.683 294.504 170.407 294.504V293.504ZM184.719 294.504C184.443 294.504 184.219 294.281 184.219 294.004C184.219 293.728 184.443 293.504 184.719 293.504V294.504ZM199.032 293.504C199.308 293.504 199.532 293.728 199.532 294.004C199.532 294.281 199.308 294.504 199.032 294.504V293.504ZM213.344 294.504C213.068 294.504 212.844 294.281 212.844 294.004C212.844 293.728 213.068 293.504 213.344 293.504V294.504ZM227.657 293.504C227.933 293.504 228.157 293.728 228.157 294.004C228.157 294.281 227.933 294.504 227.657 294.504V293.504ZM241.969 294.504C241.693 294.504 241.469 294.281 241.469 294.004C241.469 293.728 241.693 293.504 241.969 293.504V294.504ZM256.282 293.504C256.558 293.504 256.782 293.728 256.782 294.004C256.782 294.281 256.558 294.504 256.282 294.504V293.504ZM270.594 294.504C270.318 294.504 270.094 294.281 270.094 294.004C270.094 293.728 270.318 293.504 270.594 293.504V294.504ZM284.907 293.504C285.183 293.504 285.407 293.728 285.407 294.004C285.407 294.281 285.183 294.504 284.907 294.504V293.504ZM299.219 294.504C298.943 294.504 298.719 294.281 298.719 294.004C298.719 293.728 298.943 293.504 299.219 293.504V294.504ZM313.532 293.504C313.808 293.504 314.032 293.728 314.032 294.004C314.032 294.281 313.808 294.504 313.532 294.504V293.504ZM327.844 294.504C327.568 294.504 327.344 294.281 327.344 294.004C327.344 293.728 327.568 293.504 327.844 293.504V294.504ZM1 377.504C4.21351 377.504 7.27568 377.177 10.1845 376.556L10.3934 377.534C7.41396 378.17 4.28168 378.504 1 378.504V377.504ZM26.7816 368.79C31.5298 365.102 35.5857 360.388 38.9202 354.93L39.7736 355.451C36.385 360.998 32.2515 365.808 27.3949 369.58L26.7816 368.79ZM46.3419 337.955C47.2137 335.025 47.9369 332.002 48.509 328.913L49.4923 329.095C48.914 332.218 48.1827 335.275 47.3004 338.24L46.3419 337.955ZM48.514 328.889C49.2657 325.709 50.2356 322.79 51.407 320.114L52.3231 320.515C51.1775 323.132 50.2261 325.993 49.4872 329.119L48.514 328.889ZM62.3785 305.388C67.0384 301.537 72.5587 298.803 78.7018 296.937L78.9925 297.894C72.9493 299.729 67.554 302.408 63.0155 306.159L62.3785 305.388ZM96.8152 293.81C99.8071 293.6 102.875 293.504 106.001 293.504V294.504C102.895 294.504 99.8508 294.6 96.8851 294.808L96.8152 293.81ZM106.001 293.504H113.157V294.504H106.001V293.504ZM127.469 293.504H141.782V294.504H127.469V293.504ZM156.094 293.504H170.407V294.504H156.094V293.504ZM184.719 293.504H199.032V294.504H184.719V293.504ZM213.344 293.504H227.657V294.504H213.344V293.504ZM241.969 293.504H256.282V294.504H241.969V293.504ZM270.594 293.504H284.907V294.504H270.594V293.504ZM299.219 293.504H313.532V294.504H299.219V293.504ZM327.844 293.504H335.001V294.504H327.844V293.504ZM106.001 294.004V295.004V294.004ZM49.0006 329.004L48.0174 328.822L48.0218 328.798L48.0275 328.774L49.0006 329.004ZM1 379.004C0.447715 379.004 0 378.556 0 378.004C0 377.452 0.447715 377.004 1 377.004V379.004ZM10.08 376.067C10.6201 375.951 11.1515 376.296 11.2669 376.836C11.3823 377.376 11.038 377.907 10.4979 378.023L10.08 376.067ZM27.7016 369.975C27.2654 370.313 26.6372 370.234 26.2984 369.798C25.9597 369.362 26.0387 368.734 26.4749 368.395L27.7016 369.975ZM38.4936 354.669C38.7815 354.198 39.397 354.049 39.8683 354.337C40.3396 354.625 40.4882 355.241 40.2002 355.712L38.4936 354.669ZM47.7796 338.383C47.6221 338.912 47.0653 339.214 46.536 339.056C46.0066 338.899 45.7052 338.342 45.8627 337.813L47.7796 338.383ZM50.949 319.914C51.1705 319.408 51.7602 319.177 52.2661 319.399C52.772 319.62 53.0026 320.21 52.7811 320.716L50.949 319.914ZM63.3341 306.544C62.9083 306.896 62.278 306.836 61.9262 306.41C61.5744 305.985 61.6343 305.354 62.06 305.003L63.3341 306.544ZM78.5564 296.458C79.0849 296.298 79.6434 296.596 79.8039 297.124C79.9645 297.653 79.6662 298.211 79.1378 298.372L78.5564 296.458ZM96.9201 295.306C96.3692 295.345 95.8912 294.93 95.8526 294.379C95.814 293.828 96.2293 293.35 96.7802 293.311L96.9201 295.306ZM113.157 293.004C113.709 293.004 114.157 293.452 114.157 294.004C114.157 294.557 113.709 295.004 113.157 295.004V293.004ZM127.469 295.004C126.917 295.004 126.469 294.557 126.469 294.004C126.469 293.452 126.917 293.004 127.469 293.004V295.004ZM141.782 293.004C142.334 293.004 142.782 293.452 142.782 294.004C142.782 294.557 142.334 295.004 141.782 295.004V293.004ZM156.094 295.004C155.542 295.004 155.094 294.557 155.094 294.004C155.094 293.452 155.542 293.004 156.094 293.004V295.004ZM170.407 293.004C170.959 293.004 171.407 293.452 171.407 294.004C171.407 294.557 170.959 295.004 170.407 295.004V293.004ZM184.719 295.004C184.167 295.004 183.719 294.557 183.719 294.004C183.719 293.452 184.167 293.004 184.719 293.004V295.004ZM199.032 293.004C199.584 293.004 200.032 293.452 200.032 294.004C200.032 294.557 199.584 295.004 199.032 295.004V293.004ZM213.344 295.004C212.792 295.004 212.344 294.557 212.344 294.004C212.344 293.452 212.792 293.004 213.344 293.004V295.004ZM227.657 293.004C228.209 293.004 228.657 293.452 228.657 294.004C228.657 294.557 228.209 295.004 227.657 295.004V293.004ZM241.969 295.004C241.417 295.004 240.969 294.557 240.969 294.004C240.969 293.452 241.417 293.004 241.969 293.004V295.004ZM256.282 293.004C256.834 293.004 257.282 293.452 257.282 294.004C257.282 294.557 256.834 295.004 256.282 295.004V293.004ZM270.594 295.004C270.042 295.004 269.594 294.557 269.594 294.004C269.594 293.452 270.042 293.004 270.594 293.004V295.004ZM284.907 293.004C285.459 293.004 285.907 293.452 285.907 294.004C285.907 294.557 285.459 295.004 284.907 295.004V293.004ZM299.219 295.004C298.667 295.004 298.219 294.557 298.219 294.004C298.219 293.452 298.667 293.004 299.219 293.004V295.004ZM313.532 293.004C314.084 293.004 314.532 293.452 314.532 294.004C314.532 294.557 314.084 295.004 313.532 295.004V293.004ZM327.844 295.004C327.292 295.004 326.844 294.557 326.844 294.004C326.844 293.452 327.292 293.004 327.844 293.004V295.004ZM1 377.004C4.17942 377.004 7.20654 376.681 10.08 376.067L10.4979 378.023C7.4831 378.667 4.31576 379.004 1 379.004V377.004ZM26.4749 368.395C31.1689 364.75 35.186 360.083 38.4936 354.669L40.2002 355.712C36.7847 361.302 32.6124 366.161 27.7016 369.975L26.4749 368.395ZM45.8627 337.813C46.7293 334.9 47.4484 331.894 48.0174 328.822L49.9839 329.186C49.4025 332.326 48.6672 335.4 47.7796 338.383L45.8627 337.813ZM48.0275 328.774C48.7855 325.567 49.7646 322.619 50.949 319.914L52.7811 320.716C51.6485 323.303 50.7063 326.135 49.9738 329.234L48.0275 328.774ZM62.06 305.003C66.7806 301.101 72.3633 298.34 78.5564 296.458L79.1378 298.372C73.1446 300.193 67.8117 302.844 63.3341 306.544L62.06 305.003ZM96.7802 293.311C99.7852 293.1 102.864 293.004 106.001 293.004V295.004C102.905 295.004 99.8727 295.099 96.9201 295.306L96.7802 293.311ZM106.001 293.004H113.157V295.004H106.001V293.004ZM127.469 293.004H141.782V295.004H127.469V293.004ZM156.094 293.004H170.407V295.004H156.094V293.004ZM184.719 293.004H199.032V295.004H184.719V293.004ZM213.344 293.004H227.657V295.004H213.344V293.004ZM241.969 293.004H256.282V295.004H241.969V293.004ZM270.594 293.004H284.907V295.004H270.594V293.004ZM299.219 293.004H313.532V295.004H299.219V293.004ZM327.844 293.004H335.001V295.004H327.844V293.004Z" fill="url(#paint2_linear_4672_40707)"></path><path opacity="0.8" d="M505.499 425H505.999H505.499ZM506 346.5C506 346.776 505.776 347 505.5 347C505.224 347 505 346.776 505 346.5H506ZM463 304V303.5V304ZM505.999 345.671C505.999 345.947 505.775 346.171 505.499 346.171C505.223 346.171 504.999 345.947 504.999 345.671H505.999ZM504.999 346.013C504.999 345.736 505.223 345.513 505.499 345.513C505.775 345.513 505.999 345.736 505.999 346.013H504.999ZM594.875 475.5C594.599 475.5 594.375 475.276 594.375 475C594.375 474.724 594.599 474.5 594.875 474.5V475.5ZM583.625 474.5C583.901 474.5 584.125 474.724 584.125 475C584.125 475.276 583.901 475.5 583.625 475.5V474.5ZM572.374 475.5C572.098 475.5 571.874 475.276 571.874 475C571.874 474.724 572.098 474.5 572.374 474.5V475.5ZM561.124 474.5C561.4 474.5 561.624 474.724 561.624 475C561.624 475.276 561.4 475.5 561.124 475.5V474.5ZM548.904 475.073C548.63 475.037 548.437 474.786 548.473 474.512C548.508 474.239 548.759 474.046 549.033 474.081L548.904 475.073ZM536.551 470.744C536.806 470.85 536.927 471.142 536.821 471.397C536.716 471.652 536.423 471.773 536.168 471.667L536.551 470.744ZM524.755 465.066C524.536 464.898 524.495 464.584 524.663 464.365C524.831 464.146 525.145 464.105 525.364 464.273L524.755 465.066ZM516.225 455.134C516.394 455.353 516.353 455.667 516.134 455.835C515.915 456.004 515.601 455.962 515.432 455.744L516.225 455.134ZM508.831 444.331C508.725 444.075 508.846 443.783 509.101 443.677C509.356 443.571 509.649 443.692 509.755 443.947L508.831 444.331ZM506.417 431.465C506.453 431.739 506.26 431.99 505.986 432.026C505.712 432.062 505.461 431.869 505.426 431.595L506.417 431.465ZM504.999 418.432C504.999 418.155 505.223 417.932 505.499 417.932C505.775 417.932 505.999 418.155 505.999 418.432H504.999ZM505.999 405.296C505.999 405.572 505.775 405.796 505.499 405.796C505.223 405.796 504.999 405.572 504.999 405.296H505.999ZM504.999 392.16C504.999 391.883 505.223 391.66 505.499 391.66C505.775 391.66 505.999 391.883 505.999 392.16H504.999ZM505.999 379.024C505.999 379.3 505.775 379.524 505.499 379.524C505.223 379.524 504.999 379.3 504.999 379.024H505.999ZM504.999 365.888C504.999 365.611 505.223 365.388 505.499 365.388C505.775 365.388 505.999 365.611 505.999 365.888H504.999ZM505.999 352.751C505.999 353.028 505.775 353.251 505.499 353.251C505.223 353.251 504.999 353.028 504.999 352.751H505.999ZM505 346.422C504.999 346.145 505.223 345.921 505.499 345.921C505.775 345.92 505.999 346.144 506 346.42L505 346.422ZM505.999 346.26C506.001 346.536 505.778 346.761 505.502 346.763C505.226 346.764 505.001 346.541 504.999 346.265L505.999 346.26ZM504.147 338.034C504.091 337.764 504.266 337.5 504.536 337.444C504.807 337.389 505.071 337.563 505.126 337.834L504.147 338.034ZM498.645 322.442C498.8 322.671 498.74 322.982 498.511 323.136C498.283 323.291 497.972 323.231 497.817 323.002L498.645 322.442ZM486.238 311.509C486.008 311.356 485.946 311.045 486.099 310.816C486.252 310.586 486.562 310.523 486.792 310.676L486.238 311.509ZM471.352 304.311C471.623 304.364 471.8 304.627 471.746 304.898C471.693 305.169 471.43 305.345 471.159 305.292L471.352 304.311ZM455.732 304.5C455.456 304.5 455.232 304.276 455.232 304C455.232 303.724 455.456 303.5 455.732 303.5V304.5ZM441.197 303.5C441.473 303.5 441.697 303.724 441.697 304C441.697 304.276 441.473 304.5 441.197 304.5V303.5ZM426.661 304.5C426.385 304.5 426.161 304.276 426.161 304C426.161 303.724 426.385 303.5 426.661 303.5V304.5ZM412.125 303.5C412.401 303.5 412.625 303.724 412.625 304C412.625 304.276 412.401 304.5 412.125 304.5V303.5ZM397.589 304.5C397.313 304.5 397.089 304.276 397.089 304C397.089 303.724 397.313 303.5 397.589 303.5L397.589 304.5ZM383.054 303.5C383.33 303.5 383.554 303.724 383.554 304C383.554 304.276 383.33 304.5 383.054 304.5V303.5ZM368.518 304.5C368.242 304.5 368.018 304.276 368.018 304C368.018 303.724 368.242 303.5 368.518 303.5V304.5ZM353.982 303.5C354.258 303.5 354.482 303.724 354.482 304C354.482 304.276 354.258 304.5 353.982 304.5L353.982 303.5ZM339.446 304.5C339.17 304.5 338.946 304.276 338.946 304C338.946 303.724 339.17 303.5 339.446 303.5V304.5ZM324.911 303.5C325.187 303.5 325.411 303.724 325.411 304C325.411 304.276 325.187 304.5 324.911 304.5V303.5ZM310.375 304.5C310.099 304.5 309.875 304.276 309.875 304C309.875 303.724 310.099 303.5 310.375 303.5L310.375 304.5ZM295.839 303.5C296.115 303.5 296.339 303.724 296.339 304C296.339 304.276 296.115 304.5 295.839 304.5V303.5ZM281.303 304.5C281.027 304.5 280.803 304.276 280.803 304C280.803 303.724 281.027 303.5 281.303 303.5V304.5ZM266.768 303.5C267.044 303.5 267.268 303.724 267.268 304C267.268 304.276 267.044 304.5 266.768 304.5V303.5ZM505.999 345.5V345.671H504.999V345.5H505.999ZM505.999 346.013V346.183H504.999V346.013H505.999ZM600.5 475.5H594.875V474.5H600.5V475.5ZM583.625 475.5H572.374V474.5H583.625V475.5ZM561.124 475.5H555.499V474.5H561.124V475.5ZM555.499 475.5C553.264 475.5 551.062 475.354 548.904 475.073L549.033 474.081C551.149 474.357 553.307 474.5 555.499 474.5V475.5ZM536.168 471.667C532.062 469.965 528.23 467.736 524.755 465.066L525.364 464.273C528.771 466.891 532.527 469.075 536.551 470.744L536.168 471.667ZM515.432 455.744C512.762 452.269 510.534 448.436 508.831 444.331L509.755 443.947C511.423 447.971 513.608 451.728 516.225 455.134L515.432 455.744ZM505.426 431.595C505.144 429.436 504.999 427.235 504.999 425H505.999C505.999 427.191 506.141 429.349 506.417 431.465L505.426 431.595ZM504.999 425V418.432H505.999V425H504.999ZM504.999 405.296V392.16H505.999V405.296H504.999ZM504.999 379.024V365.888H505.999V379.024H504.999ZM504.999 352.751V346.183H505.999V352.751H504.999ZM505 346.5C505 346.474 505 346.448 505 346.422L506 346.42C506 346.446 506 346.473 506 346.5H505ZM504.999 346.265C504.999 346.239 504.999 346.213 504.999 346.187L505.999 346.18C505.999 346.206 505.999 346.233 505.999 346.26L504.999 346.265ZM504.999 346.187C504.979 343.396 504.686 340.67 504.147 338.034L505.126 337.834C505.679 340.533 505.978 343.323 505.999 346.18L504.999 346.187ZM497.817 323.002C494.745 318.459 490.806 314.548 486.238 311.509L486.792 310.676C491.468 313.788 495.5 317.791 498.645 322.442L497.817 323.002ZM471.159 305.292C468.52 304.772 465.792 304.5 463 304.5V303.5C465.858 303.5 468.65 303.779 471.352 304.311L471.159 305.292ZM463 304.5L455.732 304.5V303.5L463 303.5V304.5ZM441.197 304.5L426.661 304.5V303.5L441.197 303.5V304.5ZM412.125 304.5L397.589 304.5L397.589 303.5L412.125 303.5V304.5ZM383.054 304.5L368.518 304.5V303.5L383.054 303.5V304.5ZM353.982 304.5L339.446 304.5V303.5L353.982 303.5L353.982 304.5ZM324.911 304.5L310.375 304.5L310.375 303.5L324.911 303.5V304.5ZM295.839 304.5L281.303 304.5V303.5L295.839 303.5V304.5ZM266.768 304.5L259.5 304.5V303.5L266.768 303.5V304.5ZM505.499 425H506.499H505.499ZM506.5 346.5C506.5 347.052 506.052 347.5 505.5 347.5C504.948 347.5 504.5 347.052 504.5 346.5H506.5ZM463 304V303V304ZM506.499 345.671C506.499 346.223 506.051 346.671 505.499 346.671C504.947 346.671 504.499 346.223 504.499 345.671H506.499ZM504.499 346.013C504.499 345.46 504.947 345.013 505.499 345.013C506.051 345.013 506.499 345.46 506.499 346.013H504.499ZM594.875 476C594.323 476 593.875 475.552 593.875 475C593.875 474.447 594.323 474 594.875 474V476ZM583.625 474C584.177 474 584.625 474.447 584.625 475C584.625 475.552 584.177 476 583.625 476V474ZM572.374 476C571.822 476 571.374 475.552 571.374 475C571.374 474.447 571.822 474 572.374 474V476ZM561.124 474C561.676 474 562.124 474.447 562.124 475C562.124 475.552 561.676 476 561.124 476V474ZM548.839 475.569C548.291 475.497 547.905 474.995 547.977 474.448C548.048 473.9 548.55 473.514 549.098 473.585L548.839 475.569ZM536.743 470.282C537.253 470.493 537.495 471.079 537.283 471.589C537.072 472.099 536.487 472.341 535.976 472.129L536.743 470.282ZM524.45 465.463C524.012 465.126 523.93 464.498 524.267 464.06C524.603 463.622 525.231 463.54 525.669 463.877L524.45 465.463ZM516.622 454.83C516.958 455.267 516.876 455.895 516.438 456.232C516 456.568 515.373 456.486 515.036 456.048L516.622 454.83ZM508.369 444.522C508.158 444.012 508.4 443.427 508.91 443.215C509.42 443.004 510.005 443.246 510.217 443.756L508.369 444.522ZM506.913 431.401C506.985 431.948 506.599 432.45 506.051 432.522C505.503 432.593 505.001 432.207 504.93 431.659L506.913 431.401ZM504.499 418.432C504.499 417.879 504.947 417.432 505.499 417.432C506.051 417.432 506.499 417.879 506.499 418.432H504.499ZM506.499 405.296C506.499 405.848 506.051 406.296 505.499 406.296C504.947 406.296 504.499 405.848 504.499 405.296H506.499ZM504.499 392.16C504.499 391.607 504.947 391.16 505.499 391.16C506.051 391.16 506.499 391.607 506.499 392.16H504.499ZM506.499 379.024C506.499 379.576 506.051 380.024 505.499 380.024C504.947 380.024 504.499 379.576 504.499 379.024H506.499ZM504.499 365.888C504.499 365.335 504.947 364.888 505.499 364.888C506.051 364.888 506.499 365.335 506.499 365.888H504.499ZM506.499 352.751C506.499 353.304 506.051 353.751 505.499 353.751C504.947 353.751 504.499 353.304 504.499 352.751H506.499ZM504.5 346.422C504.499 345.87 504.946 345.422 505.498 345.421C506.05 345.42 506.499 345.867 506.5 346.419L504.5 346.422ZM506.499 346.257C506.502 346.809 506.057 347.259 505.505 347.262C504.953 347.266 504.502 346.82 504.499 346.268L506.499 346.257ZM503.657 338.135C503.546 337.594 503.895 337.065 504.436 336.954C504.977 336.844 505.505 337.193 505.616 337.734L503.657 338.135ZM499.06 322.162C499.369 322.62 499.249 323.241 498.791 323.551C498.334 323.86 497.712 323.74 497.403 323.282L499.06 322.162ZM485.961 311.925C485.501 311.619 485.377 310.998 485.683 310.539C485.989 310.079 486.609 309.954 487.069 310.26L485.961 311.925ZM471.449 303.82C471.991 303.927 472.344 304.453 472.237 304.994C472.13 305.536 471.605 305.889 471.063 305.782L471.449 303.82ZM455.732 305C455.18 305 454.732 304.552 454.732 304C454.732 303.448 455.18 303 455.732 303L455.732 305ZM441.197 303C441.749 303 442.197 303.448 442.197 304C442.197 304.552 441.749 305 441.197 305V303ZM426.661 305C426.109 305 425.661 304.552 425.661 304C425.661 303.448 426.109 303 426.661 303V305ZM412.125 303C412.678 303 413.125 303.448 413.125 304C413.125 304.552 412.678 305 412.125 305V303ZM397.589 305C397.037 305 396.589 304.552 396.589 304C396.589 303.448 397.037 303 397.589 303L397.589 305ZM383.054 303C383.606 303 384.054 303.448 384.054 304C384.054 304.552 383.606 305 383.054 305L383.054 303ZM368.518 305C367.966 305 367.518 304.552 367.518 304C367.518 303.448 367.966 303 368.518 303V305ZM353.982 303C354.535 303 354.982 303.448 354.982 304C354.982 304.552 354.535 305 353.982 305L353.982 303ZM339.446 305C338.894 305 338.446 304.552 338.446 304C338.446 303.448 338.894 303 339.446 303V305ZM324.911 303C325.463 303 325.911 303.448 325.911 304C325.911 304.553 325.463 305 324.911 305V303ZM310.375 305C309.823 305 309.375 304.553 309.375 304C309.375 303.448 309.823 303 310.375 303L310.375 305ZM295.839 303C296.392 303 296.839 303.448 296.839 304C296.839 304.553 296.392 305 295.839 305V303ZM281.303 305C280.751 305 280.303 304.553 280.303 304C280.303 303.448 280.751 303 281.303 303V305ZM266.768 303C267.32 303 267.768 303.448 267.768 304C267.768 304.553 267.32 305 266.768 305V303ZM506.499 345.5V345.671H504.499V345.5H506.499ZM506.499 346.013V346.183H504.499V346.013H506.499ZM600.5 476H594.875V474H600.5V476ZM583.625 476H572.374V474H583.625V476ZM561.124 476H555.499V474H561.124V476ZM555.499 476C553.242 476 551.019 475.853 548.839 475.569L549.098 473.585C551.192 473.859 553.329 474 555.499 474V476ZM535.976 472.129C531.83 470.41 527.959 468.159 524.45 465.463L525.669 463.877C529.041 466.468 532.76 468.63 536.743 470.282L535.976 472.129ZM515.036 456.048C512.339 452.539 510.089 448.669 508.369 444.522L510.217 443.756C511.868 447.739 514.031 451.457 516.622 454.83L515.036 456.048ZM504.93 431.659C504.646 429.479 504.499 427.256 504.499 425H506.499C506.499 427.17 506.64 429.306 506.913 431.401L504.93 431.659ZM504.499 425V418.432H506.499V425H504.499ZM504.499 405.296V392.16H506.499V405.296H504.499ZM504.499 379.024V365.888H506.499V379.024H504.499ZM504.499 352.751V346.183H506.499V352.751H504.499ZM504.5 346.5C504.5 346.474 504.5 346.448 504.5 346.422L506.5 346.419C506.5 346.446 506.5 346.473 506.5 346.5H504.5ZM504.499 346.268C504.499 346.242 504.499 346.216 504.499 346.191L506.499 346.176C506.499 346.203 506.499 346.23 506.499 346.257L504.499 346.268ZM504.499 346.191C504.479 343.432 504.19 340.739 503.657 338.135L505.616 337.734C506.175 340.464 506.478 343.287 506.499 346.176L504.499 346.191ZM497.403 323.282C494.367 318.793 490.475 314.929 485.961 311.925L487.069 310.26C491.799 313.408 495.878 317.457 499.06 322.162L497.403 323.282ZM471.063 305.782C468.455 305.269 465.76 305 463 305V303C465.89 303 468.715 303.282 471.449 303.82L471.063 305.782ZM463 305L455.732 305L455.732 303L463 303V305ZM441.197 305L426.661 305V303L441.197 303V305ZM412.125 305L397.589 305L397.589 303L412.125 303V305ZM383.054 305L368.518 305V303L383.054 303L383.054 305ZM353.982 305L339.446 305V303L353.982 303L353.982 305ZM324.911 305L310.375 305L310.375 303L324.911 303V305ZM295.839 305L281.303 305V303L295.839 303V305ZM266.768 305L259.5 305V303L266.768 303V305Z" fill="url(#paint3_linear_4672_40707)"></path><path opacity="0.8" d="M505.499 143H505.999H505.499ZM506 221.5C506 221.224 505.776 221 505.5 221C505.224 221 505 221.224 505 221.5H506ZM463 264V264.5V264ZM254.5 263.5C254.224 263.5 254 263.724 254 264C254 264.276 254.224 264.5 254.5 264.5V263.5ZM505.999 222.329C505.999 222.053 505.775 221.829 505.499 221.829C505.223 221.829 504.999 222.053 504.999 222.329H505.999ZM504.999 221.988C504.999 222.264 505.223 222.488 505.499 222.488C505.775 222.488 505.999 222.264 505.999 221.988H504.999ZM588.125 92.5003C587.849 92.5003 587.625 92.7242 587.625 93.0003C587.625 93.2765 587.849 93.5003 588.125 93.5003V92.5003ZM566.374 93.5003C566.65 93.5003 566.874 93.2765 566.874 93.0003C566.874 92.7242 566.65 92.5003 566.374 92.5003V93.5003ZM548.904 92.9271C548.63 92.9629 548.437 93.2138 548.473 93.4876C548.508 93.7614 548.759 93.9545 549.033 93.9187L548.904 92.9271ZM536.551 97.2562C536.806 97.1504 536.927 96.8579 536.821 96.6028C536.716 96.3477 536.423 96.2267 536.168 96.3325L536.551 97.2562ZM524.755 102.934C524.536 103.102 524.495 103.416 524.663 103.635C524.831 103.854 525.145 103.895 525.364 103.727L524.755 102.934ZM516.225 112.866C516.394 112.647 516.353 112.333 516.134 112.165C515.915 111.996 515.601 112.038 515.432 112.256L516.225 112.866ZM508.831 123.669C508.725 123.924 508.846 124.217 509.101 124.323C509.356 124.429 509.649 124.308 509.755 124.052L508.831 123.669ZM506.417 136.535C506.453 136.261 506.26 136.01 505.986 135.974C505.712 135.938 505.461 136.131 505.426 136.405L506.417 136.535ZM504.999 149.568C504.999 149.845 505.223 150.068 505.499 150.068C505.775 150.068 505.999 149.845 505.999 149.568H504.999ZM505.999 162.704C505.999 162.428 505.775 162.204 505.499 162.204C505.223 162.204 504.999 162.428 504.999 162.704H505.999ZM504.999 175.84C504.999 176.117 505.223 176.34 505.499 176.34C505.775 176.34 505.999 176.117 505.999 175.84H504.999ZM505.999 188.976C505.999 188.7 505.775 188.476 505.499 188.476C505.223 188.476 504.999 188.7 504.999 188.976H505.999ZM504.999 202.113C504.999 202.389 505.223 202.613 505.499 202.613C505.775 202.613 505.999 202.389 505.999 202.113H504.999ZM505.999 215.249C505.999 214.972 505.775 214.749 505.499 214.749C505.223 214.749 504.999 214.972 504.999 215.249H505.999ZM505 221.578C504.999 221.855 505.223 222.079 505.499 222.079C505.775 222.08 505.999 221.856 506 221.58L505 221.578ZM505.999 221.74C506.001 221.464 505.778 221.239 505.502 221.238C505.226 221.236 505.001 221.459 504.999 221.735L505.999 221.74ZM504.147 229.966C504.091 230.236 504.266 230.5 504.536 230.556C504.807 230.611 505.071 230.437 505.126 230.166L504.147 229.966ZM498.645 245.558C498.8 245.329 498.74 245.018 498.511 244.864C498.283 244.709 497.972 244.769 497.817 244.998L498.645 245.558ZM486.238 256.491C486.008 256.644 485.946 256.955 486.099 257.184C486.252 257.414 486.562 257.477 486.792 257.324L486.238 256.491ZM471.352 263.689C471.623 263.636 471.8 263.373 471.746 263.102C471.693 262.831 471.43 262.655 471.159 262.708L471.352 263.689ZM455.554 263.5C455.278 263.5 455.054 263.724 455.054 264C455.054 264.276 455.278 264.5 455.554 264.5V263.5ZM440.661 264.5C440.937 264.5 441.161 264.276 441.161 264C441.161 263.724 440.937 263.5 440.661 263.5V264.5ZM425.768 263.5C425.492 263.5 425.268 263.724 425.268 264C425.268 264.276 425.492 264.5 425.768 264.5V263.5ZM410.875 264.5C411.151 264.5 411.375 264.276 411.375 264C411.375 263.724 411.151 263.5 410.875 263.5V264.5ZM395.982 263.5C395.706 263.5 395.482 263.724 395.482 264C395.482 264.276 395.706 264.5 395.982 264.5V263.5ZM381.089 264.5C381.366 264.5 381.589 264.276 381.589 264C381.589 263.724 381.366 263.5 381.089 263.5V264.5ZM366.197 263.5C365.92 263.5 365.697 263.724 365.697 264C365.697 264.276 365.92 264.5 366.197 264.5V263.5ZM351.304 264.5C351.58 264.5 351.804 264.276 351.804 264C351.804 263.724 351.58 263.5 351.304 263.5L351.304 264.5ZM336.411 263.5C336.135 263.5 335.911 263.724 335.911 264C335.911 264.276 336.135 264.5 336.411 264.5V263.5ZM321.518 264.5C321.794 264.5 322.018 264.276 322.018 264C322.018 263.724 321.794 263.5 321.518 263.5V264.5ZM306.625 263.5C306.349 263.5 306.125 263.724 306.125 264C306.125 264.276 306.349 264.5 306.625 264.5V263.5ZM291.732 264.5C292.008 264.5 292.232 264.276 292.232 264C292.232 263.724 292.008 263.5 291.732 263.5V264.5ZM276.839 263.5C276.563 263.5 276.339 263.724 276.339 264C276.339 264.276 276.563 264.5 276.839 264.5V263.5ZM261.946 264.5C262.223 264.5 262.446 264.276 262.446 264C262.446 263.724 262.223 263.5 261.946 263.5V264.5ZM505.999 222.5V222.329H504.999V222.5H505.999ZM505.999 221.988V221.817H504.999V221.988H505.999ZM599 92.5003H588.125V93.5003H599V92.5003ZM566.374 92.5003H555.499V93.5003H566.374V92.5003ZM555.499 92.5003C553.264 92.5003 551.062 92.6456 548.904 92.9271L549.033 93.9187C551.149 93.6427 553.307 93.5003 555.499 93.5003V92.5003ZM536.168 96.3325C532.062 98.0351 528.23 100.264 524.755 102.934L525.364 103.727C528.771 101.109 532.527 98.9249 536.551 97.2562L536.168 96.3325ZM515.432 112.256C512.762 115.731 510.534 119.564 508.831 123.669L509.755 124.052C511.423 120.029 513.608 116.272 516.225 112.866L515.432 112.256ZM505.426 136.405C505.144 138.564 504.999 140.765 504.999 143H505.999C505.999 140.809 506.141 138.651 506.417 136.535L505.426 136.405ZM504.999 143V149.568H505.999V143H504.999ZM504.999 162.704V175.84H505.999V162.704H504.999ZM504.999 188.976V202.113H505.999V188.976H504.999ZM504.999 215.249V221.817H505.999V215.249H504.999ZM505 221.5C505 221.526 505 221.552 505 221.578L506 221.58C506 221.554 506 221.527 506 221.5H505ZM504.999 221.735C504.999 221.761 504.999 221.787 504.999 221.813L505.999 221.82C505.999 221.794 505.999 221.767 505.999 221.74L504.999 221.735ZM504.999 221.813C504.979 224.604 504.686 227.33 504.147 229.966L505.126 230.166C505.679 227.467 505.978 224.677 505.999 221.82L504.999 221.813ZM497.817 244.998C494.745 249.541 490.806 253.452 486.238 256.491L486.792 257.324C491.468 254.212 495.5 250.209 498.645 245.558L497.817 244.998ZM471.159 262.708C468.52 263.228 465.792 263.5 463 263.5V264.5C465.858 264.5 468.65 264.221 471.352 263.689L471.159 262.708ZM463 263.5L455.554 263.5V264.5L463 264.5V263.5ZM440.661 263.5L425.768 263.5V264.5L440.661 264.5V263.5ZM410.875 263.5L395.982 263.5V264.5L410.875 264.5V263.5ZM381.089 263.5L366.197 263.5V264.5L381.089 264.5V263.5ZM351.304 263.5L336.411 263.5V264.5L351.304 264.5L351.304 263.5ZM321.518 263.5L306.625 263.5V264.5L321.518 264.5V263.5ZM291.732 263.5L276.839 263.5V264.5L291.732 264.5V263.5ZM261.946 263.5L254.5 263.5V264.5L261.946 264.5V263.5ZM505.499 143H506.499H505.499ZM506.5 221.5C506.5 220.948 506.052 220.5 505.5 220.5C504.948 220.5 504.5 220.948 504.5 221.5H506.5ZM463 264V265V264ZM254.5 263C253.948 263 253.5 263.448 253.5 264C253.5 264.552 253.948 265 254.5 265V263ZM506.499 222.329C506.499 221.777 506.051 221.329 505.499 221.329C504.947 221.329 504.499 221.777 504.499 222.329H506.499ZM504.499 221.988C504.499 222.54 504.947 222.988 505.499 222.988C506.051 222.988 506.499 222.54 506.499 221.988H504.499ZM588.125 92.0003C587.572 92.0003 587.125 92.448 587.125 93.0003C587.125 93.5526 587.572 94.0003 588.125 94.0003V92.0003ZM566.374 94.0003C566.926 94.0003 567.374 93.5526 567.374 93.0003C567.374 92.448 566.926 92.0003 566.374 92.0003V94.0003ZM548.839 92.4313C548.291 92.5028 547.905 93.0046 547.977 93.5523C548.048 94.0999 548.55 94.486 549.098 94.4145L548.839 92.4313ZM536.743 97.7181C537.253 97.5065 537.495 96.9215 537.283 96.4113C537.072 95.9011 536.487 95.6591 535.976 95.8706L536.743 97.7181ZM524.45 102.537C524.012 102.874 523.93 103.502 524.267 103.94C524.603 104.378 525.231 104.46 525.669 104.123L524.45 102.537ZM516.622 113.17C516.958 112.733 516.876 112.105 516.438 111.768C516 111.432 515.373 111.514 515.036 111.952L516.622 113.17ZM508.369 123.478C508.158 123.988 508.4 124.573 508.91 124.785C509.42 124.996 510.005 124.754 510.217 124.244L508.369 123.478ZM506.913 136.599C506.985 136.052 506.599 135.55 506.051 135.478C505.503 135.407 505.001 135.793 504.93 136.341L506.913 136.599ZM504.499 149.568C504.499 150.121 504.947 150.568 505.499 150.568C506.051 150.568 506.499 150.121 506.499 149.568H504.499ZM506.499 162.704C506.499 162.152 506.051 161.704 505.499 161.704C504.947 161.704 504.499 162.152 504.499 162.704H506.499ZM504.499 175.84C504.499 176.393 504.947 176.84 505.499 176.84C506.051 176.84 506.499 176.393 506.499 175.84H504.499ZM506.499 188.976C506.499 188.424 506.051 187.976 505.499 187.976C504.947 187.976 504.499 188.424 504.499 188.976H506.499ZM504.499 202.113C504.499 202.665 504.947 203.113 505.499 203.113C506.051 203.113 506.499 202.665 506.499 202.113H504.499ZM506.499 215.249C506.499 214.696 506.051 214.249 505.499 214.249C504.947 214.249 504.499 214.696 504.499 215.249H506.499ZM504.5 221.578C504.499 222.13 504.946 222.578 505.498 222.579C506.05 222.58 506.499 222.133 506.5 221.581L504.5 221.578ZM506.499 221.743C506.502 221.191 506.057 220.741 505.505 220.738C504.953 220.734 504.502 221.18 504.499 221.732L506.499 221.743ZM503.657 229.865C503.546 230.406 503.895 230.935 504.436 231.046C504.977 231.156 505.505 230.807 505.616 230.266L503.657 229.865ZM499.06 245.838C499.369 245.38 499.249 244.759 498.791 244.449C498.334 244.14 497.712 244.26 497.403 244.718L499.06 245.838ZM485.961 256.075C485.501 256.381 485.377 257.002 485.683 257.461C485.989 257.921 486.609 258.046 487.069 257.74L485.961 256.075ZM471.449 264.18C471.991 264.073 472.344 263.547 472.237 263.006C472.13 262.464 471.605 262.111 471.063 262.218L471.449 264.18ZM455.554 263C455.002 263 454.554 263.448 454.554 264C454.554 264.552 455.002 265 455.554 265V263ZM440.661 265C441.213 265 441.661 264.552 441.661 264C441.661 263.448 441.213 263 440.661 263V265ZM425.768 263C425.216 263 424.768 263.448 424.768 264C424.768 264.552 425.216 265 425.768 265V263ZM410.875 265C411.428 265 411.875 264.552 411.875 264C411.875 263.448 411.428 263 410.875 263V265ZM395.982 263C395.43 263 394.982 263.448 394.982 264C394.982 264.552 395.43 265 395.982 265V263ZM381.089 265C381.642 265 382.089 264.552 382.089 264C382.089 263.448 381.642 263 381.089 263V265ZM366.197 263C365.644 263 365.197 263.448 365.197 264C365.197 264.552 365.644 265 366.197 265V263ZM351.304 265C351.856 265 352.304 264.552 352.304 264C352.304 263.448 351.856 263 351.304 263L351.304 265ZM336.411 263C335.858 263 335.411 263.448 335.411 264C335.411 264.552 335.858 265 336.411 265V263ZM321.518 265C322.07 265 322.518 264.552 322.518 264C322.518 263.448 322.07 263 321.518 263V265ZM306.625 263C306.073 263 305.625 263.448 305.625 264C305.625 264.552 306.073 265 306.625 265V263ZM291.732 265C292.284 265 292.732 264.552 292.732 264C292.732 263.448 292.284 263 291.732 263V265ZM276.839 263C276.287 263 275.839 263.448 275.839 264C275.839 264.552 276.287 265 276.839 265V263ZM261.946 265C262.499 265 262.946 264.552 262.946 264C262.946 263.448 262.499 263 261.946 263V265ZM506.499 222.5V222.329H504.499V222.5H506.499ZM506.499 221.988V221.817H504.499V221.988H506.499ZM599 92.0003H588.125V94.0003H599V92.0003ZM566.374 92.0003H555.499V94.0003H566.374V92.0003ZM555.499 92.0003C553.242 92.0003 551.019 92.147 548.839 92.4313L549.098 94.4145C551.192 94.1413 553.329 94.0003 555.499 94.0003V92.0003ZM535.976 95.8706C531.83 97.5902 527.959 99.8409 524.45 102.537L525.669 104.123C529.041 101.532 532.76 99.3698 536.743 97.7181L535.976 95.8706ZM515.036 111.952C512.339 115.461 510.089 119.331 508.369 123.478L510.217 124.244C511.868 120.261 514.031 116.543 516.622 113.17L515.036 111.952ZM504.93 136.341C504.646 138.521 504.499 140.744 504.499 143H506.499C506.499 140.83 506.64 138.694 506.913 136.599L504.93 136.341ZM504.499 143V149.568H506.499V143H504.499ZM504.499 162.704V175.84H506.499V162.704H504.499ZM504.499 188.976V202.113H506.499V188.976H504.499ZM504.499 215.249V221.817H506.499V215.249H504.499ZM504.5 221.5C504.5 221.526 504.5 221.552 504.5 221.578L506.5 221.581C506.5 221.554 506.5 221.527 506.5 221.5H504.5ZM504.499 221.732C504.499 221.758 504.499 221.784 504.499 221.809L506.499 221.824C506.499 221.797 506.499 221.77 506.499 221.743L504.499 221.732ZM504.499 221.809C504.479 224.568 504.19 227.261 503.657 229.865L505.616 230.266C506.175 227.536 506.478 224.713 506.499 221.824L504.499 221.809ZM497.403 244.718C494.367 249.207 490.475 253.071 485.961 256.075L487.069 257.74C491.799 254.592 495.878 250.543 499.06 245.838L497.403 244.718ZM471.063 262.218C468.455 262.731 465.76 263 463 263V265C465.89 265 468.715 264.718 471.449 264.18L471.063 262.218ZM463 263L455.554 263V265L463 265V263ZM440.661 263L425.768 263V265L440.661 265V263ZM410.875 263L395.982 263V265L410.875 265V263ZM381.089 263L366.197 263V265L381.089 265V263ZM351.304 263L336.411 263V265L351.304 265L351.304 263ZM321.518 263L306.625 263V265L321.518 265V263ZM291.732 263L276.839 263V265L291.732 265V263ZM261.946 263L254.5 263V265L261.946 265V263Z" fill="url(#paint4_linear_4672_40707)"></path><path opacity="0.8" d="M337 254.003H188.5L156 253.999C128.386 253.999 106 228.614 106 200.999L106 67C106 32.5 61.6144 0.99999 34.0001 1L8 1" stroke="url(#paint5_linear_4672_40707)" stroke-linecap="round" stroke-dasharray="15 15"></path><path opacity="0.8" d="M333 314.001H188.5L156 314.005C128.386 314.005 106 339.39 106 367.005L106 501.004C106 535.504 61.6144 567.004 34.0001 567.004L8.5 567.004" stroke="url(#paint6_linear_4672_40707)" stroke-linecap="round" stroke-dasharray="15 15"></path><defs><linearGradient id="paint0_linear_4672_40707" x1="537.5" y1="284" x2="430.5" y2="284" gradientUnits="userSpaceOnUse"><stop stop-color="#4F77DB"></stop><stop offset="1" stop-color="#4F77DB" stop-opacity="0"></stop></linearGradient><linearGradient id="paint1_linear_4672_40707" x1="67.5005" y1="249" x2="170" y2="274" gradientUnits="userSpaceOnUse"><stop stop-color="#4F77DB"></stop><stop offset="1" stop-color="#4F77DB" stop-opacity="0"></stop></linearGradient><linearGradient id="paint2_linear_4672_40707" x1="48.0005" y1="347" x2="168" y2="294" gradientUnits="userSpaceOnUse"><stop stop-color="#4F77DB"></stop><stop offset="1" stop-color="#4F77DB" stop-opacity="0"></stop></linearGradient><linearGradient id="paint3_linear_4672_40707" x1="507.5" y1="426.5" x2="417" y2="301" gradientUnits="userSpaceOnUse"><stop stop-color="#4F77DB"></stop><stop offset="1" stop-color="#4F77DB" stop-opacity="0"></stop></linearGradient><linearGradient id="paint4_linear_4672_40707" x1="524.5" y1="207.5" x2="442" y2="264" gradientUnits="userSpaceOnUse"><stop stop-color="#4F77DB"></stop><stop offset="1" stop-color="#4F77DB" stop-opacity="0"></stop></linearGradient><linearGradient id="paint5_linear_4672_40707" x1="108.5" y1="170" x2="176" y2="254" gradientUnits="userSpaceOnUse"><stop stop-color="#4F77DB"></stop><stop offset="1" stop-color="#4F77DB" stop-opacity="0"></stop></linearGradient><linearGradient id="paint6_linear_4672_40707" x1="110.5" y1="380.5" x2="170.75" y2="314.001" gradientUnits="userSpaceOnUse"><stop stop-color="#4F77DB"></stop><stop offset="1" stop-color="#4F77DB" stop-opacity="0"></stop></linearGradient></defs></svg> 