<?xml version="1.0" encoding="UTF-8"?> <svg xmlns="http://www.w3.org/2000/svg" viewBox="0 0 25 26" fill="none"><rect y="0.233398" width="25" height="25" rx="5" fill="white"></rect><g clip-path="url(#clip0_4508_37925)"><path d="M8.1125 5.4209C8.1125 6.28402 7.41875 6.9834 6.5625 6.9834C5.70625 6.9834 5.0125 6.28402 5.0125 5.4209C5.0125 4.5584 5.70625 3.8584 6.5625 3.8584C7.41875 3.8584 8.1125 4.5584 8.1125 5.4209ZM8.125 8.2334H5V18.2334H8.125V8.2334ZM13.1138 8.2334H10.0087V18.2334H13.1144V12.984C13.1144 10.0653 16.8825 9.82652 16.8825 12.984V18.2334H20V11.9015C20 6.97652 14.4238 7.1559 13.1138 9.58027V8.2334Z" fill="#203059"></path></g><defs><clipPath id="clip0_4508_37925"><rect width="15" height="15" fill="white" transform="translate(5 3.2334)"></rect></clipPath></defs></svg> 