<?xml version="1.0" encoding="UTF-8"?> <svg xmlns="http://www.w3.org/2000/svg" width="20" height="20" viewBox="0 0 20 20" fill="none"><g clip-path="url(#clip0_882_6759)"><path d="M12.9166 6.66667C12.9166 6.08981 12.7456 5.5259 12.4251 5.04625C12.1046 4.56661 11.6491 4.19277 11.1161 3.97202C10.5832 3.75126 9.99675 3.6935 9.43097 3.80604C8.86519 3.91858 8.34549 4.19637 7.93759 4.60427C7.52968 5.01218 7.2519 5.53188 7.13936 6.09765C7.02682 6.66343 7.08458 7.24988 7.30533 7.78283C7.52609 8.31578 7.89992 8.7713 8.37957 9.09179C8.85921 9.41227 9.42312 9.58333 9.99998 9.58333C10.7735 9.58333 11.5154 9.27604 12.0624 8.72906C12.6094 8.18208 12.9166 7.44022 12.9166 6.66667ZM7.91665 6.66667C7.91665 6.25462 8.03883 5.85183 8.26775 5.50923C8.49667 5.16663 8.82204 4.8996 9.20272 4.74192C9.5834 4.58424 10.0023 4.54298 10.4064 4.62336C10.8105 4.70375 11.1818 4.90217 11.4731 5.19353C11.7645 5.48489 11.9629 5.8561 12.0433 6.26023C12.1237 6.66436 12.0824 7.08325 11.9247 7.46393C11.767 7.8446 11.5 8.16998 11.1574 8.3989C10.8148 8.62782 10.412 8.75 9.99998 8.75C9.44745 8.75 8.91754 8.53051 8.52684 8.13981C8.13614 7.74911 7.91665 7.2192 7.91665 6.66667Z" fill="#FD4404"></path><path d="M9.99999 20C10.0694 19.9999 10.1377 19.9825 10.1987 19.9493C10.2597 19.9161 10.3114 19.8682 10.3492 19.81L15.895 11.2783C16.8861 9.76719 17.2847 7.94351 17.0145 6.15668C16.7444 4.36985 15.8244 2.74555 14.4308 1.59499C13.1874 0.557626 11.6193 -0.0105591 9.99999 -0.0105591C8.38064 -0.0105591 6.81262 0.557626 5.56916 1.59499C4.17562 2.74555 3.25563 4.36985 2.98545 6.15668C2.71527 7.94351 3.11391 9.76719 4.10499 11.2783L9.65083 19.81C9.68859 19.8682 9.74031 19.9161 9.80129 19.9493C9.86227 19.9825 9.93057 19.9999 9.99999 20ZM6.09749 2.23999C7.19195 1.32474 8.57328 0.823285 9.99999 0.823285C11.4267 0.823285 12.808 1.32474 13.9025 2.23999C15.138 3.25974 15.9535 4.69985 16.1923 6.28397C16.4312 7.86808 16.0766 9.4846 15.1967 10.8233L9.99999 18.8192L4.80333 10.8242C3.92314 9.48536 3.56844 7.86866 3.80729 6.28435C4.04615 4.70005 4.86173 3.25977 6.09749 2.23999Z" fill="#FD4404"></path></g><defs><clipPath id="clip0_882_6759"><rect width="20" height="20" fill="white"></rect></clipPath></defs></svg> 