<?xml version="1.0" encoding="UTF-8"?> <svg xmlns="http://www.w3.org/2000/svg" width="20" height="20" viewBox="0 0 20 20" fill="none"><path d="M2.08332 16.0046C2.07724 16.5637 2.29316 17.1024 2.68372 17.5025C3.07428 17.9026 3.60758 18.1314 4.16665 18.1388H15.8333C16.3924 18.1314 16.9257 17.9026 17.3162 17.5025C17.7068 17.1024 17.9227 16.5637 17.9166 16.0047V9.11583C17.9186 8.79347 17.8477 8.47483 17.7092 8.18375C17.5706 7.89267 17.3681 7.63668 17.1167 7.43493L11.2833 2.75923C10.9203 2.46505 10.4672 2.30452 9.99995 2.30452C9.53269 2.30452 9.07961 2.46505 8.71658 2.75923L2.88325 7.43493C2.63183 7.63669 2.42929 7.89268 2.29076 8.18376C2.15224 8.47484 2.08132 8.79348 2.08332 9.11583V16.0046ZM2.91665 9.1158C2.91633 8.91859 2.9599 8.72378 3.04423 8.54551C3.12855 8.36724 3.25149 8.20997 3.40415 8.08512L9.23748 3.40942C9.45318 3.23463 9.72238 3.13924 10 3.13924C10.2776 3.13924 10.5469 3.23463 10.7625 3.40942L16.5959 8.08512C16.7485 8.20998 16.8715 8.36726 16.9558 8.54554C17.0401 8.72381 17.0837 8.91862 17.0833 9.11583V16.0047C17.0896 16.3428 16.9615 16.6696 16.7272 16.9134C16.4928 17.1573 16.1714 17.2983 15.8333 17.3055H4.16665C3.82855 17.2983 3.50712 17.1573 3.2728 16.9134C3.03849 16.6696 2.91041 16.3428 2.91665 16.0047V9.1158ZM4.75177 10.3345C4.66307 10.2686 4.60414 10.1703 4.58796 10.061C4.57995 10.0069 4.58268 9.95174 4.59598 9.89868C4.60929 9.84563 4.63291 9.79571 4.66551 9.75179C4.6981 9.70787 4.73903 9.67079 4.78595 9.64269C4.83288 9.61458 4.88488 9.59599 4.93898 9.58798C5.04826 9.5718 5.15948 9.59969 5.24819 9.66552L9.42137 12.7612C9.60153 12.8683 9.80792 12.9231 10.0175 12.9196C10.227 12.916 10.4314 12.8543 10.6079 12.7413L14.7518 9.66552C14.7957 9.63293 14.8456 9.6093 14.8987 9.596C14.9517 9.58269 15.0069 9.57997 15.061 9.58798C15.1151 9.59599 15.1671 9.61458 15.214 9.64269C15.2609 9.67079 15.3019 9.70787 15.3345 9.75179C15.3671 9.79571 15.3907 9.84563 15.404 9.89868C15.4173 9.95174 15.42 10.0069 15.412 10.061C15.404 10.1151 15.3854 10.1671 15.3573 10.214C15.3292 10.261 15.2921 10.3019 15.2482 10.3345L11.075 13.4302C10.7501 13.6352 10.3743 13.7449 9.99018 13.7467C9.62395 13.7464 9.26512 13.6437 8.95422 13.4501L4.75177 10.3345Z" fill="#FD4404"></path></svg> 