<?xml version="1.0" encoding="UTF-8"?> <svg xmlns="http://www.w3.org/2000/svg" viewBox="0 0 25 26" fill="none"><rect y="0.233398" width="25" height="25" rx="5" fill="white"></rect><path fill-rule="evenodd" clip-rule="evenodd" d="M6.77875 9.18152C6.7975 8.99572 6.72687 8.81244 6.58937 8.68774L5.18938 6.98722V6.7334H9.53813L12.8994 14.1621L15.8544 6.7334H20V6.98722L18.8025 8.1442C18.6994 8.22356 18.6481 8.35393 18.6694 8.48304V16.9844C18.6481 17.1129 18.6994 17.2432 18.8025 17.3226L19.9719 18.4796V18.7334H14.0894V18.4796L15.3013 17.2943C15.42 17.1746 15.42 17.1393 15.42 16.956V10.0847L12.0519 18.7057H11.5969L7.675 10.0847V15.8627C7.6425 16.1052 7.7225 16.3502 7.89187 16.5252L9.4675 18.4512V18.7057H5V18.4512L6.57562 16.5252C6.74437 16.3495 6.81937 16.1033 6.77875 15.8627V9.18152Z" fill="#203059"></path></svg> 