<?xml version="1.0" encoding="UTF-8"?> <svg xmlns="http://www.w3.org/2000/svg" width="20" height="20" viewBox="0 0 20 20" fill="none"><path d="M13.5405 18.7522C14.3264 18.7518 15.1108 18.6854 15.8855 18.5536C16.3413 18.4766 16.7676 18.2772 17.1189 17.9768C17.4702 17.6764 17.7333 17.2862 17.8801 16.8479L18.6744 14.4813C18.7364 14.2977 18.7614 14.1036 18.7481 13.9102C18.7349 13.7168 18.6835 13.528 18.5971 13.3545C18.5106 13.1811 18.3907 13.0264 18.2443 12.8994C18.0978 12.7724 17.9278 12.6756 17.7438 12.6145L14.8764 11.6656C14.6192 11.5789 14.343 11.5654 14.0785 11.6266C13.8141 11.6878 13.5719 11.8213 13.379 12.0122L11.4462 13.779C11.0825 13.8697 9.47641 14.1338 7.67141 12.3288C5.8631 10.5202 6.13168 8.91208 6.22117 8.55442L7.97491 6.63465C8.16987 6.44146 8.30688 6.19758 8.37045 5.93058C8.43402 5.66359 8.42161 5.38413 8.33462 5.12382L7.38572 2.2564C7.32464 2.07245 7.22781 1.90239 7.10081 1.75597C6.97381 1.60955 6.81913 1.48966 6.64566 1.4032C6.47219 1.31673 6.28335 1.26539 6.08998 1.25211C5.89661 1.23884 5.70252 1.2639 5.51886 1.32585L3.15233 2.12012C2.71407 2.26708 2.32391 2.53022 2.02344 2.88149C1.72297 3.23275 1.52347 3.65898 1.44619 4.11472C1.06756 6.09387 1.17769 8.13553 1.76702 10.0625C2.35634 11.9894 3.40705 13.7434 4.82795 15.1722C5.96454 16.3245 7.32205 17.2356 8.81914 17.8507C10.3162 18.4659 11.9221 18.7725 13.5405 18.7522ZM2.26772 4.25469C2.31978 3.94751 2.45423 3.66023 2.65674 3.42346C2.85925 3.1867 3.12223 3.00934 3.41762 2.91029L5.78418 2.11602C5.86423 2.08869 5.94891 2.07757 6.0333 2.08329C6.11768 2.08901 6.20009 2.11147 6.27571 2.14935C6.3507 2.18665 6.41752 2.23848 6.47228 2.30184C6.52705 2.3652 6.56867 2.43882 6.59472 2.51841L7.54361 5.38585C7.58152 5.50273 7.58559 5.62795 7.55535 5.74704C7.52511 5.86613 7.46179 5.97424 7.37271 6.05887L5.54085 8.06369C5.50295 8.10515 5.47388 8.15388 5.4554 8.20692C5.42243 8.3001 4.68268 10.5181 7.08218 12.918C9.48208 15.3183 11.6997 14.5794 11.7933 14.5452C11.8463 14.5267 11.8951 14.4977 11.9365 14.4598L13.9547 12.6145C14.0391 12.5294 14.1455 12.4696 14.2621 12.4417C14.3786 12.4138 14.5006 12.419 14.6143 12.4566L17.4818 13.4055C17.5613 13.4315 17.635 13.4732 17.6983 13.5279C17.7617 13.5827 17.8135 13.6495 17.8508 13.7245C17.8886 13.8001 17.9111 13.8825 17.9168 13.9669C17.9225 14.0513 17.9114 14.136 17.8841 14.216L17.0899 16.5826C16.991 16.878 16.8137 17.141 16.5769 17.3435C16.3401 17.546 16.0527 17.6803 15.7455 17.7321C13.8977 18.0942 11.9892 17.9963 10.1881 17.4472C8.38698 16.898 6.74855 15.9144 5.41708 14.583C4.08562 13.2516 3.10197 11.6132 2.55278 9.81208C2.00358 8.011 1.90569 6.10251 2.26772 4.25469Z" fill="#FD4404"></path></svg> 