<?xml version="1.0" encoding="UTF-8"?> <svg xmlns="http://www.w3.org/2000/svg" viewBox="0 0 25 26" fill="none"><rect y="0.233398" width="25" height="25" rx="5" fill="white"></rect><path d="M15.6117 17.682L15.6148 17.672C17.3438 16.5114 18.5 14.3941 18.5 11.8571C18.5 6.96954 15.5761 5.2334 12.5195 5.2334C9.63475 5.2334 6.5 7.68665 6.5 11.9512C6.5 16.8389 9.42331 18.6314 12.4813 18.6314C12.9619 18.6314 13.4291 18.569 13.8774 18.4533C13.8774 18.4533 13.884 18.4557 13.8884 18.4564C15.0932 20.7865 16.8874 20.2227 17.3503 20.0389C17.3503 20.0389 17.2882 19.6288 17.1796 18.8657C16.314 18.8415 15.9283 18.3712 15.6117 17.682ZM13.298 16.8884C13.0241 16.9613 12.7471 16.9897 12.4795 16.9897C11.0565 16.9897 9.35227 16.3245 9.35227 12.1725C9.35227 8.02155 11.137 6.87535 12.5601 6.87535C13.9828 6.87535 15.6375 7.8632 15.6375 12.0146C15.6375 13.8965 15.2839 15.0932 14.7637 15.8407C14.756 15.8411 14.7494 15.8391 14.7494 15.8391C13.5662 14.1864 12.0307 14.5824 11.6625 14.7619C11.6625 14.7619 11.7095 15.141 11.8069 15.83C12.6191 15.8297 13.0213 16.2857 13.3022 16.8745C13.3004 16.879 13.299 16.8836 13.298 16.8884Z" fill="#203059"></path></svg> 