<?xml version="1.0" encoding="UTF-8"?> <svg xmlns="http://www.w3.org/2000/svg" viewBox="0 0 25 26" fill="none"><rect y="0.233398" width="25" height="25" rx="5" fill="white"></rect><path d="M20 12.5953C20 11.6834 19.255 10.9421 18.3394 10.9421C17.8925 10.9421 17.4875 11.1209 17.1894 11.4084C16.0581 10.664 14.5275 10.1903 12.8325 10.1296L13.7594 7.21152L16.2694 7.79965L16.2656 7.8359C16.2656 8.58152 16.875 9.18777 17.6244 9.18777C18.3731 9.18777 18.9819 8.58152 18.9819 7.8359C18.9819 7.09027 18.3725 6.4834 17.6244 6.4834C17.0494 6.4834 16.5594 6.84215 16.3612 7.34527L13.6556 6.7109C13.5375 6.68215 13.4175 6.75027 13.3806 6.86652L12.3469 10.1209C10.5731 10.1421 8.96625 10.6196 7.78437 11.3865C7.48812 11.1128 7.095 10.9415 6.66 10.9415C5.74437 10.9415 5 11.6834 5 12.5953C5 13.2015 5.33313 13.7271 5.82313 14.0146C5.79063 14.1909 5.76937 14.369 5.76937 14.5503C5.76937 16.9946 8.77438 18.9834 12.4687 18.9834C16.1631 18.9834 19.1688 16.9946 19.1688 14.5503C19.1688 14.379 19.1506 14.2103 19.1219 14.044C19.6419 13.7646 20 13.224 20 12.5953ZM9.235 13.7303C9.235 13.1878 9.67875 12.7459 10.2237 12.7459C10.7687 12.7459 11.2119 13.1878 11.2119 13.7303C11.2119 14.2728 10.7687 14.714 10.2237 14.714C9.67875 14.714 9.235 14.2728 9.235 13.7303ZM14.8981 16.6484C14.4 17.144 13.6181 17.3853 12.5081 17.3853L12.5 17.3834L12.4919 17.3853C11.3813 17.3853 10.5994 17.144 10.1019 16.6484C10.0113 16.5584 10.0113 16.4115 10.1019 16.3215C10.1925 16.2309 10.34 16.2309 10.4306 16.3215C10.8369 16.7259 11.5113 16.9221 12.4919 16.9221L12.5 16.924L12.5081 16.9221C13.4887 16.9221 14.1631 16.7253 14.5694 16.3209C14.66 16.2303 14.8075 16.2309 14.8981 16.3209C14.9887 16.4115 14.9887 16.5578 14.8981 16.6484ZM14.78 14.714C14.235 14.714 13.7919 14.2728 13.7919 13.7303C13.7919 13.1878 14.235 12.7459 14.78 12.7459C15.325 12.7459 15.7681 13.1878 15.7681 13.7303C15.7681 14.2728 15.325 14.714 14.78 14.714Z" fill="#203059"></path></svg> 