<?xml version="1.0" encoding="UTF-8"?> <svg xmlns="http://www.w3.org/2000/svg" width="24" height="25" viewBox="0 0 24 25" fill="none"><g clip-path="url(#clip0_910_9097)"><path d="M12 7.5C11.8674 7.5 11.7402 7.55268 11.6464 7.64645C11.5527 7.74021 11.5 7.86739 11.5 8V14C11.5 14.1326 11.5527 14.2598 11.6464 14.3536C11.7402 14.4473 11.8674 14.5 12 14.5C12.1326 14.5 12.2598 14.4473 12.3536 14.3536C12.4473 14.2598 12.5 14.1326 12.5 14V8C12.5 7.86739 12.4473 7.74021 12.3536 7.64645C12.2598 7.55268 12.1326 7.5 12 7.5Z" fill="#FD4404"></path><path d="M12 17C12.2761 17 12.5 16.7761 12.5 16.5C12.5 16.2239 12.2761 16 12 16C11.7239 16 11.5 16.2239 11.5 16.5C11.5 16.7761 11.7239 17 12 17Z" fill="#FD4404"></path><path d="M13.142 0.97315C12.8343 0.679479 12.4253 0.515625 12 0.515625C11.5746 0.515625 11.1657 0.679479 10.858 0.97315L0.472984 11.3581C0.323011 11.5081 0.204045 11.6862 0.12288 11.8821C0.0417143 12.078 -6.10352e-05 12.2881 -6.10352e-05 12.5001C-6.10352e-05 12.7122 0.0417143 12.9223 0.12288 13.1182C0.204045 13.3141 0.323011 13.4922 0.472984 13.6421L10.858 24.0272C11.008 24.1771 11.186 24.2961 11.3819 24.3773C11.5779 24.4584 11.7879 24.5002 12 24.5002C12.2121 24.5002 12.4221 24.4584 12.618 24.3773C12.814 24.2961 12.992 24.1771 13.142 24.0272L23.527 13.6421C23.677 13.4922 23.7959 13.3141 23.8771 13.1182C23.9583 12.9223 24 12.7122 24 12.5001C24 12.2881 23.9583 12.078 23.8771 11.8821C23.7959 11.6862 23.677 11.5081 23.527 11.3581L13.142 0.97315ZM22.82 12.9352L12.435 23.3202C12.3177 23.4318 12.1619 23.4941 12 23.4941C11.838 23.4941 11.6823 23.4318 11.565 23.3202L1.17998 12.9352C1.06481 12.8197 1.00014 12.6632 1.00014 12.5001C1.00014 12.3371 1.06481 12.1806 1.17998 12.0651L11.565 1.68015C11.6805 1.56498 11.8369 1.5003 12 1.5003C12.1631 1.5003 12.3195 1.56498 12.435 1.68015L22.82 12.0651C22.9352 12.1806 22.9998 12.3371 22.9998 12.5001C22.9998 12.6632 22.9352 12.8197 22.82 12.9352Z" fill="#FD4404"></path></g><defs><clipPath id="clip0_910_9097"><rect width="24" height="24" fill="white" transform="translate(0 0.5)"></rect></clipPath></defs></svg> 