<?xml version="1.0" encoding="UTF-8"?> <svg xmlns="http://www.w3.org/2000/svg" width="24" height="24" viewBox="0 0 24 24" fill="none"><path d="M17.1827 15C16.7871 15 16.4005 15.1173 16.0716 15.3371C15.7427 15.5568 15.4863 15.8692 15.3349 16.2346C15.1836 16.6001 15.144 17.0022 15.2211 17.3902C15.2983 17.7781 15.4888 18.1345 15.7685 18.4142C16.0482 18.6939 16.4046 18.8844 16.7925 18.9616C17.1805 19.0387 17.5826 18.9991 17.9481 18.8478C18.3135 18.6964 18.6259 18.44 18.8456 18.1111C19.0654 17.7822 19.1827 17.3956 19.1827 17C19.182 16.4698 18.9711 15.9615 18.5961 15.5865C18.2212 15.2116 17.7129 15.0007 17.1827 15ZM17.1827 18C16.9849 18 16.7916 17.9414 16.6271 17.8315C16.4627 17.7216 16.3345 17.5654 16.2588 17.3827C16.1831 17.2 16.1633 16.9989 16.2019 16.8049C16.2405 16.6109 16.3357 16.4327 16.4756 16.2929C16.6154 16.153 16.7936 16.0578 16.9876 16.0192C17.1816 15.9806 17.3827 16.0004 17.5654 16.0761C17.7481 16.1518 17.9043 16.28 18.0142 16.4444C18.124 16.6089 18.1827 16.8022 18.1827 17C18.1825 17.2652 18.0771 17.5194 17.8896 17.7069C17.7021 17.8944 17.4479 17.9998 17.1827 18ZM22.4659 15.8935C22.5003 15.7667 22.5091 15.6343 22.4918 15.5041C22.4746 15.3738 22.4316 15.2483 22.3653 15.1348L21.3897 13.4434C21.2567 13.2141 21.0381 13.047 20.7821 12.9785C20.526 12.91 20.2532 12.9459 20.0235 13.0781L19.1827 13.5244V12.5C19.1825 12.2348 19.0771 11.9806 18.8896 11.7931C18.7021 11.6056 18.4479 11.5002 18.1827 11.5H16.1827C15.9175 11.5002 15.6633 11.6056 15.4758 11.7931C15.2883 11.9806 15.1829 12.2348 15.1827 12.5L15.1729 13.5576L14.3419 13.0772C14.112 12.9454 13.8394 12.9101 13.5835 12.979C13.3277 13.0478 13.1095 13.2151 12.9767 13.4443L11.9991 15.1357C11.8674 15.3656 11.8321 15.6383 11.901 15.8941C11.9698 16.15 12.1371 16.3682 12.3663 16.501L13.1847 17.0264L12.3654 17.499C12.1362 17.6322 11.9692 17.8507 11.9007 18.1067C11.8323 18.3628 11.868 18.6355 12.0001 18.8652L12.9757 20.5547C13.0414 20.6686 13.1288 20.7684 13.233 20.8485C13.3373 20.9286 13.4563 20.9874 13.5832 21.0215C13.7102 21.0556 13.8426 21.0643 13.973 21.0473C14.1033 21.0302 14.229 20.9876 14.3429 20.9219L15.1827 20.4492V21.5C15.1829 21.7652 15.2883 22.0194 15.4758 22.2069C15.6633 22.3944 15.9176 22.4998 16.1827 22.5H18.1827C18.4479 22.4998 18.7022 22.3944 18.8897 22.2069C19.0772 22.0194 19.1826 21.7652 19.1827 21.5L19.1906 20.4561L19.2033 20.4482L20.0245 20.9228C20.2546 21.0538 20.527 21.0887 20.7826 21.0199C21.0383 20.9512 21.2564 20.7843 21.3898 20.5557L22.3654 18.8662C22.4982 18.6366 22.5344 18.3636 22.4661 18.1072C22.3978 17.8508 22.2305 17.6321 22.001 17.499L21.1895 16.9687L22.001 16.501C22.1148 16.4355 22.2145 16.3481 22.2942 16.2438C22.374 16.1395 22.4324 16.0205 22.4659 15.8935ZM20.6895 16.1035C20.5326 16.1948 20.4025 16.3256 20.312 16.4829C20.2215 16.6403 20.1739 16.8186 20.1739 17C20.1739 17.1815 20.2215 17.3598 20.312 17.5172C20.4025 17.6745 20.5326 17.8053 20.6895 17.8965L21.5001 18.3643L20.5235 20.0567L19.6934 19.5772C19.5461 19.4912 19.3787 19.4456 19.2081 19.4449C19.0375 19.4442 18.8698 19.4885 18.7218 19.5733L18.6856 19.5928C18.5338 19.6786 18.4073 19.803 18.319 19.9534C18.2306 20.1038 18.1836 20.2749 18.1827 20.4493V21.5H16.1827V20.4492C16.1816 20.2731 16.1336 20.1005 16.0436 19.9492C15.9537 19.7978 15.8251 19.6731 15.671 19.5879C15.5147 19.497 15.3372 19.4488 15.1563 19.4482C14.9866 19.4477 14.8198 19.4921 14.6729 19.5772L13.8419 20.0557L12.8663 18.3643L13.6827 17.8926C13.8356 17.7993 13.9619 17.6683 14.0496 17.5122C14.1374 17.3561 14.1835 17.1801 14.1837 17.0011C14.1839 16.822 14.1382 16.6459 14.0508 16.4896C13.9634 16.3333 13.8374 16.202 13.6847 16.1084L12.8654 15.6348L13.8429 13.9434L14.6711 14.4219C14.8251 14.5087 14.9995 14.5532 15.1763 14.5508C15.3532 14.5484 15.5263 14.4992 15.6779 14.4082C15.8304 14.3227 15.9575 14.1983 16.0462 14.0477C16.1349 13.8971 16.182 13.7256 16.1828 13.5508V12.5H18.1828V13.5508C18.1837 13.7253 18.2308 13.8965 18.3193 14.0469C18.4078 14.1973 18.5346 14.3217 18.6867 14.4072L18.6955 14.4121C18.846 14.5022 19.0177 14.5507 19.193 14.5526C19.3684 14.5544 19.5411 14.5097 19.6935 14.4228L20.5245 13.9443L21.5001 15.6357L20.6895 16.1035ZM10.0001 7.3125C9.40847 7.3125 8.83015 7.48793 8.33825 7.81661C7.84635 8.14529 7.46295 8.61245 7.23656 9.15902C7.01016 9.7056 6.95092 10.307 7.06634 10.8873C7.18176 11.4675 7.46664 12.0005 7.88497 12.4188C8.3033 12.8371 8.83628 13.122 9.41652 13.2374C9.99676 13.3529 10.5982 13.2936 11.1448 13.0672C11.6913 12.8408 12.1585 12.4574 12.4872 11.9655C12.8159 11.4736 12.9913 10.8953 12.9913 10.3037C12.9904 9.51066 12.675 8.75035 12.1142 8.18958C11.5534 7.62881 10.7931 7.31338 10.0001 7.3125ZM10.0001 12.2949C9.60625 12.2949 9.22127 12.1781 8.89382 11.9593C8.56636 11.7405 8.31115 11.4296 8.16044 11.0657C8.00973 10.7019 7.97029 10.3015 8.04712 9.91524C8.12396 9.52899 8.3136 9.17419 8.59208 8.89571C8.87055 8.61724 9.22535 8.42759 9.61161 8.35076C9.99787 8.27393 10.3982 8.31336 10.7621 8.46407C11.1259 8.61478 11.4369 8.87 11.6557 9.19745C11.8745 9.52491 11.9913 9.90989 11.9913 10.3037C11.9906 10.8316 11.7806 11.3377 11.4073 11.7109C11.034 12.0842 10.528 12.2942 10.0001 12.2949ZM3.29988 16.0449L1.67878 13.2363C1.50277 12.9307 1.45512 12.5678 1.54629 12.2271C1.63746 11.8865 1.86 11.5958 2.16511 11.419L3.52546 10.6338C3.57869 10.5986 3.62175 10.55 3.65037 10.493C3.67898 10.4359 3.69215 10.3724 3.68855 10.3086C3.69329 10.2434 3.68071 10.178 3.65207 10.1192C3.62343 10.0604 3.57975 10.0102 3.52546 9.97364L2.16511 9.18848C1.85987 9.01199 1.63719 8.72153 1.546 8.38093C1.4548 8.04034 1.50257 7.67747 1.67878 7.37207L3.29988 4.56348C3.47646 4.25835 3.76676 4.03563 4.10722 3.94411C4.44767 3.85259 4.81052 3.89973 5.11628 4.0752L6.49616 4.87207C6.54755 4.89771 6.60471 4.90957 6.66206 4.90649C6.71941 4.90341 6.77497 4.88549 6.82331 4.85449L6.83406 4.84766C6.88449 4.82176 6.9272 4.78303 6.95789 4.73537C6.98858 4.68771 7.00616 4.63279 7.00886 4.57617V2.83008C7.00927 2.47744 7.14953 2.13937 7.39888 1.89002C7.64823 1.64066 7.98631 1.5004 8.33894 1.5H11.6612C12.0138 1.5004 12.3519 1.64066 12.6013 1.89002C12.8506 2.13937 12.9909 2.47744 12.9913 2.83008V4.57617C12.9941 4.63264 13.0116 4.6874 13.0421 4.73502C13.0726 4.78263 13.115 4.82146 13.1651 4.84766C13.1788 4.85547 13.1925 4.86328 13.2042 4.87109C13.2501 4.89578 13.3013 4.90879 13.3535 4.90896C13.4056 4.90914 13.4569 4.89647 13.503 4.87209L14.8829 4.07619C15.1888 3.90088 15.5516 3.85372 15.8921 3.94503C16.2326 4.03634 16.5231 4.25868 16.7003 4.5635L18.3214 7.37209C18.4976 7.67749 18.5453 8.04036 18.4541 8.38095C18.3629 8.72154 18.1403 9.01199 17.835 9.18848L16.4893 9.96484C16.4745 9.97339 16.4676 9.98969 16.4543 10H15.3528C15.3901 9.81377 15.466 9.63743 15.5756 9.48235C15.6853 9.32727 15.8262 9.19688 15.9893 9.09961L17.335 8.32324C17.4107 8.27922 17.4658 8.2071 17.4885 8.12259C17.5112 8.03809 17.4995 7.94804 17.4561 7.87207L15.835 5.06348C15.8133 5.02564 15.7844 4.99247 15.7498 4.96587C15.7153 4.93928 15.6758 4.91979 15.6337 4.90853C15.5916 4.89727 15.5476 4.89447 15.5044 4.90028C15.4612 4.90609 15.4196 4.9204 15.3819 4.94238L14.004 5.7373C13.799 5.84775 13.5692 5.90396 13.3364 5.90058C13.1036 5.8972 12.8755 5.83435 12.6739 5.718C12.4722 5.60166 12.3036 5.43567 12.1841 5.23582C12.0647 5.03597 11.9983 4.8089 11.9913 4.57617V2.83008C11.9911 2.7426 11.9562 2.65877 11.8944 2.59692C11.8325 2.53506 11.7487 2.50022 11.6612 2.5H8.33894C8.25147 2.50022 8.16764 2.53507 8.10579 2.59693C8.04394 2.65878 8.00909 2.74261 8.00886 2.83008V4.57617C8.00738 4.80897 7.9439 5.03718 7.82495 5.23731C7.70601 5.43744 7.53589 5.60227 7.3321 5.71484C7.31745 5.72363 7.30183 5.73145 7.2862 5.73926C7.08885 5.8495 6.8665 5.90722 6.64044 5.90687C6.41439 5.90652 6.19221 5.84811 5.9952 5.73726L4.61726 4.94141C4.54095 4.89839 4.45079 4.88709 4.36621 4.90992C4.28163 4.93275 4.20941 4.9879 4.16511 5.06348L2.54401 7.87207C2.5006 7.94804 2.48896 8.03808 2.51164 8.12259C2.53433 8.2071 2.58948 8.27922 2.6651 8.32324L4.02545 9.1084C4.22834 9.23499 4.39567 9.41113 4.51168 9.62025C4.62768 9.82937 4.68855 10.0646 4.68855 10.3037C4.68855 10.5428 4.62768 10.7781 4.51168 10.9872C4.39567 11.1963 4.22834 11.3724 4.02545 11.499L2.6651 12.2842C2.58941 12.3284 2.53422 12.4007 2.51154 12.4853C2.48886 12.57 2.50054 12.6602 2.54401 12.7363L4.16511 15.5449C4.20956 15.6203 4.28185 15.6753 4.36642 15.698C4.45099 15.7206 4.54107 15.7091 4.61726 15.666L5.99616 14.8701C6.19814 14.754 6.4276 14.6943 6.66055 14.6972C6.89349 14.7002 7.12138 14.7656 7.32038 14.8867C7.33406 14.8945 7.34773 14.9023 7.35945 14.9102C7.55562 15.0247 7.71863 15.1882 7.83249 15.3848C7.94634 15.5813 8.00712 15.8041 8.00886 16.0312V17.7773C8.00909 17.8648 8.04394 17.9486 8.10579 18.0105C8.16764 18.0723 8.25147 18.1072 8.33894 18.1074H10V19.1074H8.33894C7.98631 19.107 7.64823 18.9668 7.39888 18.7174C7.14953 18.4681 7.00927 18.13 7.00886 17.7773V16.0312C7.00616 15.9745 6.98847 15.9195 6.95759 15.8718C6.92671 15.8241 6.88375 15.7855 6.83308 15.7598C6.78426 15.7263 6.72744 15.7064 6.66842 15.7021C6.60939 15.6979 6.55029 15.7093 6.49714 15.7353L5.11726 16.5312C4.81177 16.7077 4.44868 16.7557 4.10786 16.6644C3.76704 16.5732 3.47641 16.3504 3.29988 16.0449Z" fill="#FD4404"></path></svg> 