<?xml version="1.0" encoding="UTF-8"?> <svg xmlns="http://www.w3.org/2000/svg" width="24" height="24" viewBox="0 0 24 24" fill="none"><path d="M2.5 5V19C2.50078 19.6628 2.76442 20.2982 3.23309 20.7669C3.70176 21.2356 4.3372 21.4992 5 21.5H19C19.6628 21.4992 20.2982 21.2356 20.7669 20.7669C21.2356 20.2982 21.4992 19.6628 21.5 19V5C21.4992 4.3372 21.2356 3.70176 20.7669 3.23309C20.2982 2.76442 19.6628 2.50078 19 2.5H5C4.3372 2.50078 3.70176 2.76442 3.23309 3.23309C2.76442 3.70176 2.50078 4.3372 2.5 5ZM20.5 19C20.4996 19.3977 20.3414 19.779 20.0602 20.0602C19.779 20.3414 19.3977 20.4996 19 20.5H5C4.60231 20.4996 4.22103 20.3414 3.93982 20.0602C3.65861 19.779 3.50043 19.3977 3.5 19V7.5H20.5V19ZM7.5 3.5H19C19.3977 3.50043 19.779 3.65861 20.0602 3.93982C20.3414 4.22103 20.4996 4.60231 20.5 5V6.5H7.5V3.5ZM6.5 6.5H3.5V5C3.50043 4.60231 3.65861 4.22103 3.93982 3.93982C4.22103 3.65861 4.60231 3.50043 5 3.5H6.5V6.5ZM8.64648 13.3535C8.5554 13.2592 8.505 13.1329 8.50614 13.0018C8.50728 12.8707 8.55987 12.7453 8.65257 12.6526C8.74527 12.5599 8.87068 12.5073 9.00178 12.5062C9.13288 12.505 9.25918 12.5554 9.35348 12.6465L11 14.293L14.6465 10.6465C14.7408 10.5554 14.8671 10.505 14.9982 10.5062C15.1293 10.5073 15.2547 10.5599 15.3474 10.6526C15.4401 10.7453 15.4927 10.8707 15.4938 11.0018C15.495 11.1329 15.4446 11.2592 15.3535 11.3535L11.3535 15.3535C11.3071 15.3999 11.252 15.4368 11.1913 15.4619C11.1306 15.487 11.0656 15.5 11 15.5C10.9343 15.5 10.8693 15.487 10.8087 15.4619C10.748 15.4368 10.6929 15.3999 10.6465 15.3535L8.64648 13.3535Z" fill="#FD4404"></path></svg> 