<?xml version="1.0" encoding="UTF-8"?> <svg xmlns="http://www.w3.org/2000/svg" width="24" height="25" viewBox="0 0 24 25" fill="none"><g clip-path="url(#clip0_910_9082)"><path d="M20 11C20 11.1326 20.0527 11.2598 20.1465 11.3536C20.2402 11.4473 20.3674 11.5 20.5 11.5C20.6326 11.5 20.7598 11.4473 20.8536 11.3536C20.9473 11.2598 21 11.1326 21 11C21 8.9233 20.3842 6.89323 19.2304 5.16652C18.0767 3.4398 16.4368 2.09399 14.5182 1.29927C12.5996 0.504549 10.4884 0.296614 8.45156 0.701759C6.41476 1.1069 4.54384 2.10693 3.07538 3.57538C1.60693 5.04384 0.606904 6.91476 0.201759 8.95156C-0.203386 10.9884 0.00454944 13.0996 0.79927 15.0182C1.59399 16.9368 2.9398 18.5767 4.66652 19.7304C6.39323 20.8842 8.4233 21.5 10.5 21.5C10.6326 21.5 10.7598 21.4473 10.8536 21.3536C10.9473 21.2598 11 21.1326 11 21C11 20.8674 10.9473 20.7402 10.8536 20.6465C10.7598 20.5527 10.6326 20.5 10.5 20.5C8.62108 20.5 6.78435 19.9428 5.22209 18.899C3.65982 17.8551 2.44218 16.3714 1.72315 14.6355C1.00412 12.8996 0.815985 10.9895 1.18254 9.14665C1.5491 7.30383 2.45389 5.61109 3.78249 4.28249C5.11109 2.95389 6.80383 2.0491 8.64665 1.68254C10.4895 1.31598 12.3996 1.50412 14.1355 2.22315C15.8714 2.94218 17.3551 4.15982 18.399 5.72209C19.4428 7.28435 20 9.12108 20 11Z" fill="#FD4404"></path><path d="M10.5 3.64111C10.3674 3.64111 10.2402 3.69379 10.1464 3.78756C10.0527 3.88133 10 4.00851 10 4.14111V11.0001C10 11.1327 10.0527 11.2599 10.1464 11.3537C10.2402 11.4474 10.3674 11.5001 10.5 11.5001H15.228C15.3606 11.5001 15.4878 11.4474 15.5816 11.3537C15.6753 11.2599 15.728 11.1327 15.728 11.0001C15.728 10.8675 15.6753 10.7403 15.5816 10.6466C15.4878 10.5528 15.3606 10.5001 15.228 10.5001H11V4.14111C11 4.00851 10.9473 3.88133 10.8536 3.78756C10.7598 3.69379 10.6326 3.64111 10.5 3.64111Z" fill="#FD4404"></path><path d="M18.5 13.5C17.4122 13.5 16.3488 13.8226 15.4444 14.4269C14.5399 15.0313 13.8349 15.8902 13.4187 16.8952C13.0024 17.9002 12.8935 19.0061 13.1057 20.073C13.3179 21.1399 13.8417 22.1199 14.6109 22.8891C15.3801 23.6583 16.3601 24.1821 17.427 24.3943C18.4939 24.6065 19.5998 24.4976 20.6048 24.0813C21.6098 23.6651 22.4687 22.9601 23.0731 22.0556C23.6774 21.1512 24 20.0878 24 19C23.9984 17.5418 23.4184 16.1438 22.3873 15.1127C21.3562 14.0816 19.9582 13.5016 18.5 13.5ZM18.5 23.5C17.61 23.5 16.74 23.2361 15.9999 22.7416C15.2599 22.2471 14.6831 21.5443 14.3425 20.7221C14.0019 19.8998 13.9128 18.995 14.0865 18.1221C14.2601 17.2492 14.6887 16.4474 15.318 15.818C15.9474 15.1887 16.7492 14.7601 17.6221 14.5865C18.495 14.4128 19.3998 14.5019 20.2221 14.8425C21.0443 15.1831 21.7471 15.7599 22.2416 16.4999C22.7361 17.24 23 18.11 23 19C22.9987 20.1931 22.5241 21.3369 21.6805 22.1805C20.8369 23.0241 19.6931 23.4987 18.5 23.5Z" fill="#FD4404"></path><path d="M20.388 17.4422L17.922 19.9082L16.854 18.8402C16.8076 18.7937 16.7524 18.7568 16.6917 18.7316C16.6311 18.7064 16.566 18.6935 16.5003 18.6934C16.4346 18.6934 16.3696 18.7063 16.3089 18.7314C16.2481 18.7565 16.193 18.7933 16.1465 18.8397C16.1 18.8861 16.0631 18.9412 16.0379 19.0019C16.0127 19.0626 15.9997 19.1276 15.9997 19.1933C15.9996 19.259 16.0125 19.3241 16.0376 19.3848C16.0627 19.4455 16.0996 19.5007 16.146 19.5472L17.568 20.9692C17.6617 21.0629 17.7889 21.1156 17.9215 21.1156C18.0541 21.1156 18.1812 21.0629 18.275 20.9692L21.095 18.1492C21.1427 18.1031 21.1808 18.0479 21.207 17.9869C21.2332 17.9259 21.247 17.8603 21.2476 17.7939C21.2482 17.7275 21.2355 17.6617 21.2104 17.6002C21.1852 17.5388 21.1481 17.4829 21.1012 17.436C21.0542 17.3891 20.9984 17.3519 20.937 17.3268C20.8755 17.3016 20.8097 17.289 20.7433 17.2896C20.6769 17.2901 20.6113 17.3039 20.5503 17.3301C20.4893 17.3563 20.4341 17.3944 20.388 17.4422Z" fill="#FD4404"></path></g><defs><clipPath id="clip0_910_9082"><rect width="24" height="24" fill="white" transform="translate(0 0.5)"></rect></clipPath></defs></svg> 