<?xml version="1.0" encoding="UTF-8"?> <svg xmlns="http://www.w3.org/2000/svg" width="100%" height="100%" viewBox="0 0 60 60" fill="none"><path opacity="0.5" d="M37.5 33.8998L32.5 50.7998L46.5 50.7998L53.5 35.8998C57 28.3998 57.4 25.9998 57.4 22.7998C57.4 14.9998 51.8 9.9998 44.2 9.9998C36.6 9.9998 31 14.9998 31 22.7998C31 28.0998 33.5 31.9998 37.5 33.8998ZM8.49999 33.8998L3.49999 50.7998L17.5 50.7998L24.5 35.8998C28 28.3998 28.4 25.9998 28.4 22.7998C28.4 14.9998 22.8 9.9998 15.2 9.9998C7.6 9.9998 2 14.9998 1.99999 22.7998C1.99999 28.0998 4.49999 31.9998 8.49999 33.8998Z" fill="#527AE3"></path></svg> 