<?xml version="1.0" encoding="UTF-8"?> <svg xmlns="http://www.w3.org/2000/svg" xmlns:xlink="http://www.w3.org/1999/xlink" id="Layer_1" data-name="Layer 1" viewBox="0 0 500 500" preserveAspectRatio="none"><defs><linearGradient id="linear-gradient" x1="58.43476" y1="291.71055" x2="144.13551" y2="270.80782" gradientTransform="matrix(1, 0, 0, -1, 0, 500)" gradientUnits="userSpaceOnUse"><stop offset="0" stop-color="#4f77db"></stop><stop offset="1" stop-color="#4f77db" stop-opacity="0"></stop></linearGradient><linearGradient id="linear-gradient-2" x1="441.56487" y1="291.7104" x2="355.86454" y2="270.80767" xlink:href="#linear-gradient"></linearGradient><linearGradient id="linear-gradient-3" x1="44.53966" y1="183.35795" x2="145.12283" y2="227.78236" xlink:href="#linear-gradient"></linearGradient><linearGradient id="linear-gradient-4" x1="455.46011" y1="183.35831" x2="354.87653" y2="227.78274" xlink:href="#linear-gradient"></linearGradient><linearGradient id="linear-gradient-5" x1="114.85433" y1="375.13318" x2="173.41145" y2="302.2621" xlink:href="#linear-gradient"></linearGradient><linearGradient id="linear-gradient-6" x1="385.14569" y1="375.13319" x2="326.58858" y2="302.26211" xlink:href="#linear-gradient"></linearGradient><linearGradient id="linear-gradient-7" x1="115.48378" y1="137.83026" x2="167.75764" y2="195.52585" xlink:href="#linear-gradient"></linearGradient><linearGradient id="linear-gradient-8" x1="384.51623" y1="137.83025" x2="332.24238" y2="195.52585" xlink:href="#linear-gradient"></linearGradient></defs><title>integrations-scheme-lines</title><path d="M88.334,241.19424v-.44069h0ZM40.83377,210.3458l-.40967.08021.00183.01057.00234.01058ZM.83333,166.71728a.44139.44139,0,0,0,0,.88139Zm7.65374,1.71694a.41692.41692,0,0,0,.4945-.33846.44181.44181,0,0,0-.32042-.52353Zm14.342,6.14853a.402.402,0,0,0-.58467.07756.45844.45844,0,0,0,.07358.61874Zm9.6044,12.91229a.40435.40435,0,0,0,.57283.14631.45628.45628,0,0,0,.13833-.6064Zm6.98349,14.7103a.41334.41334,0,0,0-.51817-.297.44542.44542,0,0,0-.28058.54822Zm3.42216,15.976a.40784.40784,0,0,0,.54883.22652.45012.45012,0,0,0,.21458-.57995ZM52.51283,230.481a.40112.40112,0,0,0-.58658.059.45837.45837,0,0,0,.05575.6205Zm13.07189,8.12811a.41345.41345,0,0,0,.51976-.29348.44616.44616,0,0,0-.2775-.55Zm15.15273,1.87649a.42573.42573,0,0,0-.44475.409.433.433,0,0,0,.3865.47065Zm13.66406,1.14932a.44139.44139,0,0,0,0-.88139Zm12.135-.88139a.44139.44139,0,0,0,0,.88139Zm12.13581.88139a.44139.44139,0,0,0,0-.88139Zm12.135-.88139a.44139.44139,0,0,0,0,.88139Zm12.13582.88139a.44139.44139,0,0,0,0-.88139Zm12.135-.88139a.44139.44139,0,0,0,0,.88139Zm12.13581.88139a.44139.44139,0,0,0,0-.88139Zm12.135-.88139a.44139.44139,0,0,0,0,.88139Zm12.13582.88139a.44139.44139,0,0,0,0-.88139Zm12.135-.88139a.44139.44139,0,0,0,0,.88139Zm12.13583.88139a.44139.44139,0,0,0,0-.88139Zm12.135-.88139a.44139.44139,0,0,0,0,.88139Zm12.13583.88139a.44139.44139,0,0,0,0-.88139Zm12.135-.88139a.44139.44139,0,0,0,0,.88139Zm12.13583.88139a.44139.44139,0,0,0,0-.88139Zm12.135-.88139a.44139.44139,0,0,0,0,.88139ZM.83333,167.59867a34.65965,34.65965,0,0,1,7.65374.83555l.17408-.862a35.45367,35.45367,0,0,0-7.82782-.855ZM22.318,175.27905a44.40166,44.40166,0,0,1,10.11549,12.216l.71116-.46009a45.28312,45.28312,0,0,0-10.31556-12.4522Zm16.30023,27.17748A81.119,81.119,0,0,1,40.4241,210.426l.81941-.16042a81.99034,81.99034,0,0,0-1.82657-8.06025Zm1.81008,7.99063a46.9803,46.9803,0,0,0,2.41083,7.73414l.76341-.35343a46.058,46.058,0,0,1-2.36324-7.58344ZM51.982,231.16056a38.06509,38.06509,0,0,0,13.60272,7.44857l.24226-.84348A37.24961,37.24961,0,0,1,52.51283,230.481Zm28.6972,10.20467c2.49325.18509,5.04983.26971,7.65482.26971v-.88139c-2.58833,0-5.12516-.08462-7.59657-.26793Zm7.65482.26971h6.06749v-.88139H88.334Zm18.20247,0H118.6723v-.88139H106.53649Zm24.27079,0H142.9431v-.88139H130.80728Zm24.2708,0h12.13581v-.88139H155.07808Zm24.27079,0h12.13582v-.88139H179.34887Zm24.27079,0h12.13583v-.88139H203.61966Zm24.2708,0h12.13583v-.88139H227.89046Zm24.27079,0h12.13583v-.88139H252.16125Zm24.2708,0h6.06833v-.88139h-6.06833Zm-188.098-.4407v-.88138h0ZM40.83377,210.3458l-.81934.16042.00367.02114.00475.02115ZM.83333,166.27659a.88277.88277,0,0,0,0,1.76277ZM8.4,168.86521a.83456.83456,0,0,0,.98908-.67778.88276.88276,0,0,0-.64083-1.0462Zm14.68464,5.3694a.80339.80339,0,0,0-1.16933.156.91575.91575,0,0,0,.14708,1.23658ZM32.078,187.72508a.80761.80761,0,0,0,1.14558.29173.91007.91007,0,0,0,.27658-1.211Zm7.73832,14.35422a.82672.82672,0,0,0-1.03633-.59318.88976.88976,0,0,0-.56108,1.09556Zm2.64116,16.27828a.816.816,0,0,0,1.09758.45391.90146.90146,0,0,0,.42917-1.16078Zm10.3209,11.7841a.80292.80292,0,0,0-1.17325.11722.91685.91685,0,0,0,.1115,1.241Zm12.68523,8.88964a.82686.82686,0,0,0,1.03958-.58788.89051.89051,0,0,0-.55508-1.09909Zm15.30306,1.01536a.84959.84959,0,0,0-.88958.817.86712.86712,0,0,0,.773.94132Zm13.63489,2.02895a.88277.88277,0,0,0,0-1.76277Zm12.135-1.76277a.88277.88277,0,0,0,0,1.76277Zm12.13581,1.76277a.88277.88277,0,0,0,0-1.76277Zm12.135-1.76277a.88277.88277,0,0,0,0,1.76277Zm12.13582,1.76277a.88277.88277,0,0,0,0-1.76277Zm12.135-1.76277a.88277.88277,0,0,0,0,1.76277Zm12.13581,1.76277a.88277.88277,0,0,0,0-1.76277Zm12.135-1.76277a.88277.88277,0,0,0,0,1.76277Zm12.13582,1.76277a.88277.88277,0,0,0,0-1.76277Zm12.135-1.76277a.88277.88277,0,0,0,0,1.76277Zm12.13583,1.76277a.88277.88277,0,0,0,0-1.76277Zm12.135-1.76277a.88277.88277,0,0,0,0,1.76277Zm12.13583,1.76277a.88277.88277,0,0,0,0-1.76277Zm12.135-1.76277a.88277.88277,0,0,0,0,1.76277Zm12.13583,1.76277a.88277.88277,0,0,0,0-1.76277Zm12.135-1.76277a.88277.88277,0,0,0,0,1.76277ZM.83333,168.03936A34.23635,34.23635,0,0,1,8.4,168.86521l.34825-1.724a35.82513,35.82513,0,0,0-7.91491-.86464Zm21.22905,7.58783A43.97038,43.97038,0,0,1,32.078,187.72508l1.42216-.91928a45.71842,45.71842,0,0,0-10.41548-12.57119Zm16.15648,26.95449a80.6499,80.6499,0,0,1,1.79557,7.92454l1.63875-.32084a82.43124,82.43124,0,0,0-1.83691-8.10608Zm1.804,7.96683a47.40938,47.40938,0,0,0,2.43458,7.80907l1.52675-.70687a45.58431,45.58431,0,0,1-2.33941-7.50763Zm11.69373,20.9514a38.47459,38.47459,0,0,0,13.747,7.53141l.4845-1.687a36.85353,36.85353,0,0,1-13.16973-7.20267ZM80.65,241.805c2.50417.18511,5.06983.27059,7.684.27059v-1.76277c-2.58,0-5.1069-.08373-7.5674-.26618Zm7.684.27059h6.06749v-1.76277H88.334Zm18.20247,0H118.6723v-1.76277H106.53649Zm24.27079,0H142.9431v-1.76277H130.80728Zm24.2708,0h12.13581v-1.76277H155.07808Zm24.27079,0h12.13582v-1.76277H179.34887Zm24.27079,0h12.13583v-1.76277H203.61966Zm24.2708,0h12.13583v-1.76277H227.89046Zm24.27079,0h12.13583v-1.76277H252.16125Zm24.2708,0h6.06833v-1.76277h-6.06833Z" opacity="0.8" fill="url(#linear-gradient)" style="isolation: isolate"></path><path d="M411.666,241.19424v-.44069h0Zm47.49992-30.84844.41.08021-.00168.01057-.00249.01058Zm40.00075-43.62852a.44139.44139,0,0,1,0,.88139Zm-7.65415,1.71694a.41673.41673,0,0,1-.49413-.33846.44121.44121,0,0,1,.32079-.52353Zm-14.34161,6.14853a.4024.4024,0,0,1,.585.07756.458.458,0,0,1-.07416.61874ZM467.56673,187.495a.40482.40482,0,0,1-.57332.14631.45674.45674,0,0,1-.13835-.6064Zm-6.98332,14.7103a.4126.4126,0,0,1,.51752-.297.44518.44518,0,0,1,.28082.54822Zm-3.42249,15.976a.40826.40826,0,0,1-.54917.22652.44969.44969,0,0,1-.21418-.57995ZM447.48676,230.481a.40126.40126,0,0,1,.5867.059.45823.45823,0,0,1-.05585.6205Zm-13.07162,8.12811a.414.414,0,0,1-.52-.29348.44625.44625,0,0,1,.27832-.55Zm-15.15249,1.87649a.4265.4265,0,0,1,.445.409.43359.43359,0,0,1-.38666.47065Zm-13.66415,1.14932a.44139.44139,0,0,1,0-.88139Zm-12.135-.88139a.44139.44139,0,0,1,0,.88139Zm-12.13583.88139a.44139.44139,0,0,1,0-.88139Zm-12.135-.88139a.44139.44139,0,0,1,0,.88139Zm-12.13583.88139a.44139.44139,0,0,1,0-.88139Zm-12.135-.88139a.44139.44139,0,0,1,0,.88139Zm-12.13583.88139a.44139.44139,0,0,1,0-.88139Zm-12.135-.88139a.44139.44139,0,0,1,0,.88139Zm-12.13583.88139a.44139.44139,0,0,1,0-.88139Zm-12.135-.88139a.44139.44139,0,0,1,0,.88139Zm-12.13583.88139a.44139.44139,0,0,1,0-.88139Zm-12.135-.88139a.44139.44139,0,0,1,0,.88139Zm-12.13583.88139a.44139.44139,0,0,1,0-.88139Zm-12.135-.88139a.44139.44139,0,0,1,0,.88139Zm-12.13583.88139a.44139.44139,0,0,1,0-.88139Zm-12.135-.88139a.44139.44139,0,0,1,0,.88139Zm275.59869-73.15488a34.66171,34.66171,0,0,0-7.65415.83555l-.17334-.862a35.4466,35.4466,0,0,1,7.82749-.855Zm-21.485,7.68038a44.39573,44.39573,0,0,0-10.115,12.216l-.71167-.46009a45.28472,45.28472,0,0,1,10.31585-12.4522Zm-16.3,27.17748a81.04987,81.04987,0,0,0-1.80583,7.96948l-.81919-.16042a81.75553,81.75553,0,0,1,1.82668-8.06025Zm-1.81,7.99063a47.03688,47.03688,0,0,1-2.41083,7.73414l-.76335-.35343a46.10779,46.10779,0,0,0,2.36333-7.58344Zm-11.55414,20.7134a38.05825,38.05825,0,0,1-13.60247,7.44857l-.2417-.84348a37.24333,37.24333,0,0,0,13.31332-7.28463ZM419.321,241.36523c-2.49333.18509-5.05.26971-7.655.26971v-.88139c2.58832,0,5.125-.08462,7.59665-.26793Zm-7.655.26971h-6.0675v-.88139h6.0675Zm-18.20246,0H381.32771v-.88139h12.13583Zm-24.2708,0H357.05691v-.88139h12.13583Zm-24.27079,0H332.78612v-.88139H344.922Zm-24.27079,0H308.51533v-.88139h12.13583Zm-24.2708,0H284.24453v-.88139h12.13583Zm-24.27079,0H259.97374v-.88139h12.13583Zm-24.2708,0H235.70294v-.88139h12.13583Zm-24.27079,0h-6.06833v-.88139H223.568Zm188.098-.4407v-.88138h0Zm47.49992-30.84844.82.16042-.00418.02114-.00417.02115Zm40.00075-44.06921a.88277.88277,0,0,1,0,1.76277Zm-7.56662,2.58862a.83451.83451,0,0,1-.98917-.67778.8831.8831,0,0,1,.64081-1.0462Zm-14.685,5.3694a.80409.80409,0,0,1,1.17.156.9166.9166,0,0,1-.1475,1.23658Zm-8.99332,13.49047a.807.807,0,0,1-1.145.29173.90949.90949,0,0,1-.27664-1.211Zm-7.73833,14.35422a.82735.82735,0,0,1,1.03669-.59318.88955.88955,0,0,1,.56081,1.09556Zm-2.64083,16.27828a.816.816,0,0,1-1.09751.45391.901.901,0,0,1-.42918-1.16078Zm-10.32082,11.7841a.803.803,0,0,1,1.17334.11722.91642.91642,0,0,1-.11169,1.241Zm-12.685,8.88964a.82726.82726,0,0,1-1.04-.58788.89048.89048,0,0,1,.555-1.09909Zm-15.30332,1.01536a.84892.84892,0,0,1,.88918.817.86645.86645,0,0,1-.7725.94132Zm-13.635,2.02895a.88277.88277,0,0,1,0-1.76277Zm-12.135-1.76277a.88277.88277,0,0,1,0,1.76277Zm-12.13583,1.76277a.88277.88277,0,0,1,0-1.76277Zm-12.135-1.76277a.88277.88277,0,0,1,0,1.76277Zm-12.13583,1.76277a.88277.88277,0,0,1,0-1.76277Zm-12.135-1.76277a.88277.88277,0,0,1,0,1.76277Zm-12.13583,1.76277a.88277.88277,0,0,1,0-1.76277Zm-12.135-1.76277a.88277.88277,0,0,1,0,1.76277Zm-12.13583,1.76277a.88277.88277,0,0,1,0-1.76277Zm-12.135-1.76277a.88277.88277,0,0,1,0,1.76277Zm-12.13583,1.76277a.88277.88277,0,0,1,0-1.76277Zm-12.135-1.76277a.88277.88277,0,0,1,0,1.76277Zm-12.13583,1.76277a.88277.88277,0,0,1,0-1.76277Zm-12.135-1.76277a.88277.88277,0,0,1,0,1.76277Zm-12.13583,1.76277a.88277.88277,0,0,1,0-1.76277Zm-12.135-1.76277a.88277.88277,0,0,1,0,1.76277Zm275.59869-72.2735a34.23585,34.23585,0,0,0-7.56662.82585l-.34836-1.724a35.82576,35.82576,0,0,1,7.915-.86464Zm-21.22911,7.58783a43.97622,43.97622,0,0,0-10.01581,12.09789l-1.42165-.91928a45.72054,45.72054,0,0,1,10.415-12.57119Zm-16.15664,26.95449a80.77873,80.77873,0,0,0-1.795,7.92454l-1.63915-.32084a82.4969,82.4969,0,0,1,1.83664-8.10608Zm-1.80334,7.96683a47.51668,47.51668,0,0,1-2.435,7.80907l-1.52669-.70687a45.59115,45.59115,0,0,0,2.33917-7.50763Zm-11.69416,20.9514a38.47664,38.47664,0,0,1-13.74662,7.53141l-.485-1.687a36.85845,36.85845,0,0,0,13.17-7.20267ZM419.35016,241.805c-2.50417.18511-5.07.27059-7.68416.27059v-1.76277c2.58,0,5.10665-.08373,7.56748-.26618Zm-7.68416.27059h-6.0675v-1.76277h6.0675Zm-18.20246,0H381.32771v-1.76277h12.13583Zm-24.2708,0H357.05691v-1.76277h12.13583Zm-24.27079,0H332.78612v-1.76277H344.922Zm-24.27079,0H308.51533v-1.76277h12.13583Zm-24.2708,0H284.24453v-1.76277h12.13583Zm-24.27079,0H259.97374v-1.76277h12.13583Zm-24.2708,0H235.70294v-1.76277h12.13583Zm-24.27079,0h-6.06833v-1.76277H223.568Z" opacity="0.8" fill="url(#linear-gradient-2)" style="isolation: isolate"></path><path d="M88.334,258.82545v.44069h0ZM40.83377,289.6739l-.40967-.08021.00183-.01057.00234-.01058ZM.83333,333.30241a.44138.44138,0,0,1,0-.88138Zm7.65374-1.71693a.41692.41692,0,0,1,.4945.33845.44181.44181,0,0,1-.32042.52354Zm14.342-6.14855a.402.402,0,0,1-.58467-.07755.45832.45832,0,0,1,.07358-.61873Zm9.6044-12.91227a.40365.40365,0,0,1,.57283-.1463.45536.45536,0,0,1,.13833.60549Zm6.98349-14.71031a.41333.41333,0,0,1-.51817.297.44543.44543,0,0,1-.28058-.54822Zm3.42216-15.976a.40785.40785,0,0,1,.54883-.22653.45015.45015,0,0,1,.21458.58Zm9.67373-12.29973a.40112.40112,0,0,1-.58658-.059.45837.45837,0,0,1,.05575-.6205Zm13.07189-8.12811a.4128.4128,0,0,1,.51976.29348.44617.44617,0,0,1-.2775.55Zm15.15273-1.87646a.42577.42577,0,0,1-.44475-.409.433.433,0,0,1,.3865-.47066Zm13.55989-1.14934a.44138.44138,0,0,1,0,.88138Zm11.92666.88138a.44138.44138,0,0,1,0-.88138Zm11.92747-.88138a.44138.44138,0,0,1,0,.88138Zm11.92665.88138a.44138.44138,0,0,1,0-.88138Zm11.92748-.88138a.44138.44138,0,0,1,0,.88138Zm11.92664.88138a.44138.44138,0,0,1,0-.88138Zm11.92749-.88138a.44138.44138,0,0,1,0,.88138Zm11.92664.88138a.44138.44138,0,0,1,0-.88138Zm11.92749-.88138a.44138.44138,0,0,1,0,.88138Zm11.92664.88138a.44138.44138,0,0,1,0-.88138Zm11.9275-.88138a.44138.44138,0,0,1,0,.88138Zm11.92663.88138a.44138.44138,0,0,1,0-.88138Zm11.92749-.88138a.44138.44138,0,0,1,0,.88138Zm11.92664.88138a.44138.44138,0,0,1,0-.88138Zm11.92749-.88138a.44138.44138,0,0,1,0,.88138Zm11.92663.88138a.44138.44138,0,0,1,0-.88138ZM.83333,332.421a34.65965,34.65965,0,0,0,7.65374-.83555l.17408.862a35.45307,35.45307,0,0,1-7.82782.85494ZM22.318,324.74065a44.4149,44.4149,0,0,0,10.11549-12.216l.71116.45919a45.27383,45.27383,0,0,1-10.31556,12.45308Zm16.30023-27.17749a81.11749,81.11749,0,0,0,1.80591-7.96947l.81941.16041a81.991,81.991,0,0,1-1.82657,8.06025Zm1.81008-7.99062a46.9806,46.9806,0,0,1,2.41083-7.73414l.76341.35344a46.05761,46.05761,0,0,0-2.36324,7.58341ZM51.982,268.85913a38.06524,38.06524,0,0,1,13.60272-7.44857l.24226.84349a37.2361,37.2361,0,0,0-13.31415,7.28462Zm28.6972-10.20467c2.49325-.18508,5.04983-.2697,7.65482-.2697v.88138c-2.58833,0-5.12516.08462-7.59657.268Zm7.65482-.2697h5.96332v.88138H88.334Zm17.89,0h11.92747v.88138H106.224Zm23.85412,0H142.0056v.88138H130.07812Zm23.85412,0h11.92749v.88138H153.93224Zm23.85413,0h11.92749v.88138H177.78637Zm23.85413,0H213.568v.88138H201.6405Zm23.85413,0h11.92749v.88138H225.49463Zm23.85413,0h11.92749v.88138H249.34876Zm23.85412,0h5.96417v.88138h-5.96417ZM88.334,258.82545v.88138h0ZM40.83377,289.6739l-.81934-.16042.00367-.02114.00475-.02117ZM.83333,333.7431a.88277.88277,0,0,1,0-1.76277ZM8.4,331.15447a.83456.83456,0,0,1,.98908.67779.88277.88277,0,0,1-.64083,1.04622Zm14.68464-5.36938a.8041.8041,0,0,1-1.16933-.156.91578.91578,0,0,1,.14708-1.2366ZM32.078,312.29463a.80786.80786,0,0,1,1.14558-.29262.91137.91137,0,0,1,.27658,1.2119Zm7.73832-14.35423a.82674.82674,0,0,1-1.03633.59317.88976.88976,0,0,1-.56108-1.09557Zm2.64116-16.27828a.816.816,0,0,1,1.09758-.45393.90148.90148,0,0,1,.42917,1.1608Zm10.3209-11.7841a.80233.80233,0,0,1-1.17325-.11811.91572.91572,0,0,1,.1115-1.24012Zm12.68523-8.88964a.827.827,0,0,1,1.03958.587.89151.89151,0,0,1-.55508,1.1ZM80.76662,259.973a.84959.84959,0,0,1-.88958-.817.8671.8671,0,0,1,.773-.94131Zm13.53072-2.02894a.88276.88276,0,0,1,0,1.76276Zm11.92666,1.76276a.88276.88276,0,0,1,0-1.76276Zm11.92747-1.76276a.88277.88277,0,0,1,0,1.76276Zm11.92665,1.76276a.88276.88276,0,0,1,0-1.76276Zm11.92748-1.76276a.88277.88277,0,0,1,0,1.76276Zm11.92664,1.76276a.88277.88277,0,0,1,0-1.76276Zm11.92749-1.76276a.88277.88277,0,0,1,0,1.76276Zm11.92664,1.76276a.88277.88277,0,0,1,0-1.76276Zm11.92749-1.76276a.88277.88277,0,0,1,0,1.76276Zm11.92664,1.76276a.88277.88277,0,0,1,0-1.76276Zm11.9275-1.76276a.88277.88277,0,0,1,0,1.76276Zm11.92663,1.76276a.88277.88277,0,0,1,0-1.76276Zm11.92749-1.76276a.88276.88276,0,0,1,0,1.76276Zm11.92664,1.76276a.88276.88276,0,0,1,0-1.76276Zm11.92749-1.76276a.88277.88277,0,0,1,0,1.76276Zm11.92663,1.76276a.88277.88277,0,0,1,0-1.76276ZM.83333,331.98033A34.23515,34.23515,0,0,0,8.4,331.15447l.34825,1.724a35.82633,35.82633,0,0,1-7.91491.86462Zm21.22905-7.58784A43.97,43.97,0,0,0,32.078,312.29463l1.42216.91928a45.71852,45.71852,0,0,1-10.41548,12.57118ZM38.21886,297.438a80.70635,80.70635,0,0,0,1.79557-7.92452l1.63875.32083a82.43144,82.43144,0,0,1-1.83691,8.10609Zm1.804-7.96683a47.40853,47.40853,0,0,1,2.43458-7.809l1.52675.70687a45.58431,45.58431,0,0,0-2.33941,7.50763Zm11.69373-20.95138a38.47474,38.47474,0,0,1,13.747-7.53141l.4845,1.687A36.85322,36.85322,0,0,0,52.77833,269.878ZM80.65,258.21466c2.50417-.186,5.06983-.27059,7.684-.27059v1.76276c-2.58,0-5.1069.08374-7.5674.26618Zm7.684-.27059h5.96332v1.76276H88.334Zm17.89,0h11.92747v1.76276H106.224Zm23.85412,0H142.0056v1.76276H130.07812Zm23.85412,0h11.92749v1.76276H153.93224Zm23.85413,0h11.92749v1.76276H177.78637Zm23.85413,0H213.568v1.76276H201.6405Zm23.85413,0h11.92749v1.76276H225.49463Zm23.85413,0h11.92749v1.76276H249.34876Zm23.85412,0h5.96417v1.76276h-5.96417Z" opacity="0.8" fill="url(#linear-gradient-3)" style="isolation: isolate"></path><path d="M411.666,258.82545v.44069h0Zm47.49992,30.84845.41-.08021-.00168-.01057-.00249-.01058Zm40.00075,43.62851a.44138.44138,0,0,0,0-.88138Zm-7.65415-1.71693a.41672.41672,0,0,0-.49413.33845.44121.44121,0,0,0,.32079.52354Zm-14.34161-6.14855a.40239.40239,0,0,0,.585-.07755.4579.4579,0,0,0-.07416-.61873Zm-9.60418-12.91227a.40412.40412,0,0,0-.57332-.1463.45581.45581,0,0,0-.13835.60549Zm-6.98332-14.71031a.41259.41259,0,0,0,.51752.297.44518.44518,0,0,0,.28082-.54822Zm-3.42249-15.976a.40827.40827,0,0,0-.54917-.22653.44971.44971,0,0,0-.21418.58Zm-9.67416-12.29973a.40126.40126,0,0,0,.5867-.059.45823.45823,0,0,0-.05585-.6205Zm-13.07162-8.12811a.41338.41338,0,0,0-.52.29348.44626.44626,0,0,0,.27832.55Zm-15.15249-1.87646a.42654.42654,0,0,0,.445-.409.4336.4336,0,0,0-.38666-.47066Zm-13.56-1.14934a.44138.44138,0,0,0,0,.88138Zm-11.92663.88138a.44138.44138,0,0,0,0-.88138Zm-11.9275-.88138a.44138.44138,0,0,0,0,.88138Zm-11.92663.88138a.44138.44138,0,0,0,0-.88138Zm-11.9275-.88138a.44138.44138,0,0,0,0,.88138Zm-11.92663.88138a.44138.44138,0,0,0,0-.88138Zm-11.9275-.88138a.44138.44138,0,0,0,0,.88138Zm-11.92663.88138a.44138.44138,0,0,0,0-.88138Zm-11.92749-.88138a.44138.44138,0,0,0,0,.88138Zm-11.92663.88138a.44138.44138,0,0,0,0-.88138Zm-11.9275-.88138a.44138.44138,0,0,0,0,.88138Zm-11.92663.88138a.44138.44138,0,0,0,0-.88138Zm-11.9275-.88138a.44138.44138,0,0,0,0,.88138Zm-11.92663.88138a.44138.44138,0,0,0,0-.88138Zm-11.9275-.88138a.44138.44138,0,0,0,0,.88138Zm-11.92663.88138a.44138.44138,0,0,0,0-.88138ZM499.16667,332.421a34.66171,34.66171,0,0,1-7.65415-.83555l-.17334.862a35.446,35.446,0,0,0,7.82749.85494Zm-21.485-7.68038a44.409,44.409,0,0,1-10.115-12.216l-.71167.45919a45.27543,45.27543,0,0,0,10.31585,12.45308Zm-16.3-27.17749a81.04837,81.04837,0,0,1-1.80583-7.96947l-.81919.16041a81.75618,81.75618,0,0,0,1.82668,8.06025Zm-1.81-7.99062a47.03718,47.03718,0,0,0-2.41083-7.73414l-.76335.35344a46.10742,46.10742,0,0,1,2.36333,7.58341Zm-11.55414-20.71341a38.0584,38.0584,0,0,0-13.60247-7.44857l-.2417.84349a37.22982,37.22982,0,0,1,13.31332,7.28462ZM419.321,258.65446c-2.49333-.18508-5.05-.2697-7.655-.2697v.88138c2.58832,0,5.125.08462,7.59665.268Zm-7.655-.2697h-5.96333v.88138H411.666Zm-17.89,0h-11.9275v.88138H393.776Zm-23.85413,0h-11.9275v.88138h11.9275Zm-23.85413,0h-11.9275v.88138h11.9275Zm-23.85413,0H310.28616v.88138h11.92749Zm-23.85412,0H286.432v.88138h11.9275Zm-23.85413,0H262.5779v.88138h11.9275Zm-23.85413,0h-11.9275v.88138h11.9275Zm-23.85413,0H220.833v.88138h5.96417Zm184.86886.44069v.88138h0Zm47.49992,30.84845.82-.16042-.00418-.02114-.00417-.02117Zm40.00075,44.0692a.88277.88277,0,0,0,0-1.76277Zm-7.56662-2.58863a.83451.83451,0,0,0-.98917.67779.88311.88311,0,0,0,.64081,1.04622Zm-14.685-5.36938a.8048.8048,0,0,0,1.17-.156.91663.91663,0,0,0-.1475-1.2366Zm-8.99332-13.49046a.8073.8073,0,0,0-1.145-.29262.91079.91079,0,0,0-.27664,1.2119Zm-7.73833-14.35423a.82736.82736,0,0,0,1.03669.59317.88955.88955,0,0,0,.56081-1.09557Zm-2.64083-16.27828a.816.816,0,0,0-1.09751-.45393.901.901,0,0,0-.42918,1.1608ZM447.22177,269.878a.80243.80243,0,0,0,1.17334-.11811.91529.91529,0,0,0-.11169-1.24012Zm-12.685-8.88964a.82739.82739,0,0,0-1.04.587.89148.89148,0,0,0,.555,1.1ZM419.23348,259.973a.84891.84891,0,0,0,.88918-.817.86644.86644,0,0,0-.7725-.94131Zm-13.53081-2.02894a.88277.88277,0,0,0,0,1.76276ZM393.776,259.70683a.88277.88277,0,0,0,0-1.76276Zm-11.9275-1.76276a.88277.88277,0,0,0,0,1.76276Zm-11.92663,1.76276a.88277.88277,0,0,0,0-1.76276Zm-11.9275-1.76276a.88277.88277,0,0,0,0,1.76276Zm-11.92663,1.76276a.88277.88277,0,0,0,0-1.76276Zm-11.9275-1.76276a.88277.88277,0,0,0,0,1.76276Zm-11.92663,1.76276a.88277.88277,0,0,0,0-1.76276Zm-11.92749-1.76276a.88276.88276,0,0,0,0,1.76276Zm-11.92663,1.76276a.88277.88277,0,0,0,0-1.76276Zm-11.9275-1.76276a.88277.88277,0,0,0,0,1.76276Zm-11.92663,1.76276a.88277.88277,0,0,0,0-1.76276Zm-11.9275-1.76276a.88277.88277,0,0,0,0,1.76276Zm-11.92663,1.76276a.88277.88277,0,0,0,0-1.76276Zm-11.9275-1.76276a.88277.88277,0,0,0,0,1.76276Zm-11.92663,1.76276a.88277.88277,0,0,0,0-1.76276Zm272.36953,72.2735a34.23465,34.23465,0,0,1-7.56662-.82586l-.34836,1.724a35.827,35.827,0,0,0,7.915.86462Zm-21.22911-7.58784a43.97579,43.97579,0,0,1-10.01581-12.09786l-1.42165.91928a45.72064,45.72064,0,0,0,10.415,12.57118ZM461.78092,297.438a80.83534,80.83534,0,0,1-1.795-7.92452l-1.63915.32083a82.4971,82.4971,0,0,0,1.83664,8.10609Zm-1.80334-7.96683a47.51583,47.51583,0,0,0-2.435-7.809l-1.52669.70687a45.59115,45.59115,0,0,1,2.33917,7.50763Zm-11.69416-20.95138a38.4768,38.4768,0,0,0-13.74662-7.53141l-.485,1.687a36.85814,36.85814,0,0,1,13.17,7.20267Zm-28.93326-10.30513c-2.50417-.186-5.07-.27059-7.68416-.27059v1.76276c2.58,0,5.10665.08374,7.56748.26618Zm-7.68416-.27059h-5.96333v1.76276H411.666Zm-17.89,0h-11.9275v1.76276H393.776Zm-23.85413,0h-11.9275v1.76276h11.9275Zm-23.85413,0h-11.9275v1.76276h11.9275Zm-23.85413,0H310.28616v1.76276h11.92749Zm-23.85412,0H286.432v1.76276h11.9275Zm-23.85413,0H262.5779v1.76276h11.9275Zm-23.85413,0h-11.9275v1.76276h11.9275Zm-23.85413,0H220.833v1.76276h5.96417Z" opacity="0.8" fill="url(#linear-gradient-4)" style="isolation: isolate"></path><path d="M280.83288,223.56921H154.074l-27.74185-.00354c-23.57118,0-42.67976-22.37393-42.67976-46.71336V58.74773C83.65235,28.34,45.765.57636,22.19356.57637H0" fill="none" stroke-linecap="round" stroke-dasharray="15 15" opacity="0.8" stroke="url(#linear-gradient-5)" style="isolation: isolate"></path><path d="M219.16715,223.56921H345.92606l27.74185-.00354c23.57117,0,42.67977-22.37393,42.67977-46.71336V58.74773c0-30.40776,37.8877-58.17137,61.45884-58.17136H500" fill="none" stroke-linecap="round" stroke-dasharray="15 15" opacity="0.8" stroke="url(#linear-gradient-6)" style="isolation: isolate"></path><path d="M277.49955,276.4505H153.92887l-27.79271.00352c-23.6144,0-42.758,22.37395-42.758,46.71336V441.272c0,30.40778-37.95681,58.17138-61.57147,58.17138H0" fill="none" stroke-linecap="round" stroke-dasharray="15 15" opacity="0.8" stroke="url(#linear-gradient-7)" style="isolation: isolate"></path><path d="M222.50048,276.4505H346.07115l27.79272.00352c23.61438,0,42.758,22.37395,42.758,46.71336V441.272c0,30.40778,37.95716,58.17138,61.57152,58.17138H500" fill="none" stroke-linecap="round" stroke-dasharray="15 15" opacity="0.8" stroke="url(#linear-gradient-8)" style="isolation: isolate"></path></svg> 