<?xml version="1.0" encoding="UTF-8"?> <svg xmlns="http://www.w3.org/2000/svg" width="24" height="24" viewBox="0 0 24 24" fill="none"><path d="M3 19C3.13261 19 3.25979 18.9473 3.35355 18.8536C3.44732 18.7598 3.5 18.6326 3.5 18.5C3.5 17.9696 3.71071 17.4609 4.08579 17.0858C4.46086 16.7107 4.96957 16.5 5.5 16.5C5.63261 16.5 5.75979 16.4473 5.85355 16.3536C5.94732 16.2598 6 16.1326 6 16C6 15.8674 5.94732 15.7402 5.85355 15.6464C5.75979 15.5527 5.63261 15.5 5.5 15.5C4.70435 15.5 3.94129 15.8161 3.37868 16.3787C2.81607 16.9413 2.5 17.7044 2.5 18.5C2.5 18.6326 2.55268 18.7598 2.64645 18.8536C2.74021 18.9473 2.86739 19 3 19Z" fill="#FD4404"></path><path d="M18.5 15.5C17.7044 15.5 16.9413 15.8161 16.3787 16.3787C15.8161 16.9413 15.5 17.7044 15.5 18.5C15.5 18.6326 15.5527 18.7598 15.6464 18.8536C15.7402 18.9473 15.8674 19 16 19C16.1326 19 16.2598 18.9473 16.3536 18.8536C16.4473 18.7598 16.5 18.6326 16.5 18.5C16.5 17.9696 16.7107 17.4609 17.0858 17.0858C17.4609 16.7107 17.9696 16.5 18.5 16.5C18.6326 16.5 18.7598 16.4473 18.8536 16.3536C18.9473 16.2598 19 16.1326 19 16C19 15.8674 18.9473 15.7402 18.8536 15.6464C18.7598 15.5527 18.6326 15.5 18.5 15.5Z" fill="#FD4404"></path><path d="M18.336 2.774C18.1773 2.76324 18.0259 2.70335 17.9028 2.60264C17.7797 2.50194 17.691 2.36541 17.649 2.212L17.373 1.427C17.2479 1.02184 16.9988 0.666161 16.6608 0.410136C16.3228 0.154112 15.9129 0.0106556 15.489 0C15.0121 0.0226704 14.5624 0.228543 14.2335 0.574695C13.9047 0.920848 13.7222 1.38056 13.724 1.858L13.579 5.193C13.0663 5.04038 12.5349 4.95994 12 4.954C11.4651 4.95994 10.9337 5.04038 10.421 5.193L10.276 1.858C10.2778 1.38056 10.0953 0.920848 9.76647 0.574695C9.43765 0.228543 8.9879 0.0226704 8.511 0C8.0871 0.0106556 7.67724 0.154112 7.33922 0.410136C7.0012 0.666161 6.75209 1.02184 6.627 1.427L6.351 2.212C6.30901 2.36541 6.2203 2.50194 6.09719 2.60264C5.97409 2.70335 5.82269 2.76324 5.664 2.774C5.36495 2.77827 5.07228 2.86108 4.81533 3.01412C4.55838 3.16717 4.34618 3.38508 4.2 3.646C1.54722 8.15432 0.100731 13.2701 0 18.5C0 19.9587 0.579463 21.3576 1.61091 22.3891C2.64236 23.4205 4.04131 24 5.5 24C6.95869 24 8.35764 23.4205 9.38909 22.3891C10.4205 21.3576 11 19.9587 11 18.5V18.478L10.607 9.478C10.6057 9.41193 10.5909 9.34682 10.5637 9.2866C10.5365 9.22638 10.4974 9.1723 10.4487 9.12762C10.4 9.08295 10.3427 9.0486 10.2804 9.02667C10.2181 9.00473 10.1519 8.99566 10.086 9C10.0203 9.00283 9.95584 9.01858 9.89625 9.04635C9.83666 9.07413 9.78314 9.11338 9.73874 9.16187C9.69434 9.21035 9.65994 9.26712 9.63751 9.32891C9.61507 9.39071 9.60505 9.45632 9.608 9.522L9.854 15.152C9.35174 14.4955 8.70767 13.961 7.96988 13.5884C7.23208 13.2158 6.41964 13.0146 5.59321 13C4.76679 12.9854 3.94774 13.1577 3.19723 13.504C2.44672 13.8503 1.78415 14.3617 1.259 15C1.83966 11.1794 3.1284 7.50071 5.059 4.153C5.11647 4.04218 5.20226 3.94854 5.30764 3.88162C5.41303 3.8147 5.53426 3.77688 5.659 3.772C6.02529 3.76354 6.37968 3.64027 6.67214 3.41958C6.9646 3.19888 7.18037 2.89192 7.289 2.542L7.565 1.757C7.6241 1.54795 7.74705 1.3626 7.91667 1.22687C8.08628 1.09114 8.29408 1.01182 8.511 1C8.72912 1.02464 8.92968 1.13139 9.07195 1.29854C9.21422 1.4657 9.28753 1.68075 9.277 1.9L9.437 5.574C8.68024 5.92097 8.03536 6.4723 7.57495 7.16591C7.11454 7.85953 6.85689 8.66789 6.831 9.5C6.831 9.63261 6.88368 9.75979 6.97745 9.85355C7.07121 9.94732 7.19839 10 7.331 10C7.46361 10 7.59079 9.94732 7.68455 9.85355C7.77832 9.75979 7.831 9.63261 7.831 9.5C7.831 7.544 9.7 5.954 12 5.954C14.3 5.954 16.169 7.544 16.169 9.5C16.169 9.63261 16.2217 9.75979 16.3154 9.85355C16.4092 9.94732 16.5364 10 16.669 10C16.8016 10 16.9288 9.94732 17.0226 9.85355C17.1163 9.75979 17.169 9.63261 17.169 9.5C17.1425 8.66829 16.8846 7.86045 16.4242 7.16726C15.9639 6.47408 15.3193 5.92301 14.563 5.576L14.723 1.902C14.7125 1.68275 14.7858 1.4677 14.928 1.30054C15.0703 1.13339 15.2709 1.02664 15.489 1.002C15.7053 1.01497 15.9122 1.09504 16.0808 1.23108C16.2495 1.36712 16.3715 1.55235 16.43 1.761L16.706 2.546C16.8146 2.89592 17.0304 3.20288 17.3229 3.42358C17.6153 3.64427 17.9697 3.76754 18.336 3.776C18.4607 3.78088 18.582 3.8187 18.6874 3.88562C18.7927 3.95254 18.8785 4.04618 18.936 4.157C20.8679 7.50313 22.1583 11.1804 22.741 15C22.216 14.3616 21.5535 13.8501 20.8031 13.5036C20.0527 13.1571 19.2337 12.9846 18.4073 12.999C17.5808 13.0135 16.7684 13.2144 16.0305 13.5869C15.2926 13.9593 14.6484 14.4937 14.146 15.15L14.392 9.52C14.3978 9.38739 14.3508 9.2579 14.2611 9.16C14.2167 9.11153 14.1632 9.07228 14.1037 9.04448C14.0441 9.01668 13.9797 9.00089 13.914 8.998C13.7814 8.99217 13.6519 9.03925 13.554 9.12889C13.4561 9.21853 13.3978 9.34339 13.392 9.476L12.999 18.476V18.5C12.999 19.9587 13.5785 21.3576 14.6099 22.3891C15.6414 23.4205 17.0403 24 18.499 24C19.9577 24 21.3566 23.4205 22.3881 22.3891C23.4195 21.3576 23.999 19.9587 23.999 18.5C23.8986 13.2702 22.4524 8.15442 19.8 3.646C19.6538 3.38508 19.4416 3.16717 19.1847 3.01412C18.9277 2.86108 18.635 2.77827 18.336 2.774ZM5.5 14C6.69209 14 7.83547 14.473 8.67915 15.3152C9.52284 16.1574 9.99788 17.2999 10 18.492V18.5C10 19.39 9.73608 20.26 9.24161 21.0001C8.74715 21.7401 8.04434 22.3169 7.22207 22.6575C6.39981 22.9981 5.49501 23.0872 4.62209 22.9135C3.74918 22.7399 2.94736 22.3113 2.31802 21.682C1.68868 21.0526 1.2601 20.2508 1.08647 19.3779C0.912833 18.505 1.00195 17.6002 1.34254 16.7779C1.68314 15.9557 2.25991 15.2529 2.99993 14.7584C3.73995 14.2639 4.60998 14 5.5 14ZM18.5 23C17.307 22.9984 16.1633 22.5238 15.3198 21.6802C14.4762 20.8367 14.0016 19.693 14 18.5V18.489C14.0022 17.5995 14.2679 16.7305 14.7637 15.9919C15.2595 15.2534 15.9631 14.6783 16.7855 14.3394C17.608 14.0005 18.5124 13.9129 19.3846 14.0878C20.2568 14.2627 21.0576 14.6921 21.6858 15.3219C22.3141 15.9517 22.7416 16.7535 22.9143 17.6261C23.0871 18.4987 22.9973 19.403 22.6564 20.2246C22.3155 21.0462 21.7387 21.7484 20.9989 22.2424C20.2591 22.7364 19.3895 23 18.5 23Z" fill="#FD4404"></path></svg> 