<?xml version="1.0" encoding="UTF-8"?> <svg xmlns="http://www.w3.org/2000/svg" width="24" height="24" viewBox="0 0 24 24" fill="none"><path d="M20.0028 0.01671C19.0441 0.0195362 18.1185 0.367045 17.3952 0.995706C16.6718 1.62437 16.1991 2.49218 16.0633 3.44051H14.2925C13.5355 3.44121 12.8096 3.74203 12.2744 4.27695C11.7391 4.81187 11.438 5.53718 11.4373 6.29367V17.7063C11.4368 18.1602 11.2562 18.5953 10.935 18.9163C10.6139 19.2372 10.1784 19.4177 9.72424 19.4182H7.95343C7.80906 18.4187 7.2912 17.5109 6.50406 16.8776C5.71692 16.2443 4.71894 15.9324 3.71096 16.0047C2.70298 16.077 1.75982 16.5282 1.0713 17.2674C0.382779 18.0066 0 18.979 0 19.9889C0 20.9987 0.382779 21.9711 1.0713 22.7103C1.75982 23.4495 2.70298 23.9007 3.71096 23.973C4.71894 24.0454 5.71692 23.7335 6.50406 23.1001C7.2912 22.4668 7.80906 21.559 7.95343 20.5595H9.72424C10.4813 20.5588 11.2071 20.258 11.7424 19.723C12.2777 19.1881 12.5787 18.4628 12.5794 17.7063V6.29367C12.5799 5.8398 12.7605 5.40466 13.0817 5.08372C13.4028 4.76279 13.8383 4.58227 14.2925 4.58177H16.0633C16.1742 5.33781 16.5002 6.04606 17.0025 6.62219C17.5048 7.19833 18.1622 7.61808 18.8965 7.83146C19.6307 8.04485 20.4108 8.04288 21.144 7.82578C21.8771 7.60869 22.5324 7.18563 23.0317 6.60696C23.5311 6.02829 23.8536 5.3184 23.9607 4.56182C24.0678 3.80523 23.955 3.03382 23.6359 2.33944C23.3167 1.64506 22.8046 1.05696 22.1605 0.645161C21.5164 0.233366 20.7674 0.0152244 20.0028 0.01671ZM4.01393 22.842C3.44924 22.842 2.89722 22.6747 2.4277 22.3612C1.95817 22.0477 1.59222 21.6021 1.37612 21.0807C1.16002 20.5594 1.10348 19.9857 1.21364 19.4322C1.32381 18.8788 1.59574 18.3704 1.99504 17.9714C2.39434 17.5723 2.90308 17.3006 3.45692 17.1905C4.01077 17.0804 4.58484 17.1369 5.10655 17.3529C5.62826 17.5688 6.07418 17.9345 6.38791 18.4037C6.70163 18.8729 6.86908 19.4246 6.86908 19.9889C6.86839 20.7454 6.56735 21.4707 6.03206 22.0056C5.49677 22.5405 4.77095 22.8413 4.01393 22.842ZM20.0028 6.8643C19.4381 6.8643 18.8861 6.69697 18.4165 6.38346C17.947 6.06995 17.5811 5.62435 17.365 5.103C17.1489 4.58165 17.0923 4.00798 17.2025 3.45452C17.3127 2.90106 17.5846 2.39267 17.9839 1.99365C18.3832 1.59463 18.8919 1.32289 19.4458 1.2128C19.9996 1.10271 20.5737 1.15921 21.0954 1.37516C21.6171 1.59111 22.063 1.95681 22.3768 2.42601C22.6905 2.89521 22.8579 3.44684 22.8579 4.01114C22.8572 4.76763 22.5562 5.49294 22.0209 6.02786C21.4856 6.56278 20.7598 6.86361 20.0028 6.8643ZM20.5738 16.0521V14.2825C20.5731 13.526 20.2721 12.8007 19.7368 12.2658C19.2015 11.7309 18.4757 11.4301 17.7187 11.4294H14.2925V12.5706H17.7187C18.1728 12.5711 18.6083 12.7516 18.9294 13.0726C19.2506 13.3935 19.4313 13.8287 19.4317 14.2825V16.0521C18.4315 16.1964 17.5231 16.7139 16.8894 17.5005C16.2556 18.2871 15.9435 19.2843 16.0158 20.2916C16.0882 21.2989 16.5397 22.2414 17.2794 22.9294C18.0191 23.6175 18.9922 24 20.0028 24C21.0134 24 21.9864 23.6175 22.7262 22.9294C23.4659 22.2414 23.9174 21.2989 23.9897 20.2916C24.0621 19.2843 23.75 18.2871 23.1162 17.5005C22.4824 16.7139 21.574 16.1964 20.5738 16.0521ZM20.0028 22.842C19.4381 22.842 18.8861 22.6747 18.4165 22.3612C17.947 22.0477 17.5811 21.6021 17.365 21.0807C17.1489 20.5594 17.0923 19.9857 17.2025 19.4322C17.3127 18.8788 17.5846 18.3704 17.9839 17.9714C18.3832 17.5723 18.8919 17.3006 19.4458 17.1905C19.9996 17.0804 20.5737 17.1369 21.0954 17.3529C21.6171 17.5688 22.063 17.9345 22.3768 18.4037C22.6905 18.8729 22.8579 19.4246 22.8579 19.9889C22.8572 20.7454 22.5562 21.4707 22.0209 22.0056C21.4856 22.5405 20.7598 22.8413 20.0028 22.842ZM3.4429 7.94789V9.71747C3.4436 10.474 3.74464 11.1993 4.27993 11.7342C4.81522 12.2691 5.54104 12.5699 6.29805 12.5706H9.72424V11.4294H6.29805C5.84387 11.4289 5.40842 11.2484 5.08726 10.9274C4.7661 10.6065 4.58546 10.1713 4.58496 9.71747V7.94789C5.58517 7.80362 6.49358 7.28612 7.12736 6.49953C7.76114 5.71294 8.07325 4.71566 8.00088 3.70838C7.92851 2.7011 7.47703 1.7586 6.7373 1.07056C5.99758 0.382512 5.02451 0 4.01393 0C3.00336 0 2.03029 0.382512 1.29056 1.07056C0.550834 1.7586 0.0993541 2.7011 0.0269843 3.70838C-0.0453854 4.71566 0.266727 5.71294 0.900508 6.49953C1.53429 7.28612 2.44269 7.80362 3.4429 7.94789ZM4.01393 1.15798C4.57863 1.15798 5.13064 1.32531 5.60017 1.63882C6.0697 1.95233 6.43565 2.39793 6.65175 2.91928C6.86785 3.44063 6.92439 4.01431 6.81422 4.56776C6.70406 5.12122 6.43213 5.62961 6.03283 6.02863C5.63353 6.42765 5.12479 6.69939 4.57095 6.80948C4.0171 6.91957 3.44303 6.86307 2.92131 6.64712C2.3996 6.43117 1.95369 6.06547 1.63996 5.59627C1.32623 5.12707 1.15878 4.57544 1.15878 4.01114C1.15948 3.25465 1.46051 2.52934 1.99581 1.99442C2.5311 1.4595 3.25691 1.15867 4.01393 1.15798Z" fill="#FD4404"></path></svg> 