<?xml version="1.0" encoding="UTF-8"?> <svg xmlns="http://www.w3.org/2000/svg" width="24" height="24" viewBox="0 0 24 24" fill="none"><path d="M17.9222 15.4286C17.4702 15.4286 17.0283 15.5626 16.6524 15.8138C16.2765 16.0649 15.9835 16.4219 15.8105 16.8396C15.6375 17.2572 15.5923 17.7168 15.6804 18.1602C15.7686 18.6036 15.9863 19.0109 16.306 19.3305C16.6257 19.6502 17.0329 19.8679 17.4763 19.9561C17.9197 20.0443 18.3793 19.999 18.7969 19.826C19.2146 19.653 19.5716 19.36 19.8227 18.9842C20.0739 18.6083 20.208 18.1664 20.208 17.7143C20.2072 17.1083 19.9661 16.5274 19.5376 16.0989C19.1091 15.6704 18.5282 15.4294 17.9222 15.4286ZM17.9222 18.8571C17.6962 18.8571 17.4752 18.7901 17.2873 18.6645C17.0994 18.539 16.9529 18.3605 16.8664 18.1516C16.7799 17.9428 16.7572 17.713 16.8013 17.4913C16.8454 17.2696 16.9543 17.066 17.1141 16.9062C17.274 16.7463 17.4776 16.6375 17.6993 16.5934C17.921 16.5493 18.1508 16.5719 18.3596 16.6584C18.5684 16.7449 18.7469 16.8914 18.8725 17.0793C18.9981 17.2673 19.0651 17.4883 19.0651 17.7143C19.0649 18.0173 18.9444 18.3079 18.7301 18.5222C18.5159 18.7365 18.2253 18.8569 17.9222 18.8571ZM23.9602 16.4498C23.9995 16.3048 24.0096 16.1535 23.9898 16.0046C23.9701 15.8558 23.9209 15.7123 23.8452 15.5826L22.7303 13.6496C22.5782 13.3876 22.3285 13.1965 22.0358 13.1183C21.7432 13.04 21.4314 13.081 21.1689 13.2321L20.208 13.7422V12.5714C20.2078 12.2684 20.0873 11.9778 19.873 11.7635C19.6587 11.5492 19.3681 11.4288 19.0651 11.4286H16.7794C16.4763 11.4288 16.1858 11.5492 15.9715 11.7635C15.7572 11.9778 15.6367 12.2684 15.6365 12.5714L15.6254 13.7801L14.6756 13.231C14.4129 13.0805 14.1013 13.0402 13.8089 13.1188C13.5165 13.1974 13.2671 13.3887 13.1154 13.6507L11.9982 15.5837C11.8477 15.8464 11.8073 16.1581 11.886 16.4505C11.9646 16.7428 12.1558 16.9922 12.4178 17.144L13.3531 17.7444L12.4167 18.2846C12.1549 18.4368 11.964 18.6865 11.8857 18.9791C11.8075 19.2717 11.8483 19.5834 11.9993 19.846L13.1143 21.7768C13.1893 21.907 13.2892 22.0211 13.4084 22.1126C13.5275 22.2041 13.6635 22.2713 13.8086 22.3103C13.9537 22.3492 14.105 22.3593 14.254 22.3397C14.403 22.3202 14.5466 22.2715 14.6768 22.1964L15.6366 21.6563V22.8571C15.6368 23.1602 15.7573 23.4508 15.9715 23.665C16.1858 23.8793 16.4764 23.9998 16.7794 24H19.0652C19.3682 23.9998 19.6588 23.8793 19.8731 23.665C20.0873 23.4508 20.2078 23.1602 20.208 22.8571L20.2169 21.6641L20.2315 21.6551L21.1701 22.1975C21.433 22.3472 21.7443 22.3871 22.0365 22.3085C22.3286 22.2299 22.578 22.0392 22.7303 21.7779L23.8453 19.8471C23.9971 19.5846 24.0385 19.2726 23.9604 18.9797C23.8824 18.6867 23.6912 18.4367 23.4289 18.2846L22.5014 17.6786L23.4289 17.144C23.5589 17.0691 23.6728 16.9692 23.764 16.8501C23.8552 16.7309 23.9219 16.5949 23.9602 16.4498ZM21.93 16.6898C21.7508 16.7941 21.602 16.9436 21.4986 17.1234C21.3951 17.3031 21.3407 17.5069 21.3407 17.7143C21.3407 17.9218 21.3951 18.1255 21.4986 18.3053C21.602 18.4851 21.7508 18.6346 21.93 18.7389L22.8564 19.2735L21.7403 21.2077L20.7917 20.6597C20.6233 20.5614 20.432 20.5092 20.237 20.5085C20.0421 20.5077 19.8503 20.5583 19.6812 20.6552L19.6399 20.6775C19.4663 20.7756 19.3218 20.9177 19.2208 21.0896C19.1199 21.2615 19.0662 21.457 19.0651 21.6563V22.8571H16.7794V21.6563C16.7781 21.455 16.7232 21.2578 16.6205 21.0848C16.5177 20.9118 16.3707 20.7692 16.1946 20.6719C16.0159 20.568 15.8131 20.5129 15.6064 20.5123C15.4124 20.5116 15.2218 20.5625 15.0539 20.6596L14.1042 21.2065L12.9893 19.2734L13.9223 18.7344C14.097 18.6278 14.2414 18.4781 14.3416 18.2997C14.4419 18.1213 14.4946 17.9201 14.4949 17.7155C14.4951 17.5108 14.4428 17.3096 14.3429 17.1309C14.2431 16.9523 14.099 16.8023 13.9246 16.6953L12.9882 16.154L14.1054 14.221L15.0518 14.7679C15.2279 14.8671 15.4271 14.918 15.6293 14.9152C15.8314 14.9125 16.0292 14.8562 16.2025 14.7522C16.3768 14.6545 16.522 14.5124 16.6234 14.3402C16.7247 14.1681 16.7786 13.9721 16.7795 13.7723V12.5714H19.0652V13.7723C19.0663 13.9718 19.1201 14.1674 19.2213 14.3393C19.3224 14.5112 19.4673 14.6533 19.6411 14.7511L19.6511 14.7567C19.8231 14.8597 20.0194 14.915 20.2198 14.9172C20.4202 14.9194 20.6176 14.8682 20.7917 14.769L21.7415 14.2221L22.8564 16.1551L21.93 16.6898ZM9.71353 6.64286C9.03741 6.64286 8.37648 6.84335 7.8143 7.21898C7.25213 7.59462 6.81397 8.12852 6.55523 8.75317C6.29649 9.37782 6.22879 10.0652 6.36069 10.7283C6.4926 11.3914 6.81818 12.0006 7.29627 12.4786C7.77436 12.9567 8.38348 13.2823 9.04661 13.4142C9.70974 13.5461 10.3971 13.4784 11.0217 13.2197C11.6464 12.9609 12.1803 12.5228 12.5559 11.9606C12.9316 11.3984 13.1321 10.7375 13.1321 10.0614C13.1311 9.15504 12.7706 8.28611 12.1297 7.64523C11.4888 7.00435 10.6199 6.64386 9.71353 6.64286ZM9.71353 12.3371C9.26345 12.3371 8.82347 12.2036 8.44924 11.9535C8.07501 11.7035 7.78333 11.3481 7.61109 10.9322C7.43885 10.5164 7.39378 10.0589 7.48159 9.61742C7.5694 9.17599 7.78614 8.7705 8.10439 8.45224C8.42265 8.13398 8.82814 7.91725 9.26957 7.82944C9.71101 7.74163 10.1686 7.7867 10.5844 7.95894C11.0002 8.13118 11.3556 8.42286 11.6057 8.79709C11.8557 9.17132 11.9892 9.6113 11.9892 10.0614C11.9884 10.6647 11.7484 11.243 11.3218 11.6696C10.8952 12.0962 10.3168 12.3363 9.71353 12.3371ZM2.05617 16.6228L0.203488 13.4129C0.00232816 13.0637 -0.0521263 12.6489 0.0520643 12.2596C0.156255 11.8702 0.410587 11.5381 0.759293 11.336L2.31398 10.4387C2.37481 10.3984 2.42402 10.3429 2.45672 10.2777C2.48943 10.2125 2.50447 10.1398 2.50037 10.067C2.50579 9.99244 2.4914 9.91775 2.45867 9.85052C2.42594 9.78329 2.37602 9.7259 2.31398 9.68416L0.759293 8.78683C0.410446 8.58513 0.155949 8.25318 0.0517297 7.86392C-0.0524899 7.47467 0.00209441 7.05997 0.203488 6.71094L2.05617 3.50112C2.25797 3.1524 2.58975 2.89786 2.97884 2.79327C3.36793 2.68867 3.78261 2.74255 4.13206 2.94309L5.70907 3.85379C5.76779 3.8831 5.83312 3.89665 5.89866 3.89313C5.9642 3.88961 6.0277 3.86913 6.08295 3.8337L6.09524 3.8259C6.15287 3.7963 6.20168 3.75204 6.23675 3.69756C6.27183 3.64309 6.29192 3.58034 6.29501 3.51562V1.52009C6.29547 1.11708 6.45577 0.730705 6.74074 0.445732C7.02571 0.160759 7.41209 0.00045977 7.8151 0H11.612C12.015 0.00045977 12.4014 0.160759 12.6863 0.445732C12.9713 0.730705 13.1316 1.11708 13.1321 1.52009V3.51562C13.1353 3.58016 13.1553 3.64274 13.1902 3.69716C13.225 3.75158 13.2735 3.79596 13.3307 3.8259C13.3463 3.83482 13.362 3.84375 13.3754 3.85267C13.4278 3.88089 13.4864 3.89576 13.546 3.89596C13.6055 3.89615 13.6642 3.88168 13.7169 3.85382L15.2939 2.94422C15.6434 2.74386 16.0581 2.68997 16.4473 2.79432C16.8364 2.89867 17.1685 3.15278 17.3709 3.50114L19.2236 6.71096C19.425 7.05999 19.4795 7.47469 19.3753 7.86394C19.2711 8.25319 19.0166 8.58513 18.6677 8.78683L17.1298 9.6741C17.1129 9.68388 17.105 9.7025 17.0898 9.71429H15.8309C15.8736 9.50146 15.9603 9.29992 16.0856 9.12269C16.2109 8.94545 16.372 8.79644 16.5584 8.68527L18.0963 7.79799C18.1828 7.74768 18.2458 7.66526 18.2717 7.56868C18.2977 7.4721 18.2844 7.36919 18.2347 7.28237L16.382 4.07255C16.3573 4.0293 16.3242 3.99139 16.2847 3.961C16.2452 3.9306 16.2001 3.90833 16.1519 3.89546C16.1038 3.8826 16.0536 3.87939 16.0042 3.88603C15.9548 3.89267 15.9072 3.90902 15.8642 3.93415L14.2895 4.84263C14.0552 4.96886 13.7926 5.03309 13.5265 5.02923C13.2604 5.02537 12.9998 4.95355 12.7693 4.82058C12.5388 4.68761 12.3461 4.49791 12.2096 4.26951C12.0731 4.04111 11.9972 3.7816 11.9892 3.51562V1.52009C11.989 1.42012 11.9491 1.32431 11.8785 1.25362C11.8078 1.18293 11.7119 1.1431 11.612 1.14286H7.8151C7.71513 1.14311 7.61933 1.18294 7.54864 1.25363C7.47795 1.32432 7.43812 1.42012 7.43787 1.52009V3.51562C7.43617 3.78169 7.36362 4.04249 7.22768 4.27121C7.09174 4.49993 6.89732 4.68831 6.66443 4.81696C6.64768 4.82701 6.62983 4.83594 6.61197 4.84487C6.38643 4.97086 6.1323 5.03682 5.87396 5.03642C5.61561 5.03602 5.36169 4.96927 5.13654 4.84258L3.56175 3.93304C3.47453 3.88388 3.37149 3.87096 3.27483 3.89705C3.17817 3.92315 3.09564 3.98617 3.04501 4.07255L1.19232 7.28237C1.1427 7.36919 1.12941 7.4721 1.15533 7.56868C1.18125 7.66526 1.24429 7.74768 1.33071 7.79799L2.8854 8.69532C3.11727 8.83999 3.3085 9.0413 3.44108 9.28029C3.57366 9.51928 3.64322 9.78808 3.64322 10.0614C3.64322 10.3347 3.57366 10.6035 3.44108 10.8425C3.3085 11.0815 3.11727 11.2828 2.8854 11.4275L1.33071 12.3248C1.2442 12.3753 1.18112 12.4579 1.15521 12.5547C1.12929 12.6514 1.14263 12.7545 1.19232 12.8415L3.04501 16.0513C3.0958 16.1375 3.17842 16.2004 3.27507 16.2262C3.37172 16.2521 3.47467 16.239 3.56175 16.1897L5.13764 15.2801C5.36847 15.1475 5.6307 15.0792 5.89693 15.0826C6.16316 15.0859 6.4236 15.1607 6.65103 15.2991C6.66667 15.308 6.68229 15.317 6.69568 15.3259C6.91987 15.4568 7.10617 15.6437 7.23629 15.8683C7.36641 16.093 7.43587 16.3476 7.43787 16.6071V18.6027C7.43812 18.7026 7.47795 18.7984 7.54864 18.8691C7.61933 18.9398 7.71513 18.9797 7.8151 18.9799H9.71347V20.1228H7.8151C7.41209 20.1223 7.02571 19.962 6.74074 19.677C6.45577 19.3921 6.29547 19.0057 6.29501 18.6027V16.6071C6.29192 16.5423 6.2717 16.4794 6.23641 16.4249C6.20112 16.3704 6.15202 16.3262 6.09412 16.2969C6.03832 16.2587 5.97338 16.2359 5.90592 16.231C5.83847 16.2261 5.77092 16.2392 5.71019 16.269L4.13318 17.1786C3.78404 17.3803 3.36908 17.435 2.97957 17.3308C2.59007 17.2266 2.25791 16.9719 2.05617 16.6228Z" fill="#FD4404"></path></svg> 