<?xml version="1.0" encoding="UTF-8"?> <svg xmlns="http://www.w3.org/2000/svg" width="27" height="24" viewBox="0 0 27 24" fill="none"><path d="M3.86171e-05 19.5673C-0.00350322 20.4142 0.236658 21.2442 0.691873 21.9584C1.14709 22.6726 1.79814 23.2407 2.56736 23.5951C3.33658 23.9494 4.1915 24.075 5.03013 23.9568C5.86876 23.8387 6.65569 23.4817 7.29706 22.9287C7.93842 22.3756 8.40714 21.6496 8.6473 20.8375C8.88746 20.0254 8.88892 19.1613 8.65151 18.3483C8.41409 17.5354 7.94783 16.8079 7.30834 16.2526C6.66884 15.6973 5.88312 15.3378 5.0449 15.2168V8.78322C6.14946 8.62379 7.15264 8.0519 7.85254 7.18264C8.55245 6.31338 8.89712 5.21128 8.8172 4.09813C8.73728 2.98499 8.2387 1.94343 7.4218 1.18307C6.60489 0.422715 5.5303 0 4.41429 0C3.29828 0 2.22369 0.422715 1.40678 1.18307C0.589876 1.94343 0.0912923 2.98499 0.011372 4.09813C-0.0685482 5.21128 0.276127 6.31338 0.976032 7.18264C1.67594 8.0519 2.67912 8.62379 3.78368 8.78322V15.2168C2.73569 15.3667 1.77666 15.8888 1.08193 16.6876C0.387194 17.4865 0.00316189 18.5086 3.86171e-05 19.5673ZM1.26125 4.43272C1.26125 3.8091 1.44618 3.1995 1.79264 2.68098C2.1391 2.16247 2.63153 1.75834 3.20767 1.51969C3.78382 1.28104 4.41779 1.2186 5.02942 1.34026C5.64104 1.46193 6.20286 1.76222 6.64382 2.20318C7.08478 2.64414 7.38508 3.20596 7.50674 3.81759C7.6284 4.42922 7.56596 5.06319 7.32731 5.63933C7.08867 6.21547 6.68454 6.70791 6.16602 7.05437C5.64751 7.40083 5.0379 7.58575 4.41429 7.58575C3.57835 7.58477 2.77694 7.25226 2.18584 6.66116C1.59474 6.07007 1.26223 5.26865 1.26125 4.43272ZM4.41429 16.4142C5.0379 16.4142 5.64751 16.5992 6.16602 16.9456C6.68454 17.2921 7.08867 17.7845 7.32731 18.3607C7.56596 18.9368 7.6284 19.5708 7.50674 20.1824C7.38508 20.794 7.08478 21.3559 6.64382 21.7968C6.20286 22.2378 5.64104 22.5381 5.02942 22.6597C4.41779 22.7814 3.78382 22.719 3.20767 22.4803C2.63153 22.2417 2.1391 21.8375 1.79264 21.319C1.44618 20.8005 1.26125 20.1909 1.26125 19.5673C1.26223 18.7313 1.59474 17.9299 2.18584 17.3388C2.77694 16.7477 3.57835 16.4152 4.41429 16.4142ZM22.7019 15.2168V6.95514C22.701 6.11918 22.3685 5.3177 21.7774 4.72658C21.1863 4.13546 20.3848 3.80299 19.5489 3.80211H16.0263L18.7335 1.09494C18.8483 0.976004 18.9119 0.816711 18.9105 0.651368C18.909 0.486025 18.8427 0.327861 18.7258 0.210941C18.6089 0.0940213 18.4507 0.0277009 18.2854 0.0262641C18.12 0.0248273 17.9607 0.0883889 17.8418 0.203259L14.0582 3.9869C13.9996 4.04544 13.9531 4.11495 13.9214 4.19144C13.8897 4.26794 13.8734 4.34994 13.8734 4.43274C13.8734 4.51555 13.8897 4.59754 13.9214 4.67404C13.9531 4.75054 13.9996 4.82004 14.0582 4.87858L17.8418 8.66222C17.9607 8.77709 18.12 8.84066 18.2854 8.83922C18.4507 8.83778 18.6089 8.77146 18.7258 8.65454C18.8427 8.53762 18.909 8.37946 18.9105 8.21411C18.9119 8.04877 18.8483 7.88948 18.7335 7.77054L16.0263 5.06332H19.5489C20.0504 5.06387 20.5313 5.26336 20.886 5.61803C21.2406 5.9727 21.4401 6.45357 21.4407 6.95514V15.2168C20.3361 15.3762 19.3329 15.9481 18.633 16.8174C17.9331 17.6866 17.5885 18.7887 17.6684 19.9019C17.7483 21.015 18.2469 22.0566 19.0638 22.8169C19.8807 23.5773 20.9553 24 22.0713 24C23.1873 24 24.2619 23.5773 25.0788 22.8169C25.8957 22.0566 26.3943 21.015 26.4742 19.9019C26.5541 18.7887 26.2094 17.6866 25.5095 16.8174C24.8096 15.9481 23.8065 15.3762 22.7019 15.2168ZM22.0713 22.7203C21.4477 22.7203 20.8381 22.5354 20.3196 22.1889C19.801 21.8425 19.3969 21.35 19.1583 20.7739C18.9196 20.1978 18.8572 19.5638 18.9788 18.9522C19.1005 18.3405 19.4008 17.7787 19.8418 17.3378C20.2827 16.8968 20.8445 16.5965 21.4562 16.4748C22.0678 16.3532 22.7018 16.4156 23.2779 16.6543C23.854 16.8929 24.3465 17.297 24.6929 17.8156C25.0394 18.3341 25.2243 18.9437 25.2243 19.5673C25.2234 20.4033 24.891 21.2047 24.2999 21.7958C23.7087 22.387 22.9073 22.7194 22.0713 22.7203Z" fill="#FD4404"></path></svg> 