<?xml version="1.0" encoding="UTF-8"?> <svg xmlns="http://www.w3.org/2000/svg" width="27" height="24" viewBox="0 0 27 24" fill="none"><path d="M3.78365 8.78322V17.0449C3.78463 17.8808 4.11714 18.6822 4.70824 19.2733C5.29933 19.8644 6.10075 20.1969 6.93669 20.1979H10.4593L7.75204 22.9051C7.69181 22.9632 7.64376 23.0328 7.61072 23.1098C7.57767 23.1867 7.56027 23.2694 7.55954 23.3532C7.55882 23.4369 7.57477 23.5199 7.60648 23.5974C7.63819 23.6749 7.68501 23.7453 7.74422 23.8046C7.80343 23.8638 7.87384 23.9106 7.95134 23.9423C8.02884 23.974 8.11187 23.99 8.19561 23.9892C8.27934 23.9885 8.36209 23.9711 8.43902 23.9381C8.51596 23.905 8.58554 23.857 8.64371 23.7967L12.4274 20.0131C12.4859 19.9546 12.5324 19.8851 12.5641 19.8086C12.5958 19.7321 12.6121 19.6501 12.6121 19.5673C12.6121 19.4845 12.5958 19.4025 12.5641 19.326C12.5324 19.2495 12.4859 19.18 12.4274 19.1214L8.64371 15.3378C8.52478 15.2229 8.36549 15.1593 8.20014 15.1608C8.0348 15.1622 7.87664 15.2285 7.75972 15.3455C7.6428 15.4624 7.57648 15.6205 7.57504 15.7859C7.5736 15.9512 7.63717 16.1105 7.75204 16.2295L10.4593 18.9367H6.93669C6.43511 18.9361 5.95424 18.7366 5.59957 18.382C5.2449 18.0273 5.04541 17.5464 5.04486 17.0449V8.78322C6.14943 8.62379 7.15261 8.0519 7.85251 7.18264C8.55242 6.31338 8.89709 5.21128 8.81717 4.09813C8.73725 2.98499 8.23867 1.94343 7.42176 1.18307C6.60486 0.422715 5.53027 0 4.41426 0C3.29825 0 2.22366 0.422715 1.40675 1.18307C0.589845 1.94343 0.0912611 2.98499 0.0113408 4.09813C-0.0685794 5.21128 0.276096 6.31338 0.976001 7.18264C1.67591 8.0519 2.67909 8.62379 3.78365 8.78322ZM4.41426 1.27968C5.03787 1.27968 5.64748 1.4646 6.16599 1.81106C6.6845 2.15752 7.08864 2.64996 7.32728 3.2261C7.56593 3.80224 7.62837 4.43621 7.50671 5.04784C7.38505 5.65947 7.08475 6.22129 6.64379 6.66225C6.20283 7.10321 5.64101 7.40351 5.02938 7.52517C4.41776 7.64683 3.78379 7.58439 3.20764 7.34574C2.6315 7.1071 2.13906 6.70296 1.7926 6.18445C1.44614 5.66593 1.26122 5.05633 1.26122 4.43272C1.2622 3.59678 1.59471 2.79536 2.18581 2.20427C2.7769 1.61317 3.57832 1.28066 4.41426 1.27968ZM22.7019 15.2168V6.95514C22.7009 6.11921 22.3684 5.31779 21.7773 4.7267C21.1862 4.1356 20.3848 3.80309 19.5488 3.80211H16.0263L18.7334 1.09494C18.8483 0.976004 18.9119 0.816711 18.9104 0.651368C18.909 0.486025 18.8427 0.327861 18.7258 0.210941C18.6088 0.0940213 18.4507 0.0277009 18.2853 0.0262641C18.12 0.0248273 17.9607 0.0883889 17.8418 0.203259L14.0581 3.9869C13.9996 4.04544 13.9531 4.11495 13.9214 4.19144C13.8897 4.26794 13.8734 4.34994 13.8734 4.43274C13.8734 4.51555 13.8897 4.59754 13.9214 4.67404C13.9531 4.75054 13.9996 4.82004 14.0581 4.87858L17.8418 8.66222C17.9607 8.77709 18.12 8.84066 18.2853 8.83922C18.4507 8.83778 18.6088 8.77146 18.7258 8.65454C18.8427 8.53762 18.909 8.37946 18.9104 8.21411C18.9119 8.04877 18.8483 7.88948 18.7334 7.77054L16.0263 5.06332H19.5488C20.0504 5.06387 20.5313 5.26336 20.8859 5.61803C21.2406 5.9727 21.4401 6.45357 21.4406 6.95514V15.2168C20.3361 15.3762 19.3329 15.9481 18.633 16.8174C17.9331 17.6866 17.5884 18.7887 17.6683 19.9019C17.7483 21.015 18.2468 22.0566 19.0638 22.8169C19.8807 23.5773 20.9552 24 22.0713 24C23.1873 24 24.2619 23.5773 25.0788 22.8169C25.8957 22.0566 26.3943 21.015 26.4742 19.9019C26.5541 18.7887 26.2094 17.6866 25.5095 16.8174C24.8096 15.9481 23.8064 15.3762 22.7019 15.2168ZM22.0713 22.7203C21.4476 22.7203 20.838 22.5354 20.3195 22.1889C19.801 21.8425 19.3969 21.35 19.1582 20.7739C18.9196 20.1978 18.8571 19.5638 18.9788 18.9522C19.1005 18.3405 19.4008 17.7787 19.8417 17.3378C20.2827 16.8968 20.8445 16.5965 21.4561 16.4748C22.0678 16.3532 22.7017 16.4156 23.2779 16.6543C23.854 16.8929 24.3465 17.297 24.6929 17.8156C25.0394 18.3341 25.2243 18.9437 25.2243 19.5673C25.2233 20.4032 24.8908 21.2046 24.2997 21.7957C23.7086 22.3868 22.9072 22.7193 22.0713 22.7203Z" fill="#FD4404"></path></svg> 