<svg width="20" height="20" viewBox="0 0 20 20" fill="none" xmlns="http://www.w3.org/2000/svg">
<path fill-rule="evenodd" clip-rule="evenodd" d="M6.27681 8.65181C6.52089 8.40773 6.91661 8.40773 7.16069 8.65181L10 11.4911L12.8393 8.65181C13.0834 8.40773 13.4791 8.40773 13.7232 8.65181C13.9673 8.89589 13.9673 9.29161 13.7232 9.53569L10.4419 12.8169C10.1979 13.061 9.80214 13.061 9.55806 12.8169L6.27681 9.53569C6.03273 9.29161 6.03273 8.89589 6.27681 8.65181Z" fill="#203059"/>
<path fill-rule="evenodd" clip-rule="evenodd" d="M10 3C10.3452 3 10.625 3.27982 10.625 3.625V12.375C10.625 12.7202 10.3452 13 10 13C9.65482 13 9.375 12.7202 9.375 12.375V3.625C9.375 3.27982 9.65482 3 10 3Z" fill="#203059"/>
<path fill-rule="evenodd" clip-rule="evenodd" d="M3.125 11.75C3.47018 11.75 3.75 12.0298 3.75 12.375V16.75H16.25V12.375C16.25 12.0298 16.5298 11.75 16.875 11.75C17.2202 11.75 17.5 12.0298 17.5 12.375V16.75C17.5 17.0815 17.3683 17.3995 17.1339 17.6339C16.8995 17.8683 16.5815 18 16.25 18H3.75C3.41848 18 3.10054 17.8683 2.86612 17.6339C2.6317 17.3995 2.5 17.0815 2.5 16.75V12.375C2.5 12.0298 2.77982 11.75 3.125 11.75Z" fill="#203059"/>
</svg>