<svg width="15" height="16" viewBox="0 0 15 16" fill="none" xmlns="http://www.w3.org/2000/svg">
<path fill-rule="evenodd" clip-rule="evenodd" d="M7.5 2.84375C4.65228 2.84375 2.34375 5.15228 2.34375 8C2.34375 10.8477 4.65228 13.1562 7.5 13.1562C10.3477 13.1562 12.6562 10.8477 12.6562 8C12.6562 5.15228 10.3477 2.84375 7.5 2.84375ZM1.40625 8C1.40625 4.63451 4.13451 1.90625 7.5 1.90625C10.8655 1.90625 13.5938 4.63451 13.5938 8C13.5938 11.3655 10.8655 14.0938 7.5 14.0938C4.13451 14.0938 1.40625 11.3655 1.40625 8Z" fill="#FD4404"/>
<path fill-rule="evenodd" clip-rule="evenodd" d="M7.5 4.25C7.75888 4.25 7.96875 4.45987 7.96875 4.71875V7.53125H10.7812C11.0401 7.53125 11.25 7.74112 11.25 8C11.25 8.25888 11.0401 8.46875 10.7812 8.46875H7.5C7.24112 8.46875 7.03125 8.25888 7.03125 8V4.71875C7.03125 4.45987 7.24112 4.25 7.5 4.25Z" fill="#FD4404"/>
</svg>
