<svg width="20" height="20" viewBox="0 0 20 20" fill="none" xmlns="http://www.w3.org/2000/svg">
<path fill-rule="evenodd" clip-rule="evenodd" d="M2.5 3.75C2.5 3.05964 3.05964 2.5 3.75 2.5H16.25C16.9404 2.5 17.5 3.05964 17.5 3.75V16.25C17.5 16.9404 16.9404 17.5 16.25 17.5H3.75C3.05964 17.5 2.5 16.9404 2.5 16.25V3.75ZM16.25 3.75H3.75V16.25H16.25V3.75Z" fill="#FD4404"/>
<path fill-rule="evenodd" clip-rule="evenodd" d="M13.75 1.25C14.0952 1.25 14.375 1.52982 14.375 1.875V4.375C14.375 4.72018 14.0952 5 13.75 5C13.4048 5 13.125 4.72018 13.125 4.375V1.875C13.125 1.52982 13.4048 1.25 13.75 1.25Z" fill="#FD4404"/>
<path fill-rule="evenodd" clip-rule="evenodd" d="M6.25 1.25C6.59518 1.25 6.875 1.52982 6.875 1.875V4.375C6.875 4.72018 6.59518 5 6.25 5C5.90482 5 5.625 4.72018 5.625 4.375V1.875C5.625 1.52982 5.90482 1.25 6.25 1.25Z" fill="#FD4404"/>
<path fill-rule="evenodd" clip-rule="evenodd" d="M2.5 6.875C2.5 6.52982 2.77982 6.25 3.125 6.25H16.875C17.2202 6.25 17.5 6.52982 17.5 6.875C17.5 7.22018 17.2202 7.5 16.875 7.5H3.125C2.77982 7.5 2.5 7.22018 2.5 6.875Z" fill="#FD4404"/>
<path fill-rule="evenodd" clip-rule="evenodd" d="M13.2674 9.57141C13.5041 9.82264 13.4923 10.2182 13.2411 10.4549L9.59266 13.8924C9.35134 14.1198 8.97447 14.1191 8.73393 13.8909L6.75736 12.0159C6.50694 11.7784 6.4965 11.3828 6.73406 11.1324C6.97162 10.8819 7.36721 10.8715 7.61764 11.1091L9.16552 12.5774L12.3839 9.54511C12.6351 9.3084 13.0307 9.32017 13.2674 9.57141Z" fill="#FD4404"/>
</svg>
