<svg width="50" height="50" viewBox="0 0 50 50" fill="none" xmlns="http://www.w3.org/2000/svg">
<path fill-rule="evenodd" clip-rule="evenodd" d="M6.25 9.37476C6.25 7.64887 7.64911 6.24976 9.375 6.24976H40.625C42.3509 6.24976 43.75 7.64887 43.75 9.37476V40.6248C43.75 42.3506 42.3509 43.7498 40.625 43.7498H9.375C7.64911 43.7498 6.25 42.3506 6.25 40.6248V9.37476ZM40.625 9.37476H9.375V40.6248H40.625V9.37476Z" fill="#203059"/>
<path fill-rule="evenodd" clip-rule="evenodd" d="M34.375 3.12476C35.2379 3.12476 35.9375 3.82431 35.9375 4.68726V10.9373C35.9375 11.8002 35.2379 12.4998 34.375 12.4998C33.5121 12.4998 32.8125 11.8002 32.8125 10.9373V4.68726C32.8125 3.82431 33.5121 3.12476 34.375 3.12476Z" fill="#203059"/>
<path fill-rule="evenodd" clip-rule="evenodd" d="M15.625 3.12476C16.4879 3.12476 17.1875 3.82431 17.1875 4.68726V10.9373C17.1875 11.8002 16.4879 12.4998 15.625 12.4998C14.7621 12.4998 14.0625 11.8002 14.0625 10.9373V4.68726C14.0625 3.82431 14.7621 3.12476 15.625 3.12476Z" fill="#203059"/>
<path fill-rule="evenodd" clip-rule="evenodd" d="M6.25 17.1873C6.25 16.3243 6.94956 15.6248 7.8125 15.6248H42.1875C43.0504 15.6248 43.75 16.3243 43.75 17.1873C43.75 18.0502 43.0504 18.7498 42.1875 18.7498H7.8125C6.94956 18.7498 6.25 18.0502 6.25 17.1873Z" fill="#203059"/>
<path fill-rule="evenodd" clip-rule="evenodd" d="M33.1685 23.9283C33.7603 24.5564 33.7308 25.5452 33.1027 26.137L23.9817 34.7307C23.3784 35.2992 22.4362 35.2976 21.8348 34.7271L16.8934 30.0396C16.2673 29.4457 16.2413 28.4567 16.8352 27.8307C17.4291 27.2046 18.418 27.1785 19.0441 27.7724L22.9138 31.4433L30.9598 23.8625C31.5878 23.2708 32.5767 23.3002 33.1685 23.9283Z" fill="#FD4404"/>
</svg>
