<?xml version="1.0" encoding="UTF-8"?> <svg xmlns="http://www.w3.org/2000/svg" viewBox="0 0 25 26" fill="none"><path d="M20 8.15403C19.4481 8.39521 18.855 8.55764 18.2325 8.63086C18.8681 8.25616 19.3562 7.66244 19.5856 6.95489C18.9912 7.3019 18.3325 7.55415 17.6312 7.69013C17.0706 7.10132 16.27 6.7334 15.385 6.7334C13.3981 6.7334 11.9381 8.55825 12.3869 10.4526C9.83 10.3265 7.5625 9.1206 6.04438 7.28775C5.23813 8.64931 5.62625 10.4305 6.99625 11.3325C6.4925 11.3165 6.0175 11.1805 5.60312 10.9535C5.56937 12.3569 6.59125 13.6698 8.07125 13.9621C7.63813 14.0777 7.16375 14.1048 6.68125 14.0138C7.0725 15.2172 8.20875 16.0927 9.55625 16.1173C8.2625 17.1159 6.6325 17.5619 5 17.3724C6.36187 18.232 7.98 18.7334 9.7175 18.7334C15.4313 18.7334 18.6594 13.983 18.4644 9.72232C19.0656 9.29472 19.5875 8.76129 20 8.15403Z" fill="#203059"> </path></svg> 