<?xml version="1.0" encoding="UTF-8"?> <svg xmlns="http://www.w3.org/2000/svg" width="26" height="25" viewBox="0 0 26 25" fill="none"><path d="M12.5259 1.41568C12.6782 0.960727 13.3218 0.960728 13.4741 1.41568L15.7523 8.21806C15.82 8.42031 16.0086 8.55733 16.2219 8.55925L23.3953 8.62384C23.8751 8.62816 24.0739 9.24017 23.6883 9.52567L17.9229 13.7944C17.7514 13.9213 17.6794 14.143 17.7435 14.3464L19.8988 21.1887C20.0429 21.6463 19.5223 22.0246 19.1316 21.7461L13.2902 17.5819C13.1166 17.4581 12.8834 17.4581 12.7098 17.5819L6.86837 21.7461C6.47769 22.0246 5.95708 21.6463 6.10123 21.1887L8.25651 14.3464C8.3206 14.143 8.24856 13.9213 8.07713 13.7944L2.31168 9.52567C1.92607 9.24017 2.12493 8.62816 2.6047 8.62384L9.77813 8.55925C9.99142 8.55733 10.18 8.42031 10.2477 8.21806L12.5259 1.41568Z" stroke="#FFD202"></path></svg> 